<?xml version="1.0" encoding="UTF-8"?>
<!-- Generated by jsxcad -->
<!DOCTYPE svg PUBLIC "-//W3C//DTD SVG 1.1 Tiny//EN" "http://www.w3.org/Graphics/SVG/1.1/DTD/svg11-tiny.dtd">
<svg baseProfile="tiny" height="161.13848572702182mm" width="23.94545609257999mm" viewBox="-23.160610959836628 -77.72252845255619 23.94545609257999 161.13848572702182" version="1.1" stroke="black" stroke-width=".1" fill="none" xmlns="http://www.w3.org/2000/svg">
<path fill="#bababa" stroke="#bababa" d="M-20.75315789473684 59.357588085995815 L-22.28484513274336 59.06775744047224 L-12.972387678692987 34.49600622326935 L-11.402697413206262 34.79302792040783 L-20.712429527836502 59.357588085995815 z"/>
<path fill="#bababa" stroke="#bababa" d="M-20.712429527836502 59.09223275604656 L-11.402697413206262 34.52767259045859 L-11.583815520762423 34.49340085617338 L-20.896272974812796 59.06515207337629 L-20.75315789473684 59.09223275604656 z"/>
<path fill="#bababa" stroke="#bababa" d="M-22.103727025187197 58.08483374328538 L-22.103727025187197 58.96935150978285 L-12.791269571136823 34.39760029257994 L-12.791269571136825 33.51308252608247 z"/>
<path fill="#bababa" stroke="#bababa" d="M-20.896272974812796 58.31331197185343 L-22.1037270251872 58.084833743285365 L-12.791269571136826 33.51308252608247 L-11.583815520762423 33.74156075465054 z"/>
<path fill="#bababa" stroke="#bababa" d="M-20.712429527836502 59.1148204394965 L-20.7124295278365 59.35758808599581 L-11.40269741320626 34.793027920407845 L-11.402697413206258 34.52767259045861 L-20.7124295278365 59.09223275604657 z"/>
<path fill="#bababa" stroke="#bababa" d="M-20.7124295278365 58.23030267299904 L-20.712429527836502 58.47307031949835 L-11.402697413206262 33.90851015391038 L-11.40269741320626 33.64315482396114 L-20.712429527836502 58.20771498954911 z"/>
<path fill="#bababa" stroke="#bababa" d="M-12.972387678692987 33.346133126822636 L-22.28484513274336 57.917884344025545 L-20.75315789473684 58.20771498954911 L-20.712429527836502 58.20771498954911 L-11.402697413206262 33.64315482396114 z"/>
<path fill="#bababa" stroke="#bababa" d="M-22.284845132743357 59.06775744047225 L-22.284845132743357 57.917884344025545 L-12.972387678692986 33.34613312682264 L-12.972387678692987 34.49600622326935 z"/>
<path fill="#bababa" stroke="#bababa" d="M-22.1037270251872 58.96935150978284 L-20.896272974812796 59.197829738350904 L-11.583815520762423 34.626078521148 L-12.791269571136826 34.397600292579945 z"/>
<path fill="#bababa" stroke="#bababa" d="M-20.75315789473684 58.47307031949835 L-20.896272974812796 58.44598963682807 L-11.583815520762423 33.874238419625165 L-11.402697413206262 33.90851015391038 L-20.712429527836502 58.47307031949835 z"/>
<path fill="#bababa" stroke="#bababa" d="M-20.896272974812796 58.445989636828074 L-20.896272974812796 58.31331197185345 L-11.583815520762421 33.74156075465055 L-11.583815520762421 33.87423841962517 z"/>
<path fill="#bababa" stroke="#bababa" d="M-20.896272974812792 59.19782973835091 L-20.896272974812792 59.06515207337629 L-11.58381552076242 34.49340085617339 L-11.583815520762421 34.62607852114802 z"/>
<path fill="#bababa" stroke="#bababa" d="M-11.402697413206262 34.52767259045861 L-11.402697413206262 34.793027920407845 L-12.972387678692987 34.49600622326935 L-12.972387678692987 33.34613312682265 L-11.402697413206262 33.64315482396114 L-11.402697413206262 33.90851015391038 L-11.583815520762421 33.874238419625165 L-11.583815520762421 33.74156075465055 L-12.791269571136825 33.51308252608248 L-12.791269571136825 34.39760029257994 L-11.583815520762421 34.62607852114801 L-11.583815520762421 34.493400856173395 z"/>
<path fill="#bababa" stroke="#bababa" d="M-20.75315789473684 58.47307031949835 L-20.712429527836502 58.47307031949835 L-20.712429527836502 58.20771498954911 L-20.75315789473684 58.20771498954911 z"/>
<path fill="#bababa" stroke="#bababa" d="M-20.75315789473684 59.120071788907914 L-20.75315789473684 59.357588085995815 L-20.712429527836502 59.357588085995815 L-20.712429527836502 59.09223275604658 L-20.75315789473684 59.09223275604658 z"/>
<path fill="#bababa" stroke="#bababa" d="M-20.753157894736837 58.235554022410454 L-20.753157894736837 58.20771498954912 L-22.284845132743357 57.91788434402555 L-22.284845132743357 59.06775744047225 L-20.753157894736837 59.357588085995815 L-20.753157894736837 59.09223275604657 L-20.896272974812796 59.06515207337629 L-20.896272974812796 59.19782973835091 L-22.1037270251872 58.96935150978284 L-22.1037270251872 58.08483374328538 L-20.896272974812796 58.31331197185345 L-20.896272974812796 58.445989636828074 L-20.753157894736837 58.47307031949835 z"/>
<path fill="#bababa" stroke="#bababa" d="M-22.5 59.357588085995815 L-1.5 59.357588085995815 L-1.5 60.505811436249616 L-22.5 60.505811436249616 z"/>
<path fill="#bababa" stroke="#bababa" d="M-22.5 59.224720065691244 L-1.5 59.224720065691244 L-1.5 59.09223275604657 L-22.5 59.09223275604657 z"/>
<path fill="#bababa" stroke="#bababa" d="M-22.5 59.35612869513287 L-1.5 59.35612869513287 L-1.5 60.240646461630334 L-22.5 60.240646461630334 z"/>
<path fill="#bababa" stroke="#bababa" d="M-22.5 58.4728799641684 L-1.5 58.4728799641684 L-1.5 59.35612869513287 L-22.5 59.35612869513287 z"/>
<path fill="#bababa" stroke="#bababa" d="M-22.5 58.20771498954911 L-1.5 58.20771498954911 L-1.5 58.47307031949835 L-22.5 58.47307031949835 z"/>
<path fill="#bababa" stroke="#bababa" d="M-22.5 59.09223275604657 L-1.5 59.09223275604657 L-1.5 59.35758808599581 L-22.5 59.35758808599581 z"/>
<path fill="#bababa" stroke="#bababa" d="M-22.5 59.35593833980291 L-1.5 59.35593833980291 L-1.5 58.2077149895491 L-22.5 58.2077149895491 z"/>
<path fill="#bababa" stroke="#bababa" d="M-22.5 60.505811436249616 L-1.5 60.505811436249616 L-1.5 59.355938339802925 L-22.5 59.355938339802925 z"/>
<path fill="#bababa" stroke="#bababa" d="M-22.5 60.24064646163033 L-1.5 60.24064646163033 L-1.5 59.357397730665866 L-22.5 59.357397730665866 z"/>
<path fill="#bababa" stroke="#bababa" d="M-22.5 58.47307031949833 L-1.5 58.47307031949833 L-1.5 58.605557629143014 L-22.5 58.605557629143014 z"/>
<path fill="#bababa" stroke="#bababa" d="M-22.5 58.605557629143014 L-1.5 58.605557629143014 L-1.5 58.4728799641684 L-22.5 58.4728799641684 z"/>
<path fill="#bababa" stroke="#bababa" d="M-22.5 59.35739773066586 L-1.5 59.35739773066586 L-1.5 59.22472006569124 L-22.5 59.22472006569124 z"/>
<path fill="#bababa" stroke="#bababa" d="M-22.5 59.09223275604658 L-22.5 59.357588085995815 L-22.5 60.50581143624962 L-22.5 59.355938339802925 L-22.5 58.20771498954912 L-22.5 58.473070319498355 L-22.5 58.60555762914302 L-22.5 58.472879964168406 L-22.5 59.356128695132874 L-22.5 60.240646461630334 L-22.5 59.357397730665866 L-22.5 59.224720065691244 z"/>
<path fill="#bababa" stroke="#bababa" d="M-1.5 59.357588085995815 L-1.5 59.09223275604658 L-1.5 59.224720065691244 L-1.5 59.357397730665866 L-1.5 60.240646461630334 L-1.5 59.356128695132874 L-1.5 58.472879964168406 L-1.5 58.60555762914302 L-1.5 58.473070319498355 L-1.5 58.20771498954912 L-1.5 59.355938339802925 L-1.5 60.50581143624962 z"/>
<path fill="#bababa" stroke="#bababa" d="M-20.75315789473684 -4.327691101821444 L-22.28484513274336 -4.617521747345036 L-12.972387678692987 -29.189272964547904 L-11.402697413206262 -28.892251267409424 L-20.712429527836502 -4.327691101821444 z"/>
<path fill="#bababa" stroke="#bababa" d="M-20.712429527836502 -4.593046431770702 L-11.402697413206262 -29.15760659735867 L-11.583815520762423 -29.191878331643885 L-20.896272974812796 -4.620127114440974 L-20.75315789473684 -4.593046431770702 z"/>
<path fill="#bababa" stroke="#bababa" d="M-22.103727025187197 -5.60044544453187 L-22.1037270251872 -4.715927678034408 L-12.791269571136825 -29.28767889523731 L-12.791269571136825 -30.17219666173477 z"/>
<path fill="#bababa" stroke="#bababa" d="M-20.896272974812796 -5.3719672159638 L-22.1037270251872 -5.600445444531889 L-12.791269571136826 -30.172196661734787 L-11.583815520762423 -29.943718433166726 z"/>
<path fill="#bababa" stroke="#bababa" d="M-20.712429527836502 -4.570458748320751 L-20.7124295278365 -4.327691101821439 L-11.40269741320626 -28.892251267409407 L-11.402697413206258 -29.157606597358647 L-20.7124295278365 -4.593046431770677 z"/>
<path fill="#bababa" stroke="#bababa" d="M-20.7124295278365 -5.454976514818212 L-20.712429527836502 -5.212208868318901 L-11.40269741320626 -29.77676903390687 L-11.40269741320626 -30.042124363856107 L-20.712429527836502 -5.477564198268139 z"/>
<path fill="#bababa" stroke="#bababa" d="M-12.972387678692987 -30.33914606099461 L-22.28484513274336 -5.767394843791705 L-20.75315789473684 -5.477564198268156 L-20.712429527836502 -5.477564198268156 L-11.402697413206262 -30.04212436385613 z"/>
<path fill="#bababa" stroke="#bababa" d="M-22.284845132743357 -4.617521747345 L-22.28484513274336 -5.7673948437917 L-12.972387678692987 -30.339146060994597 L-12.972387678692984 -29.189272964547904 z"/>
<path fill="#bababa" stroke="#bababa" d="M-22.1037270251872 -4.715927678034416 L-20.896272974812796 -4.4874494494663555 L-11.583815520762423 -29.059200666669252 L-12.791269571136826 -29.287678895237313 z"/>
<path fill="#bababa" stroke="#bababa" d="M-20.75315789473684 -5.212208868318905 L-20.896272974812796 -5.2392895509891995 L-11.583815520762423 -29.811040768192097 L-11.402697413206262 -29.776769033906874 L-20.712429527836502 -5.212208868318905 z"/>
<path fill="#bababa" stroke="#bababa" d="M-20.896272974812796 -5.239289550989179 L-20.896272974812796 -5.371967215963799 L-11.583815520762421 -29.9437184331667 L-11.583815520762421 -29.811040768192083 z"/>
<path fill="#bababa" stroke="#bababa" d="M-20.896272974812792 -4.487449449466337 L-20.896272974812792 -4.620127114440956 L-11.58381552076242 -29.191878331643856 L-11.58381552076242 -29.059200666669238 z"/>
<path fill="#bababa" stroke="#bababa" d="M-11.402697413206262 -29.157606597358644 L-11.402697413206262 -28.892251267409407 L-12.972387678692987 -29.1892729645479 L-12.972387678692987 -30.3391460609946 L-11.402697413206262 -30.042124363856107 L-11.402697413206262 -29.77676903390687 L-11.583815520762421 -29.81104076819208 L-11.583815520762421 -29.943718433166698 L-12.791269571136825 -30.17219666173477 L-12.791269571136825 -29.28767889523731 L-11.583815520762421 -29.059200666669238 L-11.583815520762421 -29.191878331643856 z"/>
<path fill="#bababa" stroke="#bababa" d="M-20.75315789473684 -5.2122088683189 L-20.712429527836502 -5.2122088683189 L-20.712429527836502 -5.477564198268139 L-20.75315789473684 -5.477564198268139 z"/>
<path fill="#bababa" stroke="#bababa" d="M-20.75315789473684 -4.565207398909336 L-20.75315789473684 -4.327691101821439 L-20.712429527836502 -4.327691101821439 L-20.712429527836502 -4.593046431770677 L-20.75315789473684 -4.593046431770677 z"/>
<path fill="#bababa" stroke="#bababa" d="M-20.753157894736837 -5.4497251654067975 L-20.753157894736837 -5.477564198268139 L-22.284845132743357 -5.7673948437917 L-22.284845132743357 -4.617521747344999 L-20.753157894736837 -4.327691101821438 L-20.753157894736837 -4.593046431770677 L-20.896272974812796 -4.6201271144409555 L-20.896272974812796 -4.487449449466337 L-22.1037270251872 -4.715927678034409 L-22.1037270251872 -5.6004454445318705 L-20.896272974812796 -5.371967215963799 L-20.896272974812796 -5.239289550989179 L-20.753157894736837 -5.212208868318901 z"/>
<path fill="#bababa" stroke="#bababa" d="M-22.5 -4.327691101821475 L-1.5 -4.327691101821475 L-1.5 -3.1794677515676724 L-22.5 -3.1794677515676724 z"/>
<path fill="#bababa" stroke="#bababa" d="M-22.5 -4.460559122126024 L-1.5 -4.460559122126024 L-1.5 -4.593046431770704 L-22.5 -4.593046431770704 z"/>
<path fill="#bababa" stroke="#bababa" d="M-22.5 -4.3291504926843825 L-1.5 -4.3291504926843825 L-1.5 -3.4446327261869207 L-22.5 -3.4446327261869207 z"/>
<path fill="#bababa" stroke="#bababa" d="M-22.5 -5.2123992236488546 L-1.5 -5.2123992236488546 L-1.5 -4.329150492684391 L-22.5 -4.329150492684391 z"/>
<path fill="#bababa" stroke="#bababa" d="M-22.5 -5.477564198268139 L-1.5 -5.477564198268139 L-1.5 -5.212208868318901 L-22.5 -5.212208868318901 z"/>
<path fill="#bababa" stroke="#bababa" d="M-22.5 -4.593046431770677 L-1.5 -4.593046431770677 L-1.5 -4.327691101821439 L-22.5 -4.327691101821439 z"/>
<path fill="#bababa" stroke="#bababa" d="M-22.5 -4.329340848014357 L-1.5 -4.329340848014357 L-1.5 -5.47756419826816 L-22.5 -5.47756419826816 z"/>
<path fill="#bababa" stroke="#bababa" d="M-22.5 -3.1794677515676315 L-1.5 -3.1794677515676315 L-1.5 -4.329340848014332 L-22.5 -4.329340848014332 z"/>
<path fill="#bababa" stroke="#bababa" d="M-22.5 -3.4446327261869416 L-1.5 -3.4446327261869416 L-1.5 -4.327881457151405 L-22.5 -4.327881457151405 z"/>
<path fill="#bababa" stroke="#bababa" d="M-22.5 -5.212208868318935 L-1.5 -5.212208868318935 L-1.5 -5.0797215586742555 L-22.5 -5.0797215586742555 z"/>
<path fill="#bababa" stroke="#bababa" d="M-22.5 -5.079721558674231 L-1.5 -5.079721558674231 L-1.5 -5.212399223648849 L-22.5 -5.212399223648849 z"/>
<path fill="#bababa" stroke="#bababa" d="M-22.5 -4.3278814571513875 L-1.5 -4.3278814571513875 L-1.5 -4.460559122126007 L-22.5 -4.460559122126007 z"/>
<path fill="#bababa" stroke="#bababa" d="M-22.5 -4.593046431770677 L-22.5 -4.327691101821439 L-22.5 -3.179467751567632 L-22.5 -4.329340848014332 L-22.5 -5.477564198268139 L-22.5 -5.212208868318901 L-22.5 -5.079721558674231 L-22.5 -5.21239922364885 L-22.5 -4.329150492684383 L-22.5 -3.444632726186921 L-22.5 -4.327881457151388 L-22.5 -4.460559122126007 z"/>
<path fill="#bababa" stroke="#bababa" d="M-1.5 -4.327691101821439 L-1.5 -4.593046431770677 L-1.5 -4.460559122126007 L-1.5 -4.327881457151388 L-1.5 -3.444632726186921 L-1.5 -4.329150492684383 L-1.5 -5.21239922364885 L-1.5 -5.079721558674231 L-1.5 -5.212208868318901 L-1.5 -5.477564198268139 L-1.5 -4.329340848014332 L-1.5 -3.179467751567632 z"/>
<path fill="#bababa" stroke="#bababa" d="M-3.414397549353306 -15.740505596297806 L-3.4143975493533065 -14.590632499851106 L-15.831007488087135 -47.35296745612164 L-15.831007488087133 -48.50284055256834 z"/>
<path fill="#bababa" stroke="#bababa" d="M-3.354024846834581 -14.60205641127951 L-3.414397549353301 -14.590632499851106 L-3.414397549353301 -15.740505596297808 L-3.354024846834581 -15.751929507726212 z"/>
<path fill="#bababa" stroke="#bababa" d="M-3.354024846834581 -15.751929507726226 L-3.414397549353301 -15.740505596297842 L-15.831007488087133 -48.50284055256835 L-15.770634785568413 -48.51426446399676 L-20.750212729748124 -61.65332587875109 L-22.31990299523485 -61.356304181612586 L-1.6255530973451326 -6.752412587828373 L-0.055862831858407076 -7.0494342849668525 z"/>
<path fill="#bababa" stroke="#bababa" d="M-1.444434989788972 -6.521328992164351 L-1.6255530973451326 -6.487057257879133 L-22.31990299523485 -61.09094885166335 L-22.138784887678693 -61.12522058594857 z"/>
<path fill="#bababa" stroke="#bababa" d="M-0.23698093941457107 -5.997967119209558 L-0.23698093941457557 -6.8824848857070196 L-20.93133083730429 -61.48637647949125 L-20.931330837304287 -60.60185871299378 z"/>
<path fill="#bababa" stroke="#bababa" d="M-1.444434989788972 -5.769488890641517 L-0.23698093941456772 -5.997967119209578 L-20.931330837304287 -60.601858712993796 L-22.138784887678693 -60.37338048442574 z"/>
<path fill="#bababa" stroke="#bababa" d="M-1.6255530973451335 -5.6025394913816555 L-1.6255530973451349 -5.867894821330895 L-22.31990299523485 -60.47178641511511 L-22.31990299523485 -60.206431085165875 z"/>
<path fill="#bababa" stroke="#bababa" d="M-1.6255530973451349 -6.487057257879118 L-1.6255530973451364 -6.752412587828356 L-22.319902995234855 -61.35630418161258 L-22.31990299523485 -61.09094885166334 z"/>
<path fill="#bababa" stroke="#bababa" d="M-15.770634785568411 -48.514264463996746 L-15.831007488087131 -48.50284055256834 L-15.831007488087131 -47.35296745612164 L-15.770634785568411 -47.36439136755004 z"/>
<path fill="#bababa" stroke="#bababa" d="M-3.354024846834581 -14.602056411279523 L-0.055862831858407076 -5.899561188520174 L-1.6255530973451326 -5.6025394913816795 L-22.31990299523485 -60.2064310851659 L-20.750212729748124 -60.5034527823044 L-15.770634785568413 -47.364391367550056 L-15.831007488087133 -47.35296745612165 L-3.414397549353301 -14.590632499851118 z"/>
<path fill="#bababa" stroke="#bababa" d="M-3.354024846834586 -14.60205641127951 L-3.354024846834582 -15.751929507726208 L-0.05586283185840962 -7.049434284966849 L-0.05586283185840716 -5.899561188520149 z"/>
<path fill="#bababa" stroke="#bababa" d="M-15.770634785568415 -47.36439136755004 L-20.750212729748128 -60.50345278230438 L-20.750212729748124 -61.65332587875107 L-15.770634785568413 -48.514264463996746 z"/>
<path fill="#bababa" stroke="#bababa" d="M-0.23698093941456772 -6.882484885707027 L-1.444434989788972 -6.654006657138965 L-22.138784887678693 -61.25789825092318 L-20.931330837304287 -61.48637647949128 z"/>
<path fill="#bababa" stroke="#bababa" d="M-1.6255530973451326 -5.867894821330913 L-1.444434989788972 -5.902166555616131 L-22.138784887678693 -60.506058149400346 L-22.31990299523485 -60.47178641511513 z"/>
<path fill="#bababa" stroke="#bababa" d="M-1.4444349897889732 -5.9021665556161045 L-1.4444349897889752 -5.769488890641486 L-22.138784887678693 -60.37338048442572 L-22.13878488767869 -60.506058149400324 z"/>
<path fill="#bababa" stroke="#bababa" d="M-1.4444349897889766 -6.6540066571389485 L-1.4444349897889734 -6.521328992164329 L-22.138784887678693 -61.125220585948554 L-22.138784887678693 -61.25789825092316 z"/>
<path fill="#bababa" stroke="#bababa" d="M-22.319902995234848 -61.09094885166334 L-22.319902995234848 -61.35630418161258 L-20.750212729748124 -61.653325878751076 L-20.750212729748124 -60.50345278230437 L-22.319902995234848 -60.20643108516588 L-22.319902995234848 -60.47178641511511 L-22.13878488767869 -60.506058149400324 L-22.13878488767869 -60.37338048442571 L-20.931330837304284 -60.60185871299378 L-20.931330837304284 -61.48637647949125 L-22.13878488767869 -61.257898250923176 L-22.13878488767869 -61.12522058594855 z"/>
<path fill="#bababa" stroke="#bababa" d="M-1.6255530973451326 -6.752412587828356 L-1.6255530973451326 -6.487057257879117 L-1.444434989788972 -6.521328992164328 L-1.444434989788972 -6.654006657138947 L-0.2369809394145677 -6.882484885707019 L-0.2369809394145677 -5.997967119209558 L-1.444434989788972 -5.769488890641486 L-1.444434989788972 -5.902166555616105 L-1.6255530973451326 -5.867894821330895 L-1.6255530973451326 -5.6025394913816555 L-0.055862831858407076 -5.899561188520149 L-0.055862831858407076 -7.04943428496685 z"/>
<path fill="#bababa" stroke="#bababa" d="M-3.907505105513958 46.6436652371363 L-3.414397549353305 47.94477359151944 L-3.414397549353302 49.09464668796615 L-15.831007488087135 16.33231173169561 L-15.831007488087135 15.182438635248909 z"/>
<path fill="#bababa" stroke="#bababa" d="M-3.4143975493533008 49.09464668796614 L-3.4143975493533008 47.94477359151944 L-3.354024846834581 47.93334968009104 L-3.354024846834581 49.08322277653774 z"/>
<path fill="#bababa" stroke="#bababa" d="M-3.3856261833092236 47.93932938372934 L-3.414397549353301 47.944773591519436 L-15.831007488087133 15.182438635248902 L-15.770634785568413 15.171014723820498 L-20.750212729748124 2.031953309066168 L-22.31990299523485 2.3289750062046677 L-1.6255530973451326 56.932866599988884 L-0.055862831858407076 56.6358449028504 L-3.354024846834581 47.933349680091034 z"/>
<path fill="#bababa" stroke="#bababa" d="M-1.444434989788972 57.163950195652916 L-1.6255530973451326 57.198221929938136 L-22.31990299523485 2.5943303361539067 L-22.138784887678693 2.5600586018686977 z"/>
<path fill="#bababa" stroke="#bababa" d="M-0.2369809394145691 57.687312068607696 L-0.23698093941456974 56.802794302110236 L-20.931330837304287 2.198902708326007 L-20.931330837304287 3.083420474823469 z"/>
<path fill="#bababa" stroke="#bababa" d="M-1.444434989788972 57.915790297175754 L-0.23698093941456772 57.687312068607696 L-20.931330837304287 3.0834204748234613 L-22.138784887678693 3.311898703391538 z"/>
<path fill="#bababa" stroke="#bababa" d="M-1.6255530973451355 58.08273969643559 L-1.625553097345136 57.81738436648636 L-22.319902995234855 3.213492772702132 L-22.31990299523485 3.4788481026513707 z"/>
<path fill="#bababa" stroke="#bababa" d="M-1.625553097345137 57.19822192993813 L-1.6255530973451378 56.93286659998889 L-22.31990299523485 2.3289750062046704 L-22.319902995234855 2.594330336153909 z"/>
<path fill="#bababa" stroke="#bababa" d="M-15.831007488087133 15.182438635248909 L-15.831007488087133 16.332311731695608 L-15.77063478556841 16.320887820267206 L-15.77063478556841 15.171014723820505 z"/>
<path fill="#bababa" stroke="#bababa" d="M-3.414397549353301 49.094646687966126 L-3.354024846834581 49.083222776537724 L-0.055862831858407076 57.7857179992971 L-1.6255530973451326 58.082739696435596 L-22.31990299523485 3.4788481026513662 L-20.750212729748124 3.1818264055128713 L-15.770634785568413 16.320887820267203 L-15.831007488087133 16.332311731695608 z"/>
<path fill="#bababa" stroke="#bababa" d="M-3.354024846834583 49.08322277653774 L-3.3540248468345815 47.93334968009104 L-0.05586283185840931 56.6358449028504 L-0.05586283185840969 57.785717999297106 z"/>
<path fill="#bababa" stroke="#bababa" d="M-15.770634785568415 16.320887820267203 L-20.750212729748128 3.1818264055128775 L-20.750212729748128 2.031953309066177 L-15.770634785568413 15.171014723820505 z"/>
<path fill="#bababa" stroke="#bababa" d="M-0.23698093941456772 56.80279430211023 L-1.444434989788972 57.031272530678294 L-22.138784887678693 2.427380936894074 L-20.931330837304287 2.1989027083259973 z"/>
<path fill="#bababa" stroke="#bababa" d="M-1.6255530973451326 57.81738436648635 L-1.444434989788972 57.78311263220113 L-22.138784887678693 3.1792210384169177 L-22.31990299523485 3.2134927727021267 z"/>
<path fill="#bababa" stroke="#bababa" d="M-1.4444349897889746 57.783112632201146 L-1.4444349897889757 57.91579029717577 L-22.138784887678693 3.3118987033915404 L-22.138784887678693 3.1792210384169213 z"/>
<path fill="#bababa" stroke="#bababa" d="M-1.4444349897889772 57.0312725306783 L-1.4444349897889757 57.163950195652916 L-22.138784887678693 2.5600586018686977 L-22.138784887678693 2.4273809368940786 z"/>
<path fill="#bababa" stroke="#bababa" d="M-22.319902995234848 2.5943303361539085 L-22.319902995234848 2.32897500620467 L-20.750212729748124 2.031953309066177 L-20.750212729748124 3.1818264055128775 L-22.319902995234848 3.4788481026513702 L-22.319902995234848 3.2134927727021316 L-22.13878488767869 3.1792210384169213 L-22.13878488767869 3.311898703391541 L-20.931330837304284 3.083420474823469 L-20.931330837304284 2.198902708326007 L-22.13878488767869 2.4273809368940786 L-22.13878488767869 2.5600586018686977 z"/>
<path fill="#bababa" stroke="#bababa" d="M-1.6255530973451326 56.93286659998889 L-1.6255530973451326 57.198221929938136 L-1.444434989788972 57.16395019565292 L-1.444434989788972 57.031272530678294 L-0.2369809394145677 56.80279430211022 L-0.2369809394145677 57.687312068607696 L-1.444434989788972 57.91579029717577 L-1.444434989788972 57.783112632201146 L-1.6255530973451326 57.81738436648636 L-1.6255530973451326 58.08273969643559 L-0.055862831858407076 57.7857179992971 L-0.055862831858407076 56.6358449028504 z"/>
<path fill="#bababa" stroke="#bababa" d="M-1.2051991150442476 -7.191177131200172 L-1.2051991150442476 77.72252845255615 L0.3644911504424778 77.42550675541766 L0.3644911504424778 -7.488198828338666 z"/>
<path fill="#bababa" stroke="#bababa" d="M-1.121085772634445 -7.481404607331247 L-1.121085772634445 77.43230097642508 L-1.3022038801906055 77.4665727107103 L-1.3022038801906055 -7.447132873046036 z"/>
<path fill="#bababa" stroke="#bababa" d="M-0.18847855684138853 -8.435090771129264 L-0.1884785568413893 76.47861481262707 L0.1348706603131354 77.33180061877994 L0.13487066031313402 -7.5819049649763866 z"/>
<path fill="#bababa" stroke="#bababa" d="M-1.395932607215793 -8.206612542561192 L-1.395932607215793 76.70709304119514 L-0.18847855684138867 76.47861481262706 L-0.18847855684138867 -8.435090771129264 z"/>
<path fill="#bababa" stroke="#bababa" d="M-1.6255530973451362 -8.300318679198915 L-1.6255530973451349 76.61338690455742 L-1.5285483321987785 76.86934264640327 L-1.5285483321987812 -8.04436293735305 z"/>
<path fill="#bababa" stroke="#bababa" d="M-1.30220388019061 -7.447132873046036 L-1.3022038801906106 77.4665727107103 L-1.2051991150442518 77.72252845255615 L-1.2051991150442478 -7.191177131200173 z"/>
<path fill="#bababa" stroke="#bababa" d="M-0.05586283185840707 -8.597340376337407 L-0.05586283185840707 76.31636520741891 L-1.6255530973451326 76.6133869045574 L-1.6255530973451326 -8.300318679198913 z"/>
<path fill="#bababa" stroke="#bababa" d="M0.3644911504424755 -7.488198828338666 L0.3644911504424737 77.42550675541766 L-0.05586283185841172 76.31636520741893 L-0.055862831858411774 -8.597340376337407 z"/>
<path fill="#bababa" stroke="#bababa" d="M0.13487066031313816 -7.581904964976387 L0.13487066031313816 77.33180061877995 L-1.072583390061266 77.56027884734802 L-1.072583390061266 -7.3534267364083155 z"/>
<path fill="#bababa" stroke="#bababa" d="M-1.5285483321987745 -8.04436293735305 L-1.5285483321987745 76.86934264640328 L-1.3474302246426137 76.83507091211807 L-1.3474302246426137 -8.07863467163826 z"/>
<path fill="#bababa" stroke="#bababa" d="M-1.3474302246426173 -8.078634671638262 L-1.3474302246426157 76.83507091211807 L-1.3959326072157934 76.70709304119514 L-1.3959326072157945 -8.206612542561192 z"/>
<path fill="#bababa" stroke="#bababa" d="M-1.0725833900612685 -7.353426736408315 L-1.0725833900612691 77.56027884734802 L-1.1210857726344503 77.43230097642508 L-1.1210857726344459 -7.481404607331247 z"/>
<path fill="#bababa" stroke="#bababa" d="M-1.3022038801906057 -7.447132873046048 L-1.2051991150442476 -7.191177131200194 L0.3644911504424779 -7.488198828338684 L-0.055862831858407076 -8.597340376337423 L-1.6255530973451326 -8.300318679198933 L-1.5285483321987745 -8.044362937353055 L-1.347430224642614 -8.078634671638282 L-1.395932607215793 -8.206612542561198 L-0.18847855684138867 -8.43509077112928 L0.13487066031313819 -7.581904964976397 L-1.072583390061266 -7.353426736408336 L-1.1210857726344452 -7.4814046073312515 z"/>
<path fill="#bababa" stroke="#bababa" d="M-1.2051991150442476 77.72252845255615 L-1.3022038801906057 77.4665727107103 L-1.1210857726344452 77.43230097642507 L-1.072583390061266 77.56027884734802 L0.13487066031313819 77.33180061877992 L-0.18847855684138867 76.47861481262707 L-1.395932607215793 76.70709304119512 L-1.347430224642614 76.83507091211807 L-1.5285483321987745 76.86934264640327 L-1.6255530973451326 76.61338690455742 L-0.055862831858407076 76.31636520741893 L0.3644911504424779 77.42550675541766 z"/>
<path fill="#bababa" stroke="#bababa" d="M-0.7848451327433628 -25.187619339546607 L-0.7848451327433628 59.726086244209725 L0.7848451327433628 59.429064547071235 L0.7848451327433628 -25.4846410366851 z"/>
<path fill="#bababa" stroke="#bababa" d="M-0.7007317903335601 -25.47784681567768 L-0.7007317903335601 59.43585876807866 L-0.8818498978897208 59.470130502363865 L-0.8818498978897208 -25.44357508139247 z"/>
<path fill="#bababa" stroke="#bababa" d="M0.2318754254594934 -26.431532979475698 L0.23187542545949588 58.48217260428064 L0.5552246426140206 59.335358410433514 L0.555224642614022 -25.57834717332282 z"/>
<path fill="#bababa" stroke="#bababa" d="M-0.9755786249149079 -26.203054750907622 L-0.9755786249149079 58.71065083284871 L0.23187542545949621 58.482172604280635 L0.23187542545949621 -26.431532979475694 z"/>
<path fill="#bababa" stroke="#bababa" d="M-1.2051991150442514 -26.296760887545346 L-1.205199115044251 58.616944696210986 L-1.1081943498978921 58.87290043805685 L-1.1081943498978897 -26.040805145699487 z"/>
<path fill="#bababa" stroke="#bababa" d="M-0.8818498978897255 -25.443575081392467 L-0.8818498978897242 59.47013050236387 L-0.7848451327433668 59.726086244209725 L-0.784845132743363 -25.187619339546604 z"/>
<path fill="#bababa" stroke="#bababa" d="M0.3644911504424778 -26.59378258468384 L0.3644911504424778 58.319922999072496 L-1.2051991150442476 58.61694469621099 L-1.2051991150442476 -26.29676088754535 z"/>
<path fill="#bababa" stroke="#bababa" d="M0.7848451327433633 -25.484641036685098 L0.7848451327433587 59.429064547071235 L0.3644911504424757 58.319922999072496 L0.3644911504424757 -26.59378258468384 z"/>
<path fill="#bababa" stroke="#bababa" d="M0.555224642614023 -25.578347173322822 L0.555224642614023 59.335358410433514 L-0.6522294077603811 59.563836639001586 L-0.6522294077603811 -25.34986894475475 z"/>
<path fill="#bababa" stroke="#bababa" d="M-1.1081943498978895 -26.040805145699483 L-1.1081943498978895 58.87290043805685 L-0.9270762423417289 58.83862870377164 L-0.9270762423417289 -26.075076879984696 z"/>
<path fill="#bababa" stroke="#bababa" d="M-0.9270762423417326 -26.075076879984692 L-0.927076242341732 58.83862870377164 L-0.9755786249149097 58.71065083284871 L-0.9755786249149101 -26.203054750907626 z"/>
<path fill="#bababa" stroke="#bababa" d="M-0.652229407760384 -25.349868944754746 L-0.6522294077603829 59.563836639001586 L-0.7007317903335641 59.43585876807866 L-0.7007317903335616 -25.47784681567768 z"/>
<path fill="#bababa" stroke="#bababa" d="M-0.8818498978897208 -25.443575081392485 L-0.7848451327433628 -25.187619339546607 L0.7848451327433628 -25.484641036685144 L0.3644911504424779 -26.593782584683883 L-1.2051991150442476 -26.29676088754539 L-1.1081943498978897 -26.040805145699515 L-0.927076242341729 -26.075076879984717 L-0.9755786249149081 -26.203054750907633 L0.23187542545949624 -26.431532979475715 L0.555224642614023 -25.578347173322854 L-0.6522294077603812 -25.34986894475477 L-0.7007317903335601 -25.477846815677687 z"/>
<path fill="#bababa" stroke="#bababa" d="M-0.7848451327433628 59.72608624420972 L-0.8818498978897208 59.470130502363865 L-0.7007317903335601 59.43585876807864 L-0.6522294077603812 59.56383663900158 L0.555224642614023 59.335358410433514 L0.23187542545949624 58.482172604280635 L-0.9755786249149081 58.71065083284869 L-0.927076242341729 58.83862870377163 L-1.1081943498978897 58.87290043805684 L-1.2051991150442476 58.61694469621098 L0.3644911504424779 58.31992299907249 L0.7848451327433628 59.42906454707123 z"/>
<path fill="#bababa" stroke="#bababa" d="M-22.740256977535733 -64.01335182098187 L-22.740256977535733 20.900353762774454 L-21.17056671204901 20.60333206563596 L-21.17056671204901 -64.31037351812036 z"/>
<path fill="#bababa" stroke="#bababa" d="M-22.656143635125932 -64.30357929711295 L-22.656143635125932 20.61012628664338 L-22.83726174268209 20.644398020928588 L-22.83726174268209 -64.26930756282773 z"/>
<path fill="#bababa" stroke="#bababa" d="M-21.723536419332877 -65.25726546091097 L-21.723536419332877 19.65644012284536 L-21.40018720217835 20.50962592899824 L-21.40018720217835 -64.40407965475809 z"/>
<path fill="#bababa" stroke="#bababa" d="M-22.93099046970728 -65.0287872323429 L-22.93099046970728 19.884918351413432 L-21.723536419332873 19.65644012284536 L-21.723536419332873 -65.25726546091097 z"/>
<path fill="#bababa" stroke="#bababa" d="M-23.16061095983662 -65.12249336898061 L-23.160610959836625 19.791212214775708 L-23.063606194690266 20.047167956621575 L-23.063606194690262 -64.86653762713475 z"/>
<path fill="#bababa" stroke="#bababa" d="M-22.837261742682095 -64.26930756282773 L-22.837261742682095 20.64439802092859 L-22.74025697753574 20.90035376277445 L-22.740256977535736 -64.01335182098187 z"/>
<path fill="#bababa" stroke="#bababa" d="M-21.590920694349894 -65.4195150661191 L-21.590920694349894 19.494190517637218 L-23.16061095983662 19.79121221477571 L-23.16061095983662 -65.12249336898061 z"/>
<path fill="#bababa" stroke="#bababa" d="M-21.170566712049013 -64.31037351812037 L-21.170566712049013 20.603332065635957 L-21.590920694349897 19.494190517637218 L-21.590920694349897 -65.41951506611912 z"/>
<path fill="#bababa" stroke="#bababa" d="M-21.400187202178348 -64.40407965475809 L-21.400187202178348 20.50962592899824 L-22.607641252552753 20.738104157566312 L-22.607641252552753 -64.17560142619001 z"/>
<path fill="#bababa" stroke="#bababa" d="M-23.063606194690262 -64.86653762713475 L-23.063606194690262 20.047167956621575 L-22.882488087134103 20.012896222336366 L-22.882488087134103 -64.90080936141996 z"/>
<path fill="#bababa" stroke="#bababa" d="M-22.882488087134103 -64.90080936141996 L-22.882488087134103 20.012896222336362 L-22.930990469707282 19.88491835141343 L-22.930990469707282 -65.02878723234289 z"/>
<path fill="#bababa" stroke="#bababa" d="M-22.607641252552757 -64.17560142619001 L-22.607641252552757 20.738104157566312 L-22.656143635125936 20.61012628664338 L-22.656143635125932 -64.30357929711295 z"/>
<path fill="#bababa" stroke="#bababa" d="M-22.837261742682095 -64.26930756282775 L-22.740256977535736 -64.0133518209819 L-21.170566712049013 -64.31037351812039 L-21.590920694349897 -65.41951506611913 L-23.16061095983662 -65.12249336898064 L-23.063606194690262 -64.86653762713476 L-22.882488087134103 -64.90080936141999 L-22.930990469707282 -65.0287872323429 L-21.723536419332877 -65.25726546091099 L-21.40018720217835 -64.4040796547581 L-22.607641252552757 -64.17560142619004 L-22.656143635125936 -64.30357929711296 z"/>
<path fill="#bababa" stroke="#bababa" d="M-22.740256977535736 20.900353762774447 L-22.837261742682095 20.64439802092858 L-22.656143635125936 20.61012628664338 L-22.607641252552757 20.738104157566305 L-21.40018720217835 20.509625928998233 L-21.723536419332877 19.65644012284536 L-22.930990469707282 19.884918351413432 L-22.882488087134103 20.01289622233636 L-23.063606194690262 20.047167956621575 L-23.16061095983662 19.791212214775708 L-21.590920694349897 19.494190517637218 L-21.170566712049013 20.603332065635957 z"/>
<path fill="#bababa" stroke="#bababa" d="M-22.31990299523485 -82.0097940293283 L-22.31990299523485 2.9039115544280203 L-20.750212729748124 2.6068898572895267 L-20.750212729748124 -82.3068157264668 z"/>
<path fill="#bababa" stroke="#bababa" d="M-22.235789652825048 -82.30002150545938 L-22.235789652825048 2.613684078296946 L-22.416907760381207 2.6479558125821567 L-22.416907760381207 -82.26574977117417 z"/>
<path fill="#bababa" stroke="#bababa" d="M-21.303182437031992 -83.25370766925741 L-21.303182437031996 1.6599979144989276 L-20.97983321987747 2.5131837206518064 L-20.97983321987747 -82.40052186310453 z"/>
<path fill="#bababa" stroke="#bababa" d="M-22.510636487406398 -83.02522944068933 L-22.510636487406398 1.8884761430669998 L-21.303182437031992 1.6599979144989279 L-21.303182437031992 -83.25370766925741 z"/>
<path fill="#bababa" stroke="#bababa" d="M-22.740256977535736 -83.11893557732706 L-22.74025697753574 1.7947700064292784 L-22.64325221238938 2.0507257482751418 L-22.643252212389378 -82.8629798354812 z"/>
<path fill="#bababa" stroke="#bababa" d="M-22.41690776038121 -82.26574977117417 L-22.41690776038121 2.6479558125821567 L-22.319902995234855 2.9039115544280203 L-22.31990299523485 -82.00979402932832 z"/>
<path fill="#bababa" stroke="#bababa" d="M-21.17056671204901 -83.41595727446554 L-21.17056671204901 1.4977483092907853 L-22.740256977535733 1.7947700064292782 L-22.740256977535733 -83.11893557732705 z"/>
<path fill="#bababa" stroke="#bababa" d="M-20.750212729748128 -82.30681572646681 L-20.750212729748128 2.606889857289527 L-21.170566712049013 1.497748309290785 L-21.17056671204901 -83.41595727446554 z"/>
<path fill="#bababa" stroke="#bababa" d="M-20.979833219877463 -82.40052186310453 L-20.979833219877463 2.513183720651806 L-22.18728727025187 2.741661949219878 L-22.18728727025187 -82.17204363453645 z"/>
<path fill="#bababa" stroke="#bababa" d="M-22.643252212389378 -82.86297983548118 L-22.643252212389378 2.050725748275142 L-22.46213410483322 2.0164540139899314 L-22.46213410483322 -82.8972515697664 z"/>
<path fill="#bababa" stroke="#bababa" d="M-22.46213410483322 -82.89725156976641 L-22.46213410483322 2.0164540139899314 L-22.510636487406398 1.8884761430669994 L-22.5106364874064 -83.02522944068934 z"/>
<path fill="#bababa" stroke="#bababa" d="M-22.18728727025187 -82.17204363453645 L-22.187287270251872 2.7416619492198775 L-22.23578965282505 2.613684078296946 L-22.23578965282505 -82.30002150545938 z"/>
<path fill="#bababa" stroke="#bababa" d="M-22.41690776038121 -82.26574977117419 L-22.31990299523485 -82.00979402932833 L-20.750212729748124 -82.30681572646682 L-21.170566712049013 -83.41595727446557 L-22.740256977535736 -83.11893557732708 L-22.643252212389378 -82.8629798354812 L-22.46213410483322 -82.89725156976642 L-22.510636487406398 -83.02522944068934 L-21.303182437031992 -83.25370766925742 L-20.979833219877467 -82.40052186310454 L-22.187287270251872 -82.17204363453648 L-22.235789652825048 -82.3000215054594 z"/>
<path fill="#bababa" stroke="#bababa" d="M-22.31990299523485 2.903911554428011 L-22.41690776038121 2.6479558125821456 L-22.235789652825048 2.6136840782969424 L-22.187287270251872 2.741661949219869 L-20.979833219877467 2.513183720651797 L-21.303182437031992 1.659997914498924 L-22.510636487406398 1.8884761430669963 L-22.46213410483322 2.0164540139899234 L-22.643252212389378 2.050725748275138 L-22.740256977535736 1.7947700064292729 L-21.170566712049013 1.4977483092907822 L-20.750212729748124 2.6068898572895205 z"/>
<path fill="#e2c66c" stroke="#e2c66c" d="M-2.6899251191286586 -17.425498624809208 L-3.414397549353301 -17.288411687668365 L-3.414397549353301 50.6425527793367 L-2.6899251191286586 50.505465842195854 z"/>
<path fill="#e2c66c" stroke="#e2c66c" d="M-15.10653505786249 -50.18783358107976 L-15.831007488087133 -50.05074664393892 L-3.414397549353301 -17.288411687668365 L-2.6899251191286586 -17.425498624809226 z"/>
<path fill="#e2c66c" stroke="#e2c66c" d="M-15.106535057862489 17.74313088592532 L-15.831007488087133 17.880217823066165 L-15.831007488087133 -50.05074664393889 L-15.106535057862489 -50.18783358107974 z"/>
<path fill="#e2c66c" stroke="#e2c66c" d="M-2.6899251191286586 50.50546584219584 L-3.414397549353301 50.6425527793367 L-15.831007488087133 17.880217823066157 L-15.10653505786249 17.74313088592532 z"/>
<path fill="#e2c66c" stroke="#e2c66c" d="M-2.689925119128663 -17.425498624809208 L-2.689925119128659 50.50546584219586 L-15.106535057862494 17.743130885925325 L-15.106535057862494 -50.187833581079744 z"/>
<path fill="#e2c66c" stroke="#e2c66c" d="M-3.4143975493533016 -17.288411687668365 L-15.831007488087131 -50.05074664393889 L-15.831007488087135 17.880217823066168 L-3.4143975493533043 50.6425527793367 z"/>
</svg>