<?xml version="1.0" encoding="UTF-8"?>
<!-- Generated by jsxcad -->
<!DOCTYPE svg PUBLIC "-//W3C//DTD SVG 1.1 Tiny//EN" "http://www.w3.org/Graphics/SVG/1.1/DTD/svg11-tiny.dtd">
<svg baseProfile="tiny" height="160.12478463542664mm" width="23.94545609257999mm" viewBox="-23.160610959836628 -78.83167000055494 23.94545609257999 160.12478463542664" version="1.1" stroke="black" stroke-width=".1" fill="none" xmlns="http://www.w3.org/2000/svg">
<path fill="#bababa" stroke="#bababa" d="M-20.801535087719298 58.229176737987466 L-20.801535087719298 58.47307031949835 L-20.712115384615384 58.47307031949835 L-20.712115384615384 58.20771498954911 L-20.801535087719298 58.20771498954911 z"/>
<path fill="#bababa" stroke="#bababa" d="M-20.801535087719298 59.09223275604657 L-20.801535087719298 59.35758808599581 L-20.712115384615384 59.35758808599581 L-20.712115384615384 59.09223275604657 z"/>
<path fill="#bababa" stroke="#bababa" d="M-20.801535087719298 59.357588085995815 L-22.281108511922728 59.058227284599674 L-12.371057198913372 34.603461334129214 L-10.808840175067914 34.91954334301285 L-20.712115384615384 59.357588085995815 z"/>
<path fill="#bababa" stroke="#bababa" d="M-20.712115384615384 59.09223275604657 L-10.808840175067914 34.65418801306361 L-10.98909598551162 34.61771701203857 L-20.899147298520976 59.07248296250904 L-20.801535087719298 59.09223275604657 z"/>
<path fill="#bababa" stroke="#bababa" d="M-22.100852701479017 58.077502854152634 L-22.10085270147902 58.962020620650094 L-12.190801388469662 34.50725467017964 L-12.19080138846966 33.622736903682174 z"/>
<path fill="#bababa" stroke="#bababa" d="M-20.899147298520976 58.32064286098618 L-22.10085270147902 58.07750285415264 L-12.190801388469664 33.62273690368218 L-10.98909598551162 33.86587691051574 z"/>
<path fill="#bababa" stroke="#bababa" d="M-20.712115384615377 59.114824409000214 L-20.712115384615377 59.35758808599581 L-10.808840175067909 34.919543343012855 L-10.80884017506791 34.65418801306362 L-20.712115384615384 59.09223275604658 z"/>
<path fill="#bababa" stroke="#bababa" d="M-20.71211538461538 58.230306642502754 L-20.71211538461538 58.47307031949835 L-10.80884017506791 34.035025576515395 L-10.808840175067909 33.76967024656616 L-20.712115384615377 58.2077149895491 z"/>
<path fill="#bababa" stroke="#bababa" d="M-12.371057198913372 33.453588237682524 L-22.281108511922728 57.90835418815298 L-20.801535087719298 58.20771498954911 L-20.712115384615384 58.20771498954911 L-10.808840175067914 33.76967024656615 z"/>
<path fill="#bababa" stroke="#bababa" d="M-22.28110851192272 59.05822728459968 L-22.281108511922724 57.908354188152984 L-12.371057198913368 33.453588237682524 L-12.37105719891337 34.60346133412922 z"/>
<path fill="#bababa" stroke="#bababa" d="M-22.10085270147902 58.96202062065008 L-20.899147298520976 59.20516062748366 L-10.98909598551162 34.7503946770132 L-12.190801388469664 34.507254670179634 z"/>
<path fill="#bababa" stroke="#bababa" d="M-20.801535087719298 58.47307031949833 L-20.899147298520976 58.45332052596082 L-10.98909598551162 33.99855457549036 L-10.808840175067914 34.03502557651539 L-20.712115384615384 58.47307031949833 z"/>
<path fill="#bababa" stroke="#bababa" d="M-20.899147298520973 58.45332052596081 L-20.899147298520973 58.3206428609862 L-10.989095985511616 33.86587691051574 L-10.989095985511616 33.99855457549036 z"/>
<path fill="#bababa" stroke="#bababa" d="M-20.899147298520973 59.20516062748366 L-20.899147298520973 59.07248296250904 L-10.989095985511616 34.61771701203858 L-10.989095985511616 34.750394677013205 z"/>
<path fill="#bababa" stroke="#bababa" d="M-10.808840175067914 34.65418801306362 L-10.808840175067914 34.919543343012855 L-12.37105719891337 34.60346133412922 L-12.37105719891337 33.453588237682524 L-10.808840175067914 33.76967024656616 L-10.808840175067914 34.035025576515395 L-10.989095985511618 33.99855457549036 L-10.989095985511618 33.865876910515745 L-12.190801388469662 33.62273690368218 L-12.190801388469662 34.50725467017964 L-10.989095985511618 34.750394677013205 L-10.989095985511618 34.61771701203858 z"/>
<path fill="#bababa" stroke="#bababa" d="M-20.801535087719294 58.26854498331526 L-20.801535087719294 58.20771498954912 L-22.281108511922724 57.908354188152984 L-22.281108511922724 59.05822728459968 L-20.801535087719294 59.357588085995815 L-20.801535087719294 59.09223275604658 L-20.899147298520976 59.07248296250904 L-20.899147298520976 59.205160627483664 L-22.10085270147902 58.9620206206501 L-22.10085270147902 58.077502854152634 L-20.899147298520976 58.3206428609862 L-20.899147298520976 58.45332052596082 L-20.801535087719294 58.47307031949835 z"/>
<path fill="#bababa" stroke="#bababa" d="M-22.5 59.357588085995815 L-1.5 59.357588085995815 L-1.5 60.505811436249616 L-22.5 60.505811436249616 z"/>
<path fill="#bababa" stroke="#bababa" d="M-22.5 59.224720065691244 L-1.5 59.224720065691244 L-1.5 59.09223275604657 L-22.5 59.09223275604657 z"/>
<path fill="#bababa" stroke="#bababa" d="M-22.5 59.35612869513287 L-1.5 59.35612869513287 L-1.5 60.240646461630334 L-22.5 60.240646461630334 z"/>
<path fill="#bababa" stroke="#bababa" d="M-22.5 58.4728799641684 L-1.5 58.4728799641684 L-1.5 59.35612869513287 L-22.5 59.35612869513287 z"/>
<path fill="#bababa" stroke="#bababa" d="M-22.5 58.20771498954911 L-1.5 58.20771498954911 L-1.5 58.47307031949835 L-22.5 58.47307031949835 z"/>
<path fill="#bababa" stroke="#bababa" d="M-22.5 59.09223275604657 L-1.5 59.09223275604657 L-1.5 59.35758808599581 L-22.5 59.35758808599581 z"/>
<path fill="#bababa" stroke="#bababa" d="M-22.5 59.35593833980291 L-1.5 59.35593833980291 L-1.5 58.2077149895491 L-22.5 58.2077149895491 z"/>
<path fill="#bababa" stroke="#bababa" d="M-22.5 60.505811436249616 L-1.5 60.505811436249616 L-1.5 59.355938339802925 L-22.5 59.355938339802925 z"/>
<path fill="#bababa" stroke="#bababa" d="M-22.5 60.24064646163033 L-1.5 60.24064646163033 L-1.5 59.357397730665866 L-22.5 59.357397730665866 z"/>
<path fill="#bababa" stroke="#bababa" d="M-22.5 58.47307031949833 L-1.5 58.47307031949833 L-1.5 58.605557629143014 L-22.5 58.605557629143014 z"/>
<path fill="#bababa" stroke="#bababa" d="M-22.5 58.605557629143014 L-1.5 58.605557629143014 L-1.5 58.4728799641684 L-22.5 58.4728799641684 z"/>
<path fill="#bababa" stroke="#bababa" d="M-22.5 59.35739773066586 L-1.5 59.35739773066586 L-1.5 59.22472006569124 L-22.5 59.22472006569124 z"/>
<path fill="#bababa" stroke="#bababa" d="M-22.5 59.09223275604658 L-22.5 59.357588085995815 L-22.5 60.50581143624962 L-22.5 59.355938339802925 L-22.5 58.20771498954912 L-22.5 58.473070319498355 L-22.5 58.60555762914302 L-22.5 58.472879964168406 L-22.5 59.356128695132874 L-22.5 60.240646461630334 L-22.5 59.357397730665866 L-22.5 59.224720065691244 z"/>
<path fill="#bababa" stroke="#bababa" d="M-1.5 59.357588085995815 L-1.5 59.09223275604658 L-1.5 59.224720065691244 L-1.5 59.357397730665866 L-1.5 60.240646461630334 L-1.5 59.356128695132874 L-1.5 58.472879964168406 L-1.5 58.60555762914302 L-1.5 58.473070319498355 L-1.5 58.20771498954912 L-1.5 59.355938339802925 L-1.5 60.50581143624962 z"/>
<path fill="#bababa" stroke="#bababa" d="M-20.701535087719297 -5.456102449829784 L-20.701535087719297 -5.212208868318901 L-20.612115384615382 -5.212208868318901 L-20.612115384615382 -5.477564198268139 L-20.701535087719297 -5.477564198268139 z"/>
<path fill="#bababa" stroke="#bababa" d="M-20.701535087719297 -4.593046431770677 L-20.701535087719297 -4.327691101821438 L-20.612115384615382 -4.327691101821438 L-20.612115384615382 -4.593046431770677 z"/>
<path fill="#bababa" stroke="#bababa" d="M-20.701535087719297 -4.327691101821444 L-22.181108511922726 -4.627051903217583 L-12.27105719891337 -29.08181785368804 L-10.708840175067913 -28.76573584480443 L-20.612115384615382 -4.327691101821444 z"/>
<path fill="#bababa" stroke="#bababa" d="M-20.612115384615382 -4.593046431770703 L-10.708840175067913 -29.03109117475364 L-10.88909598551162 -29.0675621757787 L-20.799147298520975 -4.612796225308217 L-20.701535087719297 -4.593046431770703 z"/>
<path fill="#bababa" stroke="#bababa" d="M-22.000852701479012 -5.607776333664615 L-22.00085270147902 -4.723258567167154 L-12.090801388469663 -29.17802451763761 L-12.090801388469664 -30.06254228413507 z"/>
<path fill="#bababa" stroke="#bababa" d="M-20.799147298520975 -5.364636326831071 L-22.00085270147902 -5.607776333664619 L-12.090801388469664 -30.06254228413509 L-10.88909598551162 -29.819402277301517 z"/>
<path fill="#bababa" stroke="#bababa" d="M-20.61211538461538 -4.570454778817031 L-20.612115384615382 -4.327691101821438 L-10.70884017506791 -28.765735844804393 L-10.708840175067913 -29.03109117475363 L-20.61211538461538 -4.593046431770677 z"/>
<path fill="#bababa" stroke="#bababa" d="M-20.612115384615382 -5.454972545314494 L-20.61211538461538 -5.2122088683189 L-10.708840175067913 -29.650253611301853 L-10.70884017506791 -29.91560894125109 L-20.612115384615382 -5.477564198268139 z"/>
<path fill="#bababa" stroke="#bababa" d="M-12.27105719891337 -30.23169095013473 L-22.181108511922726 -5.776924999664278 L-20.701535087719297 -5.477564198268145 L-20.612115384615382 -5.477564198268145 L-10.708840175067913 -29.9156089412511 z"/>
<path fill="#bababa" stroke="#bababa" d="M-22.181108511922726 -4.627051903217569 L-22.181108511922723 -5.77692499966427 L-12.271057198913367 -30.231690950134727 L-12.271057198913368 -29.081817853688023 z"/>
<path fill="#bababa" stroke="#bababa" d="M-22.00085270147902 -4.723258567167173 L-20.799147298520975 -4.480118560333597 L-10.88909598551162 -28.93488451080407 L-12.090801388469664 -29.178024517637617 z"/>
<path fill="#bababa" stroke="#bababa" d="M-20.701535087719297 -5.212208868318926 L-20.799147298520975 -5.231958661856445 L-10.88909598551162 -29.686724612326913 L-10.708840175067913 -29.650253611301864 L-20.612115384615382 -5.212208868318926 z"/>
<path fill="#bababa" stroke="#bababa" d="M-20.799147298520975 -5.231958661856433 L-20.799147298520975 -5.364636326831053 L-10.889095985511618 -29.819402277301506 L-10.889095985511618 -29.686724612326888 z"/>
<path fill="#bababa" stroke="#bababa" d="M-20.799147298520975 -4.480118560333591 L-20.799147298520975 -4.61279622530821 L-10.889095985511618 -29.067562175778665 L-10.889095985511618 -28.934884510804046 z"/>
<path fill="#bababa" stroke="#bababa" d="M-10.708840175067913 -29.03109117475363 L-10.708840175067913 -28.765735844804393 L-12.271057198913368 -29.081817853688026 L-12.271057198913368 -30.231690950134723 L-10.708840175067913 -29.91560894125109 L-10.708840175067913 -29.650253611301853 L-10.88909598551162 -29.686724612326888 L-10.88909598551162 -29.819402277301506 L-12.090801388469664 -30.06254228413507 L-12.090801388469664 -29.17802451763761 L-10.88909598551162 -28.934884510804046 L-10.88909598551162 -29.067562175778665 z"/>
<path fill="#bababa" stroke="#bababa" d="M-20.701535087719293 -5.4167342045019975 L-20.701535087719293 -5.477564198268139 L-22.181108511922726 -5.77692499966427 L-22.181108511922726 -4.627051903217569 L-20.701535087719293 -4.327691101821438 L-20.701535087719293 -4.593046431770677 L-20.799147298520975 -4.61279622530821 L-20.799147298520975 -4.480118560333591 L-22.00085270147902 -4.723258567167154 L-22.00085270147902 -5.607776333664616 L-20.799147298520975 -5.364636326831053 L-20.799147298520975 -5.231958661856433 L-20.701535087719293 -5.2122088683189 z"/>
<path fill="#bababa" stroke="#bababa" d="M-22.4 -4.327691101821475 L-1.4 -4.327691101821475 L-1.4 -3.1794677515676724 L-22.4 -3.1794677515676724 z"/>
<path fill="#bababa" stroke="#bababa" d="M-22.4 -4.460559122126024 L-1.4 -4.460559122126024 L-1.4 -4.593046431770704 L-22.4 -4.593046431770704 z"/>
<path fill="#bababa" stroke="#bababa" d="M-22.4 -4.3291504926843825 L-1.4 -4.3291504926843825 L-1.4 -3.4446327261869207 L-22.4 -3.4446327261869207 z"/>
<path fill="#bababa" stroke="#bababa" d="M-22.4 -5.2123992236488546 L-1.4 -5.2123992236488546 L-1.4 -4.329150492684391 L-22.4 -4.329150492684391 z"/>
<path fill="#bababa" stroke="#bababa" d="M-22.4 -5.477564198268139 L-1.4 -5.477564198268139 L-1.4 -5.212208868318901 L-22.4 -5.212208868318901 z"/>
<path fill="#bababa" stroke="#bababa" d="M-22.4 -4.593046431770677 L-1.4 -4.593046431770677 L-1.4 -4.327691101821439 L-22.4 -4.327691101821439 z"/>
<path fill="#bababa" stroke="#bababa" d="M-22.4 -4.329340848014357 L-1.4 -4.329340848014357 L-1.4 -5.47756419826816 L-22.4 -5.47756419826816 z"/>
<path fill="#bababa" stroke="#bababa" d="M-22.4 -3.1794677515676315 L-1.4 -3.1794677515676315 L-1.4 -4.329340848014332 L-22.4 -4.329340848014332 z"/>
<path fill="#bababa" stroke="#bababa" d="M-22.4 -3.4446327261869416 L-1.4 -3.4446327261869416 L-1.4 -4.327881457151405 L-22.4 -4.327881457151405 z"/>
<path fill="#bababa" stroke="#bababa" d="M-22.4 -5.212208868318935 L-1.4 -5.212208868318935 L-1.4 -5.0797215586742555 L-22.4 -5.0797215586742555 z"/>
<path fill="#bababa" stroke="#bababa" d="M-22.4 -5.079721558674231 L-1.4 -5.079721558674231 L-1.4 -5.212399223648849 L-22.4 -5.212399223648849 z"/>
<path fill="#bababa" stroke="#bababa" d="M-22.4 -4.3278814571513875 L-1.4 -4.3278814571513875 L-1.4 -4.460559122126007 L-22.4 -4.460559122126007 z"/>
<path fill="#bababa" stroke="#bababa" d="M-22.4 -4.593046431770677 L-22.4 -4.327691101821439 L-22.4 -3.179467751567632 L-22.4 -4.329340848014332 L-22.4 -5.477564198268139 L-22.4 -5.212208868318901 L-22.4 -5.079721558674231 L-22.4 -5.21239922364885 L-22.4 -4.329150492684383 L-22.4 -3.444632726186921 L-22.4 -4.327881457151388 L-22.4 -4.460559122126007 z"/>
<path fill="#bababa" stroke="#bababa" d="M-1.4 -4.327691101821439 L-1.4 -4.593046431770677 L-1.4 -4.460559122126007 L-1.4 -4.327881457151388 L-1.4 -3.444632726186921 L-1.4 -4.329150492684383 L-1.4 -5.21239922364885 L-1.4 -5.079721558674231 L-1.4 -5.212208868318901 L-1.4 -5.477564198268139 L-1.4 -4.329340848014332 L-1.4 -3.179467751567632 z"/>
<path fill="#bababa" stroke="#bababa" d="M-3.414397549353306 -15.740505596297806 L-3.4143975493533065 -14.590632499851106 L-15.831007488087135 -47.35296745612164 L-15.831007488087133 -48.50284055256834 z"/>
<path fill="#bababa" stroke="#bababa" d="M-3.354024846834581 -14.60205641127951 L-3.414397549353301 -14.590632499851106 L-3.414397549353301 -15.740505596297808 L-3.354024846834581 -15.751929507726212 z"/>
<path fill="#bababa" stroke="#bababa" d="M-3.354024846834581 -15.751929507726226 L-3.414397549353301 -15.740505596297842 L-15.831007488087133 -48.50284055256835 L-15.770634785568413 -48.51426446399676 L-20.750212729748124 -61.65332587875109 L-22.31990299523485 -61.356304181612586 L-1.6255530973451326 -6.752412587828373 L-0.055862831858407076 -7.0494342849668525 z"/>
<path fill="#bababa" stroke="#bababa" d="M-1.444434989788972 -6.521328992164351 L-1.6255530973451326 -6.487057257879133 L-22.31990299523485 -61.09094885166335 L-22.138784887678693 -61.12522058594857 z"/>
<path fill="#bababa" stroke="#bababa" d="M-0.23698093941457107 -5.997967119209558 L-0.23698093941457557 -6.8824848857070196 L-20.93133083730429 -61.48637647949125 L-20.931330837304287 -60.60185871299378 z"/>
<path fill="#bababa" stroke="#bababa" d="M-1.444434989788972 -5.769488890641517 L-0.23698093941456772 -5.997967119209578 L-20.931330837304287 -60.601858712993796 L-22.138784887678693 -60.37338048442574 z"/>
<path fill="#bababa" stroke="#bababa" d="M-1.6255530973451335 -5.6025394913816555 L-1.6255530973451349 -5.867894821330895 L-22.31990299523485 -60.47178641511511 L-22.31990299523485 -60.206431085165875 z"/>
<path fill="#bababa" stroke="#bababa" d="M-1.6255530973451349 -6.487057257879118 L-1.6255530973451364 -6.752412587828356 L-22.319902995234855 -61.35630418161258 L-22.31990299523485 -61.09094885166334 z"/>
<path fill="#bababa" stroke="#bababa" d="M-15.770634785568411 -48.514264463996746 L-15.831007488087131 -48.50284055256834 L-15.831007488087131 -47.35296745612164 L-15.770634785568411 -47.36439136755004 z"/>
<path fill="#bababa" stroke="#bababa" d="M-3.354024846834581 -14.602056411279523 L-0.055862831858407076 -5.899561188520174 L-1.6255530973451326 -5.6025394913816795 L-22.31990299523485 -60.2064310851659 L-20.750212729748124 -60.5034527823044 L-15.770634785568413 -47.364391367550056 L-15.831007488087133 -47.35296745612165 L-3.414397549353301 -14.590632499851118 z"/>
<path fill="#bababa" stroke="#bababa" d="M-3.354024846834586 -14.60205641127951 L-3.354024846834582 -15.751929507726208 L-0.05586283185840962 -7.049434284966849 L-0.05586283185840716 -5.899561188520149 z"/>
<path fill="#bababa" stroke="#bababa" d="M-15.770634785568415 -47.36439136755004 L-20.750212729748128 -60.50345278230438 L-20.750212729748124 -61.65332587875107 L-15.770634785568413 -48.514264463996746 z"/>
<path fill="#bababa" stroke="#bababa" d="M-0.23698093941456772 -6.882484885707027 L-1.444434989788972 -6.654006657138965 L-22.138784887678693 -61.25789825092318 L-20.931330837304287 -61.48637647949128 z"/>
<path fill="#bababa" stroke="#bababa" d="M-1.6255530973451326 -5.867894821330913 L-1.444434989788972 -5.902166555616131 L-22.138784887678693 -60.506058149400346 L-22.31990299523485 -60.47178641511513 z"/>
<path fill="#bababa" stroke="#bababa" d="M-1.4444349897889732 -5.9021665556161045 L-1.4444349897889752 -5.769488890641486 L-22.138784887678693 -60.37338048442572 L-22.13878488767869 -60.506058149400324 z"/>
<path fill="#bababa" stroke="#bababa" d="M-1.4444349897889766 -6.6540066571389485 L-1.4444349897889734 -6.521328992164329 L-22.138784887678693 -61.125220585948554 L-22.138784887678693 -61.25789825092316 z"/>
<path fill="#bababa" stroke="#bababa" d="M-22.319902995234848 -61.09094885166334 L-22.319902995234848 -61.35630418161258 L-20.750212729748124 -61.653325878751076 L-20.750212729748124 -60.50345278230437 L-22.319902995234848 -60.20643108516588 L-22.319902995234848 -60.47178641511511 L-22.13878488767869 -60.506058149400324 L-22.13878488767869 -60.37338048442571 L-20.931330837304284 -60.60185871299378 L-20.931330837304284 -61.48637647949125 L-22.13878488767869 -61.257898250923176 L-22.13878488767869 -61.12522058594855 z"/>
<path fill="#bababa" stroke="#bababa" d="M-1.6255530973451326 -6.752412587828356 L-1.6255530973451326 -6.487057257879117 L-1.444434989788972 -6.521328992164328 L-1.444434989788972 -6.654006657138947 L-0.2369809394145677 -6.882484885707019 L-0.2369809394145677 -5.997967119209558 L-1.444434989788972 -5.769488890641486 L-1.444434989788972 -5.902166555616105 L-1.6255530973451326 -5.867894821330895 L-1.6255530973451326 -5.6025394913816555 L-0.055862831858407076 -5.899561188520149 L-0.055862831858407076 -7.04943428496685 z"/>
<path fill="#bababa" stroke="#bababa" d="M-3.907505105513958 46.6436652371363 L-3.414397549353305 47.94477359151944 L-3.414397549353302 49.09464668796615 L-15.831007488087135 16.33231173169561 L-15.831007488087135 15.182438635248909 z"/>
<path fill="#bababa" stroke="#bababa" d="M-3.4143975493533008 49.09464668796614 L-3.4143975493533008 47.94477359151944 L-3.354024846834581 47.93334968009104 L-3.354024846834581 49.08322277653774 z"/>
<path fill="#bababa" stroke="#bababa" d="M-3.3856261833092236 47.93932938372934 L-3.414397549353301 47.944773591519436 L-15.831007488087133 15.182438635248902 L-15.770634785568413 15.171014723820498 L-20.750212729748124 2.031953309066168 L-22.31990299523485 2.3289750062046677 L-1.6255530973451326 56.932866599988884 L-0.055862831858407076 56.6358449028504 L-3.354024846834581 47.933349680091034 z"/>
<path fill="#bababa" stroke="#bababa" d="M-1.444434989788972 57.163950195652916 L-1.6255530973451326 57.198221929938136 L-22.31990299523485 2.5943303361539067 L-22.138784887678693 2.5600586018686977 z"/>
<path fill="#bababa" stroke="#bababa" d="M-0.2369809394145691 57.687312068607696 L-0.23698093941456974 56.802794302110236 L-20.931330837304287 2.198902708326007 L-20.931330837304287 3.083420474823469 z"/>
<path fill="#bababa" stroke="#bababa" d="M-1.444434989788972 57.915790297175754 L-0.23698093941456772 57.687312068607696 L-20.931330837304287 3.0834204748234613 L-22.138784887678693 3.311898703391538 z"/>
<path fill="#bababa" stroke="#bababa" d="M-1.6255530973451355 58.08273969643559 L-1.625553097345136 57.81738436648636 L-22.319902995234855 3.213492772702132 L-22.31990299523485 3.4788481026513707 z"/>
<path fill="#bababa" stroke="#bababa" d="M-1.625553097345137 57.19822192993813 L-1.6255530973451378 56.93286659998889 L-22.31990299523485 2.3289750062046704 L-22.319902995234855 2.594330336153909 z"/>
<path fill="#bababa" stroke="#bababa" d="M-15.831007488087133 15.182438635248909 L-15.831007488087133 16.332311731695608 L-15.77063478556841 16.320887820267206 L-15.77063478556841 15.171014723820505 z"/>
<path fill="#bababa" stroke="#bababa" d="M-3.414397549353301 49.094646687966126 L-3.354024846834581 49.083222776537724 L-0.055862831858407076 57.7857179992971 L-1.6255530973451326 58.082739696435596 L-22.31990299523485 3.4788481026513662 L-20.750212729748124 3.1818264055128713 L-15.770634785568413 16.320887820267203 L-15.831007488087133 16.332311731695608 z"/>
<path fill="#bababa" stroke="#bababa" d="M-3.354024846834583 49.08322277653774 L-3.3540248468345815 47.93334968009104 L-0.05586283185840931 56.6358449028504 L-0.05586283185840969 57.785717999297106 z"/>
<path fill="#bababa" stroke="#bababa" d="M-15.770634785568415 16.320887820267203 L-20.750212729748128 3.1818264055128775 L-20.750212729748128 2.031953309066177 L-15.770634785568413 15.171014723820505 z"/>
<path fill="#bababa" stroke="#bababa" d="M-0.23698093941456772 56.80279430211023 L-1.444434989788972 57.031272530678294 L-22.138784887678693 2.427380936894074 L-20.931330837304287 2.1989027083259973 z"/>
<path fill="#bababa" stroke="#bababa" d="M-1.6255530973451326 57.81738436648635 L-1.444434989788972 57.78311263220113 L-22.138784887678693 3.1792210384169177 L-22.31990299523485 3.2134927727021267 z"/>
<path fill="#bababa" stroke="#bababa" d="M-1.4444349897889746 57.783112632201146 L-1.4444349897889757 57.91579029717577 L-22.138784887678693 3.3118987033915404 L-22.138784887678693 3.1792210384169213 z"/>
<path fill="#bababa" stroke="#bababa" d="M-1.4444349897889772 57.0312725306783 L-1.4444349897889757 57.163950195652916 L-22.138784887678693 2.5600586018686977 L-22.138784887678693 2.4273809368940786 z"/>
<path fill="#bababa" stroke="#bababa" d="M-22.319902995234848 2.5943303361539085 L-22.319902995234848 2.32897500620467 L-20.750212729748124 2.031953309066177 L-20.750212729748124 3.1818264055128775 L-22.319902995234848 3.4788481026513702 L-22.319902995234848 3.2134927727021316 L-22.13878488767869 3.1792210384169213 L-22.13878488767869 3.311898703391541 L-20.931330837304284 3.083420474823469 L-20.931330837304284 2.198902708326007 L-22.13878488767869 2.4273809368940786 L-22.13878488767869 2.5600586018686977 z"/>
<path fill="#bababa" stroke="#bababa" d="M-1.6255530973451326 56.93286659998889 L-1.6255530973451326 57.198221929938136 L-1.444434989788972 57.16395019565292 L-1.444434989788972 57.031272530678294 L-0.2369809394145677 56.80279430211022 L-0.2369809394145677 57.687312068607696 L-1.444434989788972 57.91579029717577 L-1.444434989788972 57.783112632201146 L-1.6255530973451326 57.81738436648636 L-1.6255530973451326 58.08273969643559 L-0.055862831858407076 57.7857179992971 L-0.055862831858407076 56.6358449028504 z"/>
<path fill="#bababa" stroke="#bababa" d="M-1.2051991150442476 -24.17391824795144 L-1.2051991150442476 60.73978733580489 L0.3644911504424778 60.4427656386664 L0.3644911504424778 -24.470939945089935 z"/>
<path fill="#bababa" stroke="#bababa" d="M-1.121085772634445 -24.464145724082513 L-1.121085772634445 60.44955985967382 L-1.3022038801906055 60.48383159395903 L-1.3022038801906055 -24.4298739897973 z"/>
<path fill="#bababa" stroke="#bababa" d="M-0.18847855684139167 -25.417831887880535 L-0.1884785568413892 59.49587369587581 L0.13487066031313552 60.34905950202868 L0.13487066031313782 -24.564646081727652 z"/>
<path fill="#bababa" stroke="#bababa" d="M-1.395932607215793 -25.18935365931246 L-1.395932607215793 59.724351924443866 L-0.18847855684138867 59.495873695875794 L-0.18847855684138867 -25.41783188788053 z"/>
<path fill="#bababa" stroke="#bababa" d="M-1.6255530973451344 -25.283059795950184 L-1.6255530973451338 59.63064578780615 L-1.5285483321987787 59.88660152965202 L-1.5285483321987792 -25.027104054104317 z"/>
<path fill="#bababa" stroke="#bababa" d="M-1.3022038801906075 -24.4298739897973 L-1.302203880190607 60.48383159395903 L-1.2051991150442483 60.7397873358049 L-1.2051991150442531 -24.17391824795144 z"/>
<path fill="#bababa" stroke="#bababa" d="M-0.05586283185840707 -25.580081493088674 L-0.05586283185840707 59.33362409066766 L-1.6255530973451326 59.63064578780616 L-1.6255530973451326 -25.28305979595018 z"/>
<path fill="#bababa" stroke="#bababa" d="M0.3644911504424741 -24.47093994508993 L0.36449115044247343 60.4427656386664 L-0.0558628318584095 59.33362409066766 L-0.055862831858413516 -25.580081493088674 z"/>
<path fill="#bababa" stroke="#bababa" d="M0.13487066031313816 -24.564646081727656 L0.13487066031313816 60.34905950202867 L-1.072583390061266 60.577537730596745 L-1.072583390061266 -24.336167853159584 z"/>
<path fill="#bababa" stroke="#bababa" d="M-1.5285483321987745 -25.027104054104317 L-1.5285483321987745 59.88660152965202 L-1.3474302246426137 59.852329795366806 L-1.3474302246426137 -25.061375788389526 z"/>
<path fill="#bababa" stroke="#bababa" d="M-1.3474302246426153 -25.06137578838953 L-1.3474302246426186 59.852329795366806 L-1.395932607215796 59.72435192444387 L-1.3959326072157996 -25.18935365931246 z"/>
<path fill="#bababa" stroke="#bababa" d="M-1.0725833900612662 -24.33616785315958 L-1.0725833900612693 60.57753773059675 L-1.121085772634447 60.44955985967382 L-1.121085772634451 -24.464145724082513 z"/>
<path fill="#bababa" stroke="#bababa" d="M-1.3022038801906057 -24.429873989797333 L-1.2051991150442476 -24.173918247951455 L0.3644911504424779 -24.470939945089945 L-0.055862831858407076 -25.580081493088684 L-1.6255530973451326 -25.283059795950194 L-1.5285483321987745 -25.027104054104363 L-1.347430224642614 -25.061375788389565 L-1.395932607215793 -25.18935365931248 L-0.18847855684138867 -25.417831887880563 L0.13487066031313819 -24.56464608172766 L-1.072583390061266 -24.33616785315962 L-1.1210857726344452 -24.464145724082535 z"/>
<path fill="#bababa" stroke="#bababa" d="M-1.2051991150442476 60.7397873358049 L-1.3022038801906057 60.48383159395902 L-1.1210857726344452 60.44955985967381 L-1.072583390061266 60.57753773059675 L0.13487066031313819 60.349059502028666 L-0.18847855684138867 59.49587369587579 L-1.395932607215793 59.724351924443866 L-1.347430224642614 59.852329795366806 L-1.5285483321987745 59.88660152965201 L-1.6255530973451326 59.63064578780616 L-0.055862831858407076 59.33362409066764 L0.3644911504424779 60.4427656386664 z"/>
<path fill="#bababa" stroke="#bababa" d="M-0.7848451327433628 8.070248680757958 L-0.7848451327433628 78.83167000055491 L0.7848451327433628 78.53464830341642 L0.7848451327433628 7.773226983619465 z"/>
<path fill="#bababa" stroke="#bababa" d="M-0.7007317903335601 7.780021204626885 L-0.7007317903335601 78.54144252442383 L-0.8818498978897208 78.57571425870903 L-0.8818498978897208 7.814292938912096 z"/>
<path fill="#bababa" stroke="#bababa" d="M0.23187542545949438 6.826335040828866 L0.23187542545949377 77.58775636062582 L0.5552246426140192 78.44094216677868 L0.5552246426140208 7.6795208469817435 z"/>
<path fill="#bababa" stroke="#bababa" d="M-0.9755786249149079 7.054813269396937 L-0.9755786249149079 77.81623458919388 L0.23187542545949624 77.58775636062582 L0.23187542545949624 6.826335040828865 z"/>
<path fill="#bababa" stroke="#bababa" d="M-1.2051991150442505 6.961107132759217 L-1.205199115044251 77.72252845255616 L-1.1081943498978921 77.97848419440203 L-1.1081943498978957 7.21706287460508 z"/>
<path fill="#bababa" stroke="#bababa" d="M-0.8818498978897219 7.814292938912096 L-0.8818498978897245 78.57571425870904 L-0.7848451327433656 78.83167000055491 L-0.7848451327433671 8.070248680757958 z"/>
<path fill="#bababa" stroke="#bababa" d="M0.3644911504424779 6.6640854356207235 L0.3644911504424779 77.42550675541766 L-1.2051991150442476 77.72252845255615 L-1.2051991150442476 6.961107132759217 z"/>
<path fill="#bababa" stroke="#bababa" d="M0.7848451327433615 7.773226983619466 L0.7848451327433614 78.5346483034164 L0.3644911504424761 77.42550675541766 L0.3644911504424767 6.664085435620723 z"/>
<path fill="#bababa" stroke="#bababa" d="M0.555224642614023 7.679520846981744 L0.555224642614023 78.44094216677868 L-0.6522294077603811 78.66942039534676 L-0.6522294077603811 7.907999075549816 z"/>
<path fill="#bababa" stroke="#bababa" d="M-1.1081943498978895 7.21706287460508 L-1.1081943498978895 77.97848419440203 L-0.9270762423417289 77.94421246011682 L-0.9270762423417289 7.182791140319869 z"/>
<path fill="#bababa" stroke="#bababa" d="M-0.9270762423417317 7.182791140319869 L-0.9270762423417307 77.94421246011682 L-0.9755786249149124 77.81623458919388 L-0.9755786249149091 7.054813269396938 z"/>
<path fill="#bababa" stroke="#bababa" d="M-0.6522294077603865 7.907999075549816 L-0.652229407760383 78.66942039534676 L-0.700731790333563 78.54144252442383 L-0.700731790333564 7.780021204626885 z"/>
<path fill="#bababa" stroke="#bababa" d="M-0.8818498978897208 7.814292938912081 L-0.7848451327433628 8.070248680757958 L0.7848451327433628 7.773226983619446 L0.3644911504424779 6.664085435620707 L-1.2051991150442476 6.961107132759198 L-1.1081943498978897 7.217062874605074 L-0.927076242341729 7.182791140319848 L-0.9755786249149081 7.0548132693969325 L0.23187542545949624 6.826335040828849 L0.555224642614023 7.679520846981733 L-0.6522294077603812 7.907999075549816 L-0.7007317903335601 7.780021204626879 z"/>
<path fill="#bababa" stroke="#bababa" d="M-0.7848451327433628 78.8316700005549 L-0.8818498978897208 78.57571425870904 L-0.7007317903335601 78.54144252442381 L-0.6522294077603812 78.66942039534675 L0.555224642614023 78.44094216677868 L0.23187542545949624 77.5877563606258 L-0.9755786249149081 77.81623458919387 L-0.927076242341729 77.9442124601168 L-1.1081943498978897 77.97848419440201 L-1.2051991150442476 77.72252845255615 L0.3644911504424779 77.42550675541766 L0.7848451327433628 78.5346483034164 z"/>
<path fill="#bababa" stroke="#bababa" d="M-22.740256977535736 -49.861067557022494 L-22.740256977535736 20.900353762774454 L-21.17056671204901 20.60333206563596 L-21.17056671204901 -50.158089254160984 z"/>
<path fill="#bababa" stroke="#bababa" d="M-22.65614363512593 -50.15129503315356 L-22.65614363512593 20.61012628664338 L-22.83726174268209 20.64439802092859 L-22.83726174268209 -50.117023298868354 z"/>
<path fill="#bababa" stroke="#bababa" d="M-21.723536419332884 -51.104981196951584 L-21.723536419332877 19.65644012284536 L-21.40018720217835 20.50962592899824 L-21.40018720217835 -50.251795390798705 z"/>
<path fill="#bababa" stroke="#bababa" d="M-22.93099046970728 -50.87650296838351 L-22.93099046970728 19.884918351413432 L-21.723536419332877 19.65644012284536 L-21.723536419332877 -51.104981196951584 z"/>
<path fill="#bababa" stroke="#bababa" d="M-23.160610959836625 -50.97020910502123 L-23.160610959836625 19.79121221477571 L-23.063606194690266 20.047167956621575 L-23.063606194690266 -50.71425336317537 z"/>
<path fill="#bababa" stroke="#bababa" d="M-22.837261742682095 -50.117023298868354 L-22.837261742682095 20.64439802092859 L-22.74025697753574 20.90035376277445 L-22.740256977535736 -49.861067557022494 z"/>
<path fill="#bababa" stroke="#bababa" d="M-21.590920694349894 -51.26723080215973 L-21.590920694349894 19.494190517637218 L-23.16061095983662 19.79121221477571 L-23.16061095983662 -50.97020910502123 z"/>
<path fill="#bababa" stroke="#bababa" d="M-21.170566712049013 -50.158089254160984 L-21.170566712049013 20.60333206563596 L-21.590920694349897 19.494190517637218 L-21.590920694349894 -51.267230802159716 z"/>
<path fill="#bababa" stroke="#bababa" d="M-21.40018720217835 -50.251795390798705 L-21.40018720217835 20.50962592899824 L-22.607641252552753 20.738104157566312 L-22.607641252552753 -50.02331716223063 z"/>
<path fill="#bababa" stroke="#bababa" d="M-23.063606194690262 -50.71425336317537 L-23.063606194690262 20.047167956621575 L-22.882488087134103 20.012896222336366 L-22.882488087134103 -50.74852509746058 z"/>
<path fill="#bababa" stroke="#bababa" d="M-22.882488087134103 -50.74852509746058 L-22.882488087134103 20.012896222336362 L-22.930990469707282 19.884918351413432 L-22.930990469707282 -50.87650296838351 z"/>
<path fill="#bababa" stroke="#bababa" d="M-22.607641252552757 -50.02331716223063 L-22.607641252552757 20.738104157566312 L-22.656143635125936 20.61012628664338 L-22.656143635125932 -50.15129503315356 z"/>
<path fill="#bababa" stroke="#bababa" d="M-22.837261742682095 -50.11702329886837 L-22.740256977535736 -49.86106755702251 L-21.170566712049013 -50.158089254161 L-21.590920694349897 -51.26723080215974 L-23.16061095983662 -50.97020910502125 L-23.063606194690262 -50.714253363175395 L-22.882488087134103 -50.7485250974606 L-22.930990469707282 -50.876502968383534 L-21.723536419332877 -51.1049811969516 L-21.40018720217835 -50.25179539079871 L-22.607641252552757 -50.023317162230654 L-22.656143635125936 -50.15129503315359 z"/>
<path fill="#bababa" stroke="#bababa" d="M-22.740256977535736 20.900353762774447 L-22.837261742682095 20.64439802092858 L-22.656143635125936 20.61012628664338 L-22.607641252552757 20.738104157566305 L-21.40018720217835 20.509625928998233 L-21.723536419332877 19.65644012284536 L-22.930990469707282 19.884918351413432 L-22.882488087134103 20.01289622233636 L-23.063606194690262 20.047167956621575 L-23.16061095983662 19.791212214775708 L-21.590920694349897 19.494190517637218 L-21.170566712049013 20.603332065635957 z"/>
<path fill="#bababa" stroke="#bababa" d="M-22.31990299523485 -79.8869513897344 L-22.31990299523485 5.026754194021929 L-20.750212729748124 4.729732496883435 L-20.750212729748124 -80.1839730868729 z"/>
<path fill="#bababa" stroke="#bababa" d="M-22.235789652825048 -80.17717886586547 L-22.235789652825048 4.736526717890854 L-22.416907760381207 4.770798452176065 L-22.416907760381207 -80.14290713158026 z"/>
<path fill="#bababa" stroke="#bababa" d="M-21.303182437031996 -81.1308650296635 L-21.303182437031996 3.782840554092836 L-20.979833219877467 4.636026360245714 L-20.979833219877467 -80.27767922351062 z"/>
<path fill="#bababa" stroke="#bababa" d="M-22.510636487406398 -80.90238680109543 L-22.510636487406398 4.011318782660908 L-21.303182437031992 3.7828405540928363 L-21.303182437031992 -81.1308650296635 z"/>
<path fill="#bababa" stroke="#bababa" d="M-22.740256977535736 -80.99609293773314 L-22.740256977535736 3.917612646023186 L-22.643252212389378 4.17356838786905 L-22.643252212389378 -80.74013719588727 z"/>
<path fill="#bababa" stroke="#bababa" d="M-22.41690776038121 -80.14290713158026 L-22.41690776038121 4.770798452176066 L-22.31990299523485 5.026754194021929 L-22.31990299523485 -79.88695138973439 z"/>
<path fill="#bababa" stroke="#bababa" d="M-21.17056671204901 -81.29311463487164 L-21.17056671204901 3.6205909488846935 L-22.740256977535733 3.9176126460231866 L-22.740256977535733 -80.99609293773315 z"/>
<path fill="#bababa" stroke="#bababa" d="M-20.750212729748124 -80.1839730868729 L-20.750212729748128 4.729732496883435 L-21.170566712049013 3.6205909488846935 L-21.170566712049013 -81.29311463487164 z"/>
<path fill="#bababa" stroke="#bababa" d="M-20.979833219877463 -80.27767922351062 L-20.979833219877463 4.636026360245714 L-22.18728727025187 4.864504588813786 L-22.18728727025187 -80.04920099494255 z"/>
<path fill="#bababa" stroke="#bababa" d="M-22.643252212389378 -80.74013719588727 L-22.643252212389378 4.17356838786905 L-22.46213410483322 4.139296653583839 L-22.46213410483322 -80.77440893017248 z"/>
<path fill="#bababa" stroke="#bababa" d="M-22.46213410483322 -80.77440893017248 L-22.46213410483322 4.139296653583839 L-22.510636487406398 4.011318782660907 L-22.510636487406398 -80.90238680109542 z"/>
<path fill="#bababa" stroke="#bababa" d="M-22.18728727025187 -80.04920099494254 L-22.187287270251872 4.8645045888137854 L-22.23578965282505 4.736526717890855 L-22.23578965282505 -80.17717886586547 z"/>
<path fill="#bababa" stroke="#bababa" d="M-22.41690776038121 -80.14290713158027 L-22.31990299523485 -79.88695138973442 L-20.750212729748124 -80.18397308687291 L-21.170566712049013 -81.29311463487166 L-22.740256977535736 -80.99609293773317 L-22.643252212389378 -80.74013719588731 L-22.46213410483322 -80.77440893017251 L-22.510636487406398 -80.90238680109545 L-21.303182437031992 -81.13086502966351 L-20.979833219877467 -80.27767922351063 L-22.187287270251872 -80.04920099494257 L-22.235789652825048 -80.1771788658655 z"/>
<path fill="#bababa" stroke="#bababa" d="M-22.31990299523485 5.026754194021924 L-22.41690776038121 4.770798452176059 L-22.235789652825048 4.736526717890844 L-22.187287270251872 4.864504588813783 L-20.979833219877467 4.63602636024571 L-21.303182437031992 3.782840554092826 L-22.510636487406398 4.011318782660898 L-22.46213410483322 4.139296653583837 L-22.643252212389378 4.1735683878690395 L-22.740256977535736 3.917612646023186 L-21.170566712049013 3.620590948884684 L-20.750212729748124 4.729732496883433 z"/>
<path fill="#e2c66c" stroke="#e2c66c" d="M-2.6899251191286586 -17.425498624809208 L-3.414397549353301 -17.288411687668365 L-3.414397549353301 50.6425527793367 L-2.6899251191286586 50.505465842195854 z"/>
<path fill="#e2c66c" stroke="#e2c66c" d="M-15.10653505786249 -50.18783358107976 L-15.831007488087133 -50.05074664393892 L-3.414397549353301 -17.288411687668365 L-2.6899251191286586 -17.425498624809226 z"/>
<path fill="#e2c66c" stroke="#e2c66c" d="M-15.106535057862489 17.74313088592532 L-15.831007488087133 17.880217823066165 L-15.831007488087133 -50.05074664393889 L-15.106535057862489 -50.18783358107974 z"/>
<path fill="#e2c66c" stroke="#e2c66c" d="M-2.6899251191286586 50.50546584219584 L-3.414397549353301 50.6425527793367 L-15.831007488087133 17.880217823066157 L-15.10653505786249 17.74313088592532 z"/>
<path fill="#e2c66c" stroke="#e2c66c" d="M-2.689925119128663 -17.425498624809208 L-2.689925119128659 50.50546584219586 L-15.106535057862494 17.743130885925325 L-15.106535057862494 -50.187833581079744 z"/>
<path fill="#e2c66c" stroke="#e2c66c" d="M-3.4143975493533016 -17.288411687668365 L-15.831007488087131 -50.05074664393889 L-15.831007488087135 17.880217823066168 L-3.4143975493533043 50.6425527793367 z"/>
</svg>