<?xml version="1.0" encoding="UTF-8"?>
<!-- Generated by jsxcad -->
<!DOCTYPE svg PUBLIC "-//W3C//DTD SVG 1.1 Tiny//EN" "http://www.w3.org/Graphics/SVG/1.1/DTD/svg11-tiny.dtd">
<svg baseProfile="tiny" height="163.54720812182748mm" width="2.437500000000001mm" viewBox="-1.6250000000000002 -79.96666666666668 2.437500000000001 163.54720812182748" version="1.1" stroke="black" stroke-width=".1" fill="none" xmlns="http://www.w3.org/2000/svg">
<path fill="#e2c66c" stroke="#e2c66c" d="M-0.8125 -63.901670896785106 L-0.8125 -4.547356175972946 L0.8125 -4.547356175972946 L0.8125 -63.901670896785106 z"/>
<path fill="#e2c66c" stroke="#e2c66c" d="M-0.625 -63.63631556683588 L-0.625 -4.282000846023715 L-0.8125 -4.282000846023715 L-0.8125 -63.63631556683588 z"/>
<path fill="#e2c66c" stroke="#e2c66c" d="M0.625 -62.884475465313024 L0.625 -3.530160744500846 L0.625 -4.414678510998307 L0.625 -63.768993231810484 z"/>
<path fill="#e2c66c" stroke="#e2c66c" d="M-0.625 -62.88447546531303 L-0.625 -3.5301607445008645 L0.625 -3.5301607445008645 L0.625 -62.88447546531303 z"/>
<path fill="#e2c66c" stroke="#e2c66c" d="M-0.8125 -62.75179780033841 L-0.8125 -3.3974830795262263 L-0.8125 -3.662838409475465 L-0.8125 -63.017153130287646 z"/>
<path fill="#e2c66c" stroke="#e2c66c" d="M-0.8125 -63.63631556683587 L-0.8125 -4.2820008460236885 L-0.8125 -4.547356175972927 L-0.8125 -63.901670896785106 z"/>
<path fill="#e2c66c" stroke="#e2c66c" d="M0.8125 -62.75179780033842 L0.8125 -3.397483079526262 L-0.8125 -3.397483079526262 L-0.8125 -62.75179780033842 z"/>
<path fill="#e2c66c" stroke="#e2c66c" d="M0.8125 -63.901670896785106 L0.8125 -4.547356175972927 L0.8125 -3.3974830795262263 L0.8125 -62.75179780033841 z"/>
<path fill="#e2c66c" stroke="#e2c66c" d="M0.625 -63.76899323181051 L0.625 -4.414678510998314 L-0.625 -4.414678510998314 L-0.625 -63.76899323181051 z"/>
<path fill="#e2c66c" stroke="#e2c66c" d="M-0.8125 -63.01715313028765 L-0.8125 -3.6628384094754836 L-0.625 -3.6628384094754836 L-0.625 -63.01715313028765 z"/>
<path fill="#e2c66c" stroke="#e2c66c" d="M-0.625 -63.017153130287646 L-0.625 -3.662838409475465 L-0.625 -3.530160744500846 L-0.625 -62.884475465313024 z"/>
<path fill="#e2c66c" stroke="#e2c66c" d="M-0.625 -63.768993231810484 L-0.625 -4.414678510998307 L-0.625 -4.2820008460236885 L-0.625 -63.63631556683587 z"/>
<path fill="#e2c66c" stroke="#e2c66c" d="M-0.8125 -63.63631556683587 L-0.8125 -63.9016708967851 L0.8125 -63.9016708967851 L0.8125 -62.7517978003384 L-0.8125 -62.7517978003384 L-0.8125 -63.01715313028764 L-0.625 -63.01715313028764 L-0.625 -62.884475465313024 L0.625 -62.884475465313024 L0.625 -63.76899323181048 L-0.625 -63.76899323181048 L-0.625 -63.63631556683587 z"/>
<path fill="#e2c66c" stroke="#e2c66c" d="M-0.8125 -4.547356175972927 L-0.8125 -4.282000846023688 L-0.625 -4.282000846023688 L-0.625 -4.414678510998307 L0.625 -4.414678510998307 L0.625 -3.530160744500846 L-0.625 -3.530160744500846 L-0.625 -3.6628384094754645 L-0.8125 -3.6628384094754645 L-0.8125 -3.3974830795262263 L0.8125 -3.3974830795262263 L0.8125 -4.547356175972927 z"/>
<path fill="#e2c66c" stroke="#e2c66c" d="M-0.8125 -0.21639170896785234 L-0.8125 59.13792301184432 L0.8125 59.13792301184432 L0.8125 -0.21639170896785234 z"/>
<path fill="#e2c66c" stroke="#e2c66c" d="M-0.625 0.0489636209813801 L-0.625 59.40327834179356 L-0.8125 59.40327834179356 L-0.8125 0.0489636209813801 z"/>
<path fill="#e2c66c" stroke="#e2c66c" d="M0.625 0.80080372250423 L0.625 60.15511844331641 L0.625 59.270600676818944 L0.625 -0.0837140439932318 z"/>
<path fill="#e2c66c" stroke="#e2c66c" d="M-0.625 0.8008037225042239 L-0.625 60.155118443316404 L0.625 60.155118443316404 L0.625 0.8008037225042239 z"/>
<path fill="#e2c66c" stroke="#e2c66c" d="M-0.8125 0.9334813874788493 L-0.8125 60.287796108291026 L-0.8125 60.02244077834179 L-0.8125 0.6681260575296107 z"/>
<path fill="#e2c66c" stroke="#e2c66c" d="M-0.8125 0.04896362098138748 L-0.8125 59.403278341793566 L-0.8125 59.13792301184433 L-0.8125 -0.2163917089678511 z"/>
<path fill="#e2c66c" stroke="#e2c66c" d="M0.8125 0.933481387478843 L0.8125 60.287796108291026 L-0.8125 60.287796108291026 L-0.8125 0.933481387478843 z"/>
<path fill="#e2c66c" stroke="#e2c66c" d="M0.8125 -0.2163917089678511 L0.8125 59.13792301184433 L0.8125 60.287796108291026 L0.8125 0.9334813874788493 z"/>
<path fill="#e2c66c" stroke="#e2c66c" d="M0.625 -0.0837140439932423 L0.625 59.27060067681894 L-0.625 59.27060067681894 L-0.625 -0.0837140439932423 z"/>
<path fill="#e2c66c" stroke="#e2c66c" d="M-0.8125 0.6681260575296015 L-0.8125 60.02244077834179 L-0.625 60.02244077834179 L-0.625 0.6681260575296015 z"/>
<path fill="#e2c66c" stroke="#e2c66c" d="M-0.625 0.6681260575296107 L-0.625 60.02244077834179 L-0.625 60.15511844331641 L-0.625 0.80080372250423 z"/>
<path fill="#e2c66c" stroke="#e2c66c" d="M-0.625 -0.0837140439932318 L-0.625 59.270600676818944 L-0.625 59.403278341793566 L-0.625 0.04896362098138748 z"/>
<path fill="#e2c66c" stroke="#e2c66c" d="M-0.8125 0.04896362098138747 L-0.8125 -0.2163917089678511 L0.8125 -0.2163917089678511 L0.8125 0.9334813874788492 L-0.8125 0.9334813874788492 L-0.8125 0.6681260575296107 L-0.625 0.6681260575296107 L-0.625 0.8008037225042299 L0.625 0.8008037225042299 L0.625 -0.0837140439932318 L-0.625 -0.0837140439932318 L-0.625 0.04896362098138747 z"/>
<path fill="#e2c66c" stroke="#e2c66c" d="M-0.8125 59.13792301184432 L-0.8125 59.40327834179356 L-0.625 59.40327834179356 L-0.625 59.27060067681894 L0.625 59.27060067681894 L0.625 60.155118443316404 L-0.625 60.155118443316404 L-0.625 60.02244077834179 L-0.8125 60.02244077834179 L-0.8125 60.287796108291026 L0.8125 60.287796108291026 L0.8125 59.13792301184432 z"/>
<path fill="#e2c66c" stroke="#e2c66c" d="M-0.8125 -4.947038917089677 L-0.8125 79.96666666666665 L0.8125 79.96666666666665 L0.8125 -4.947038917089677 z"/>
<path fill="#e2c66c" stroke="#e2c66c" d="M-0.625 -5.212013536379018 L-0.625 79.7016920473773 L-0.8125 79.7016920473773 L-0.8125 -5.212013536379018 z"/>
<path fill="#e2c66c" stroke="#e2c66c" d="M0.625 -5.962774957698815 L0.625 78.95093062605753 L0.625 79.834179357022 L0.625 -5.079526226734348 z"/>
<path fill="#e2c66c" stroke="#e2c66c" d="M-0.625 -5.962774957698814 L-0.625 78.95093062605751 L0.625 78.95093062605751 L0.625 -5.962774957698814 z"/>
<path fill="#e2c66c" stroke="#e2c66c" d="M-0.8125 -6.095262267343485 L-0.8125 78.81844331641285 L-0.8125 79.08341793570219 L-0.8125 -5.830287648054145 z"/>
<path fill="#e2c66c" stroke="#e2c66c" d="M-0.8125 -5.212013536379018 L-0.8125 79.70169204737732 L-0.8125 79.96666666666665 L-0.8125 -4.947038917089678 z"/>
<path fill="#e2c66c" stroke="#e2c66c" d="M0.8125 -6.095262267343484 L0.8125 78.81844331641285 L-0.8125 78.81844331641285 L-0.8125 -6.095262267343484 z"/>
<path fill="#e2c66c" stroke="#e2c66c" d="M0.8125 -4.947038917089678 L0.8125 79.96666666666665 L0.8125 78.81844331641285 L0.8125 -6.095262267343485 z"/>
<path fill="#e2c66c" stroke="#e2c66c" d="M0.625 -5.079526226734348 L0.625 79.83417935702198 L-0.625 79.83417935702198 L-0.625 -5.079526226734348 z"/>
<path fill="#e2c66c" stroke="#e2c66c" d="M-0.8125 -5.830287648054145 L-0.8125 79.08341793570219 L-0.625 79.08341793570219 L-0.625 -5.830287648054145 z"/>
<path fill="#e2c66c" stroke="#e2c66c" d="M-0.625 -5.830287648054145 L-0.625 79.08341793570219 L-0.625 78.95093062605753 L-0.625 -5.962774957698815 z"/>
<path fill="#e2c66c" stroke="#e2c66c" d="M-0.625 -5.079526226734348 L-0.625 79.834179357022 L-0.625 79.70169204737732 L-0.625 -5.212013536379018 z"/>
<path fill="#e2c66c" stroke="#e2c66c" d="M-0.8125 -5.212013536379054 L-0.8125 -4.947038917089684 L0.8125 -4.947038917089684 L0.8125 -6.095262267343501 L-0.8125 -6.095262267343501 L-0.8125 -5.830287648054176 L-0.625 -5.830287648054176 L-0.625 -5.962774957698816 L0.625 -5.962774957698816 L0.625 -5.0795262267343695 L-0.625 -5.0795262267343695 L-0.625 -5.212013536379054 z"/>
<path fill="#e2c66c" stroke="#e2c66c" d="M-0.8125 79.96666666666664 L-0.8125 79.70169204737732 L-0.625 79.70169204737732 L-0.625 79.83417935702198 L0.625 79.83417935702198 L0.625 78.95093062605751 L-0.625 78.95093062605751 L-0.625 79.08341793570217 L-0.8125 79.08341793570217 L-0.8125 78.81844331641284 L0.8125 78.81844331641284 L0.8125 79.96666666666664 z"/>
<path fill="#e2c66c" stroke="#e2c66c" d="M-0.8125 -20.781556683587137 L-0.8125 64.1321489001692 L0.8125 64.1321489001692 L0.8125 -20.781556683587137 z"/>
<path fill="#e2c66c" stroke="#e2c66c" d="M-0.625 -21.046531302876478 L-0.625 63.86717428087985 L-0.8125 63.86717428087985 L-0.8125 -21.046531302876478 z"/>
<path fill="#e2c66c" stroke="#e2c66c" d="M0.625 -21.797292724196275 L0.625 63.116412859560064 L0.625 63.99966159052453 L0.625 -20.914043993231807 z"/>
<path fill="#e2c66c" stroke="#e2c66c" d="M-0.625 -21.79729272419627 L-0.625 63.11641285956006 L0.625 63.11641285956006 L0.625 -21.79729272419627 z"/>
<path fill="#e2c66c" stroke="#e2c66c" d="M-0.8125 -21.929780033840945 L-0.8125 62.98392554991539 L-0.8125 63.24890016920473 L-0.8125 -21.664805414551605 z"/>
<path fill="#e2c66c" stroke="#e2c66c" d="M-0.8125 -21.046531302876478 L-0.8125 63.86717428087986 L-0.8125 64.1321489001692 L-0.8125 -20.781556683587137 z"/>
<path fill="#e2c66c" stroke="#e2c66c" d="M0.8125 -21.929780033840945 L0.8125 62.98392554991539 L-0.8125 62.98392554991539 L-0.8125 -21.929780033840945 z"/>
<path fill="#e2c66c" stroke="#e2c66c" d="M0.8125 -20.781556683587137 L0.8125 64.1321489001692 L0.8125 62.98392554991539 L0.8125 -21.929780033840945 z"/>
<path fill="#e2c66c" stroke="#e2c66c" d="M0.625 -20.914043993231807 L0.625 63.999661590524525 L-0.625 63.999661590524525 L-0.625 -20.914043993231807 z"/>
<path fill="#e2c66c" stroke="#e2c66c" d="M-0.8125 -21.664805414551605 L-0.8125 63.24890016920473 L-0.625 63.24890016920473 L-0.625 -21.664805414551605 z"/>
<path fill="#e2c66c" stroke="#e2c66c" d="M-0.625 -21.664805414551605 L-0.625 63.24890016920473 L-0.625 63.116412859560064 L-0.625 -21.797292724196275 z"/>
<path fill="#e2c66c" stroke="#e2c66c" d="M-0.625 -20.914043993231807 L-0.625 63.99966159052453 L-0.625 63.86717428087986 L-0.625 -21.046531302876478 z"/>
<path fill="#e2c66c" stroke="#e2c66c" d="M-0.8125 -21.0465313028765 L-0.8125 -20.781556683587173 L0.8125 -20.781556683587173 L0.8125 -21.92978003384099 L-0.8125 -21.92978003384099 L-0.8125 -21.66480541455162 L-0.625 -21.66480541455162 L-0.625 -21.797292724196303 L0.625 -21.797292724196303 L0.625 -20.91404399323181 L-0.625 -20.91404399323181 L-0.625 -21.0465313028765 z"/>
<path fill="#e2c66c" stroke="#e2c66c" d="M-0.8125 64.1321489001692 L-0.8125 63.86717428087985 L-0.625 63.86717428087985 L-0.625 63.99966159052452 L0.625 63.99966159052452 L0.625 63.11641285956004 L-0.625 63.11641285956004 L-0.625 63.24890016920473 L-0.8125 63.24890016920473 L-0.8125 62.983925549915384 L0.8125 62.983925549915384 L0.8125 64.1321489001692 z"/>
<path fill="#e2c66c" stroke="#e2c66c" d="M-0.8125 -66.59780033840947 L-0.8125 18.315905245346865 L0.8125 18.315905245346865 L0.8125 -66.59780033840947 z"/>
<path fill="#e2c66c" stroke="#e2c66c" d="M-0.625 -66.8627749576988 L-0.625 18.050930626057525 L-0.8125 18.050930626057525 L-0.8125 -66.8627749576988 z"/>
<path fill="#e2c66c" stroke="#e2c66c" d="M0.625 -67.61353637901861 L0.625 17.30016920473773 L0.625 18.1834179357022 L0.625 -66.73028764805414 z"/>
<path fill="#e2c66c" stroke="#e2c66c" d="M-0.625 -67.61353637901861 L-0.625 17.30016920473773 L0.625 17.30016920473773 L0.625 -67.61353637901861 z"/>
<path fill="#e2c66c" stroke="#e2c66c" d="M-0.8125 -67.74602368866327 L-0.8125 17.16768189509306 L-0.8125 17.4326565143824 L-0.8125 -67.48104906937394 z"/>
<path fill="#e2c66c" stroke="#e2c66c" d="M-0.8125 -66.8627749576988 L-0.8125 18.05093062605753 L-0.8125 18.31590524534687 L-0.8125 -66.59780033840947 z"/>
<path fill="#e2c66c" stroke="#e2c66c" d="M0.8125 -67.74602368866327 L0.8125 17.16768189509306 L-0.8125 17.16768189509306 L-0.8125 -67.74602368866327 z"/>
<path fill="#e2c66c" stroke="#e2c66c" d="M0.8125 -66.59780033840947 L0.8125 18.31590524534687 L0.8125 17.16768189509306 L0.8125 -67.74602368866327 z"/>
<path fill="#e2c66c" stroke="#e2c66c" d="M0.625 -66.73028764805413 L0.625 18.183417935702195 L-0.625 18.183417935702195 L-0.625 -66.73028764805413 z"/>
<path fill="#e2c66c" stroke="#e2c66c" d="M-0.8125 -67.48104906937392 L-0.8125 17.432656514382398 L-0.625 17.432656514382398 L-0.625 -67.48104906937392 z"/>
<path fill="#e2c66c" stroke="#e2c66c" d="M-0.625 -67.48104906937394 L-0.625 17.4326565143824 L-0.625 17.30016920473773 L-0.625 -67.61353637901861 z"/>
<path fill="#e2c66c" stroke="#e2c66c" d="M-0.625 -66.73028764805414 L-0.625 18.1834179357022 L-0.625 18.05093062605753 L-0.625 -66.8627749576988 z"/>
<path fill="#e2c66c" stroke="#e2c66c" d="M-0.8125 -66.86277495769882 L-0.8125 -66.59780033840948 L0.8125 -66.59780033840948 L0.8125 -67.74602368866329 L-0.8125 -67.74602368866329 L-0.8125 -67.48104906937395 L-0.625 -67.48104906937395 L-0.625 -67.61353637901861 L0.625 -67.61353637901861 L0.625 -66.73028764805414 L-0.625 -66.73028764805414 L-0.625 -66.86277495769882 z"/>
<path fill="#e2c66c" stroke="#e2c66c" d="M-0.8125 18.31590524534686 L-0.8125 18.05093062605752 L-0.625 18.05093062605752 L-0.625 18.183417935702195 L0.625 18.183417935702195 L0.625 17.300169204737728 L-0.625 17.300169204737728 L-0.625 17.43265651438239 L-0.8125 17.43265651438239 L-0.8125 17.167681895093054 L0.8125 17.167681895093054 L0.8125 18.31590524534686 z"/>
<path fill="#e2c66c" stroke="#e2c66c" d="M-0.8125 -82.43231810490693 L-0.8125 2.4813874788494075 L0.8125 2.4813874788494075 L0.8125 -82.43231810490693 z"/>
<path fill="#e2c66c" stroke="#e2c66c" d="M-0.625 -82.69729272419627 L-0.625 2.216412859560067 L-0.8125 2.216412859560067 L-0.8125 -82.69729272419627 z"/>
<path fill="#e2c66c" stroke="#e2c66c" d="M0.625 -83.44805414551607 L0.625 1.4656514382402706 L0.625 2.3489001692047373 L0.625 -82.5648054145516 z"/>
<path fill="#e2c66c" stroke="#e2c66c" d="M-0.625 -83.44805414551607 L-0.625 1.4656514382402706 L0.625 1.4656514382402706 L0.625 -83.44805414551607 z"/>
<path fill="#e2c66c" stroke="#e2c66c" d="M-0.8125 -83.58054145516074 L-0.8125 1.3331641285956006 L-0.8125 1.5981387478849407 L-0.8125 -83.3155668358714 z"/>
<path fill="#e2c66c" stroke="#e2c66c" d="M-0.8125 -82.69729272419627 L-0.8125 2.2164128595600676 L-0.8125 2.4813874788494075 L-0.8125 -82.43231810490693 z"/>
<path fill="#e2c66c" stroke="#e2c66c" d="M0.8125 -83.58054145516073 L0.8125 1.3331641285956004 L-0.8125 1.3331641285956004 L-0.8125 -83.58054145516073 z"/>
<path fill="#e2c66c" stroke="#e2c66c" d="M0.8125 -82.43231810490693 L0.8125 2.4813874788494075 L0.8125 1.3331641285956006 L0.8125 -83.58054145516074 z"/>
<path fill="#e2c66c" stroke="#e2c66c" d="M0.625 -82.56480541455159 L0.625 2.3489001692047373 L-0.625 2.3489001692047373 L-0.625 -82.56480541455159 z"/>
<path fill="#e2c66c" stroke="#e2c66c" d="M-0.8125 -83.31556683587138 L-0.8125 1.5981387478849407 L-0.625 1.5981387478849407 L-0.625 -83.31556683587138 z"/>
<path fill="#e2c66c" stroke="#e2c66c" d="M-0.625 -83.3155668358714 L-0.625 1.5981387478849407 L-0.625 1.4656514382402706 L-0.625 -83.44805414551607 z"/>
<path fill="#e2c66c" stroke="#e2c66c" d="M-0.625 -82.5648054145516 L-0.625 2.3489001692047373 L-0.625 2.2164128595600676 L-0.625 -82.69729272419627 z"/>
<path fill="#e2c66c" stroke="#e2c66c" d="M-0.8125 -82.69729272419627 L-0.8125 -82.43231810490693 L0.8125 -82.43231810490693 L0.8125 -83.58054145516076 L-0.8125 -83.58054145516076 L-0.8125 -83.31556683587141 L-0.625 -83.31556683587141 L-0.625 -83.44805414551608 L0.625 -83.44805414551608 L0.625 -82.56480541455161 L-0.625 -82.56480541455161 L-0.625 -82.69729272419627 z"/>
<path fill="#e2c66c" stroke="#e2c66c" d="M-0.8125 2.481387478849405 L-0.8125 2.216412859560057 L-0.625 2.216412859560057 L-0.625 2.348900169204731 L0.625 2.348900169204731 L0.625 1.4656514382402615 L-0.625 1.4656514382402615 L-0.625 1.5981387478849354 L-0.8125 1.5981387478849354 L-0.8125 1.333164128595599 L0.8125 1.333164128595599 L0.8125 2.481387478849405 z"/>
<path fill="#e2c66c" stroke="#e2c66c" d="M-0.875 -15.104399323181047 L-1.625 -15.104399323181047 L-1.625 52.82656514382402 L-0.875 52.82656514382402 z"/>
<path fill="#e2c66c" stroke="#e2c66c" d="M-0.875 -49.02115059221659 L-1.625 -49.02115059221659 L-1.625 -15.104399323181049 L-0.875 -15.104399323181049 z"/>
<path fill="#e2c66c" stroke="#e2c66c" d="M-0.875 18.90981387478849 L-1.625 18.90981387478849 L-1.625 -49.02115059221657 L-0.875 -49.02115059221657 z"/>
<path fill="#e2c66c" stroke="#e2c66c" d="M-0.875 52.82656514382402 L-1.625 52.82656514382402 L-1.625 18.909813874788483 L-0.875 18.909813874788483 z"/>
<path fill="#e2c66c" stroke="#e2c66c" d="M-0.875 -15.104399323181049 L-0.875 52.82656514382403 L-0.875 18.909813874788494 L-0.875 -49.02115059221658 z"/>
<path fill="#e2c66c" stroke="#e2c66c" d="M-1.625 -15.104399323181049 L-1.625 -49.02115059221658 L-1.625 18.909813874788494 L-1.625 52.82656514382403 z"/>
</svg>