<?xml version="1.0" encoding="UTF-8"?>
<!-- Generated by jsxcad -->
<!DOCTYPE svg PUBLIC "-//W3C//DTD SVG 1.1 Tiny//EN" "http://www.w3.org/Graphics/SVG/1.1/DTD/svg11-tiny.dtd">
<svg baseProfile="tiny" height="161.7458376671171mm" width="24.98017358747448mm" viewBox="-24.195328454731115 -79.26759265082433 24.98017358747448 161.7458376671171" version="1.1" stroke="black" stroke-width=".1" fill="none" xmlns="http://www.w3.org/2000/svg">
<path fill="#bababa" stroke="#bababa" d="M-8.748559556897003 36.77381543195069 L-8.664014406421966 36.996895367010175 L-9.409809546942318 38.443501886215955 L-9.494354697417355 38.22042195115649 z"/>
<path fill="#bababa" stroke="#bababa" d="M-8.364656451844688 38.99670746825412 L-8.100380069921716 38.48409493407327 L-8.015834919446679 38.70717486913276 L-8.761630059967029 40.15378138833854 L-8.846175210442066 39.93070145327907 z"/>
<path fill="#bababa" stroke="#bababa" d="M-9.494354697417355 37.335904184659036 L-9.409809546942318 37.558984119718495 L-8.664014406421966 36.1123776005127 L-8.748559556897003 35.889297665453235 z"/>
<path fill="#bababa" stroke="#bababa" d="M-8.100380069921716 37.599577167575816 L-8.846175210442066 39.04618368678161 L-8.761630059967029 39.26926362184108 L-8.015834919446679 37.822657102635276 z"/>
<path fill="#bababa" stroke="#bababa" d="M-9.409809546942318 38.31082422124133 L-9.521678818020371 38.527815199122216 L-9.606223968495408 38.304735264062735 L-9.494354697417355 38.08774428618188 z"/>
<path fill="#bababa" stroke="#bababa" d="M-7.578323471557472 37.338794868611615 L-7.578323471557471 37.471470370629234 L-8.028335564480143 36.28407324730393 L-8.028335564480145 36.416750912278545 L-7.493778321082433 37.827227970663316 L-7.493778321082435 37.56187264071408 L-7.578323471557472 37.33879270565461 z"/>
<path fill="#bababa" stroke="#bababa" d="M-7.898825482806575 35.608601740231464 L-8.028335564480145 35.26687781583185 L-8.028335564480145 35.39955548080646 L-7.578323471557472 36.586952604131774 L-7.578323471557471 36.71963026910639 L-7.493778321082433 36.94271020416586 L-7.493778321082436 36.67735487421662 z"/>
<path fill="#bababa" stroke="#bababa" d="M-9.565005163695702 37.60562139246559 L-9.606223968495408 37.68557282751453 L-9.521678818020371 37.908652762574 L-9.409809546942318 37.69166178469313 L-9.494354697417355 37.468581849633665 z"/>
<path fill="#bababa" stroke="#bababa" d="M-9.40980954694232 38.44350188621596 L-9.40980954694232 38.31082422124135 L-9.494354697417357 38.08774428618188 L-9.494354697417357 38.220421951156496 z"/>
<path fill="#bababa" stroke="#bababa" d="M-9.40980954694232 37.64115448212534 L-9.40980954694232 37.55898411971851 L-9.494354697417355 37.33590418465904 L-9.494354697417359 37.46858184963366 L-9.40980954694232 37.691661784693125 z"/>
<path fill="#bababa" stroke="#bababa" d="M-8.834011284400118 39.83011939421751 L-8.846175210442068 39.79802378830446 L-8.846175210442068 39.930701453279084 L-8.761630059967032 40.15378138833855 L-8.761630059967032 40.021103723363936 z"/>
<path fill="#bababa" stroke="#bababa" d="M-8.761630059967032 39.35726250062917 L-8.76163005996703 39.26926362184109 L-8.84617521044207 39.04618368678162 L-8.84617521044207 39.17886135175624 L-8.761630059967032 39.401941286815706 z"/>
<path fill="#bababa" stroke="#bababa" d="M-8.945135540925087 40.04907615957627 L-8.873499331045085 40.238094701244805 L-8.873499331045085 40.503450031194035 L-9.60622396849541 38.570090594011994 L-9.606223968495412 38.30473526406275 L-9.521678818020375 38.527815199122216 L-9.521678818020371 38.66049286409684 L-8.958044481520124 40.14769243115995 L-8.958044481520123 40.01501476618533 z"/>
<path fill="#bababa" stroke="#bababa" d="M-9.521678818020375 37.86617574503412 L-9.521678818020375 37.90865276257399 L-9.606223968495408 37.685572827514534 L-9.60622396849541 37.42021749756529 L-8.873499331045085 39.35357693474734 L-8.873499331045085 39.618932264696575 L-8.95804448152012 39.39585232963711 L-8.958044481520123 39.26317466466249 L-9.521678818020373 37.77597509759937 z"/>
<path fill="#bababa" stroke="#bababa" d="M-9.606223968495408 38.57009059401198 L-8.873499331045082 40.503450031194035 L-19.208125 60.549352791878164 L-19.45098039215686 60.549352791878164 L-20.763422818791945 60.21152497189383 z"/>
<path fill="#bababa" stroke="#bababa" d="M-8.028335564480141 36.416750912278545 L-6.914429530201342 36.70347468742547 L-7.4937783210824325 37.827227970663316 z"/>
<path fill="#bababa" stroke="#bababa" d="M-8.015834919446682 38.574497204158135 L-8.015834919446682 38.70717486913276 L-8.100380069921716 38.48409493407329 L-8.100380069921716 38.35141726909867 z"/>
<path fill="#bababa" stroke="#bababa" d="M-8.01583491944668 37.95533476760991 L-8.10038006992172 37.732254832550446 L-8.10038006992172 37.59957716757583 L-8.01583491944668 37.8226571026353 z"/>
<path fill="#bababa" stroke="#bababa" d="M-8.748559556897007 36.23577560544082 L-8.748559556897005 35.88929766545325 L-8.664014406421966 36.112377600512716 L-8.664014406421968 36.996895367010175 L-8.748559556897007 36.77381543195071 z"/>
<path fill="#bababa" stroke="#bababa" d="M-7.574952043395962 37.34768852015256 L-7.4937783210824325 37.56187264071408 L-6.914429530201342 36.43811935747622 L-7.090604026845637 36.392771352161596 L-7.57832347155747 37.33879270565462 z"/>
<path fill="#bababa" stroke="#bababa" d="M-8.873499331045082 40.2380947012448 L-8.958044481520119 40.01501476618533 L-19.40767857142857 60.28399746192892 L-19.208125 60.28399746192892 z"/>
<path fill="#bababa" stroke="#bababa" d="M-8.834011284400118 39.830119394217505 L-8.761630059967029 40.02110372336393 L-8.015834919446679 38.574497204158135 L-8.100380069921716 38.351417269098675 L-8.846175210442066 39.79802378830446 z"/>
<path fill="#bababa" stroke="#bababa" d="M-9.409809546942315 38.31082422124135 L-9.409809546942316 38.44350188621597 L-8.664014406421964 36.996895367010175 L-8.664014406421964 36.112377600512716 L-9.409809546942316 37.55898411971851 L-9.409809546942313 37.691661784693125 L-9.521678818020366 37.90865276257399 L-9.52167881802037 37.77597509759938 L-20.587248322147644 59.23967754573637 L-20.587248322147644 60.12419531223384 L-9.521678818020366 38.66049286409684 L-9.521678818020368 38.527815199122216 z"/>
<path fill="#bababa" stroke="#bababa" d="M-7.599578803958366 36.53086851007059 L-8.028335564480141 35.39955548080647 L-7.090604026845637 35.640931250638765 L-7.57832347155747 36.586952604131774 z"/>
<path fill="#bababa" stroke="#bababa" d="M-20.587248322147648 59.239677545736356 L-9.521678818020371 37.77597509759938 L-8.958044481520119 39.26317466466248 L-19.40767857142857 59.53215736040607 L-19.45098039215686 59.53215736040607 z"/>
<path fill="#bababa" stroke="#bababa" d="M-8.87349933104508 40.503352391944674 L-8.87349933104508 40.2380947012448 L-19.208124999999995 60.28399746192892 L-19.208124999999995 60.549352791878164 L-8.87349933104508 40.503450031194035 z"/>
<path fill="#bababa" stroke="#bababa" d="M-8.761630059967027 40.15378138833855 L-8.015834919446675 38.70717486913276 L-8.015834919446675 38.57449720415814 L-8.761630059967027 40.021103723363936 z"/>
<path fill="#bababa" stroke="#bababa" d="M-7.49377832108243 36.678421897472205 L-7.493778321082431 36.942710204165856 L-6.914429530201338 35.81895692092801 L-6.914429530201339 35.55360159097877 L-7.493778321082431 36.67735487421662 z"/>
<path fill="#bababa" stroke="#bababa" d="M-7.493778321082431 37.562939663969665 L-7.493778321082428 37.82722797066332 L-6.91442953020134 36.70347468742547 L-6.91442953020134 36.43811935747623 L-7.493778321082427 37.56187264071408 z"/>
<path fill="#bababa" stroke="#bababa" d="M-8.761630059967025 39.26926362184109 L-8.761630059967025 39.401941286815706 L-8.015834919446673 37.95533476760991 L-8.015834919446675 37.8226571026353 z"/>
<path fill="#bababa" stroke="#bababa" d="M-8.873499331045078 39.39576516589988 L-8.87349933104508 39.35357693474734 L-19.208124999999995 59.39947969543147 L-19.208124999999992 59.6648350253807 L-8.87349933104508 39.618932264696575 z"/>
<path fill="#bababa" stroke="#bababa" d="M-9.606223968495408 37.42021749756528 L-20.763422818791945 59.061651875447126 L-19.45098039215686 59.39947969543146 L-19.208125 59.39947969543146 L-8.873499331045082 39.35357693474733 z"/>
<path fill="#bababa" stroke="#bababa" d="M-6.914429530201342 35.553601590978765 L-8.028335564480141 35.26687781583184 L-7.4937783210824325 36.67735487421662 z"/>
<path fill="#bababa" stroke="#bababa" d="M-8.748559556897 35.88929766545325 L-8.748559556896998 36.77381543195071 L-9.494354697417352 38.2204219511565 L-9.494354697417354 38.08774428618188 L-9.606223968495406 38.30473526406276 L-9.606223968495408 38.570090594011994 L-20.763422818791938 60.21152497189384 L-20.76342281879194 59.06165187544714 L-9.606223968495403 37.42021749756529 L-9.606223968495405 37.68557282751453 L-9.494354697417352 37.46858184963366 L-9.494354697417354 37.335904184659036 z"/>
<path fill="#bababa" stroke="#bababa" d="M-7.090604026845637 36.525449017136225 L-8.028335564480141 36.28407324730392 L-7.57832347155747 37.47147037062922 z"/>
<path fill="#bababa" stroke="#bababa" d="M-9.461176703779579 38.82013309940261 L-9.521678818020371 38.66049286409684 L-20.587248322147648 60.12419531223383 L-19.45098039215686 60.416675126903534 L-19.40767857142857 60.416675126903534 L-8.958044481520119 40.14769243115994 z"/>
<path fill="#bababa" stroke="#bababa" d="M-19.45098039215686 59.39947969543147 L-19.45098039215686 59.53215736040608 L-19.40767857142857 59.53215736040608 L-19.40767857142857 59.664835025380704 L-19.208125 59.664835025380704 L-19.208125 59.39947969543147 z"/>
<path fill="#bababa" stroke="#bababa" d="M-19.40767857142857 60.28399746192893 L-19.40767857142857 60.41667512690354 L-19.45098039215686 60.41667512690354 L-19.45098039215686 60.549352791878164 L-19.208125 60.549352791878164 L-19.208125 60.28399746192893 z"/>
<path fill="#bababa" stroke="#bababa" d="M-7.497724028397275 36.93229910280033 L-7.57832347155747 36.719630269106375 L-7.090604026845637 35.77360891561339 L-6.914429530201342 35.818956920927995 L-7.4937783210824325 36.94271020416584 z"/>
<path fill="#bababa" stroke="#bababa" d="M-19.407596257780757 59.664835025380704 L-19.40767857142857 59.664835025380704 L-8.958044481520119 39.39585232963711 L-8.873499331045082 39.618932264696575 L-19.208125 59.664835025380704 z"/>
<path fill="#bababa" stroke="#bababa" d="M-8.846175210442066 39.178861351756225 L-8.100380069921716 37.73225483255043 L-8.015834919446679 37.95533476760991 L-8.761630059967029 39.40194128681569 z"/>
<path fill="#bababa" stroke="#bababa" d="M-8.958044481520115 39.263182946459416 L-8.958044481520115 39.39585232963711 L-19.407678571428566 59.6648350253807 L-19.407678571428566 59.53215736040608 L-8.958044481520115 39.26317466466249 z"/>
<path fill="#bababa" stroke="#bababa" d="M-8.846175210442063 39.13366633296077 L-8.846175210442066 39.046183686781625 L-8.100380069921712 37.59957716757582 L-8.100380069921714 37.732254832550446 L-8.846175210442066 39.17886135175624 z"/>
<path fill="#bababa" stroke="#bababa" d="M-7.578323471557467 36.71963026910639 L-7.578323471557468 36.586952604131774 L-7.090604026845633 35.64093125063877 L-7.090604026845632 35.77360891561339 z"/>
<path fill="#bababa" stroke="#bababa" d="M-7.578323471557467 37.467013443239686 L-7.578323471557465 37.33879270565461 L-7.090604026845634 36.39277135216161 L-7.090604026845635 36.52544901713623 L-7.578323471557466 37.471470370629234 z"/>
<path fill="#bababa" stroke="#bababa" d="M-8.846175210442064 39.9146585142958 L-8.846175210442064 39.79802378830446 L-8.100380069921712 38.351417269098675 L-8.100380069921712 38.48409493407329 L-8.846175210442064 39.930701453279084 z"/>
<path fill="#bababa" stroke="#bababa" d="M-8.958044481520119 40.1275849266873 L-8.958044481520117 40.14769243115995 L-19.407678571428566 60.41667512690355 L-19.407678571428566 60.28399746192893 L-8.958044481520117 40.01501476618533 z"/>
<path fill="#bababa" stroke="#bababa" d="M-8.028335564480141 35.26687781583185 L-6.914429530201341 35.55360159097877 L-6.914429530201341 35.81895692092801 L-7.090604026845637 35.773608915613394 L-7.090604026845637 35.640931250638765 L-8.028335564480141 35.39955548080647 z"/>
<path fill="#bababa" stroke="#bababa" d="M-6.914429530201341 36.70347468742547 L-8.028335564480141 36.416750912278545 L-8.028335564480141 36.28407324730393 L-7.090604026845637 36.52544901713623 L-7.090604026845637 36.39277135216161 L-6.914429530201341 36.43811935747623 z"/>
<path fill="#bababa" stroke="#bababa" d="M-19.45098039215686 59.39947969543146 L-20.763422818791945 59.061651875447126 L-20.763422818791945 60.21152497189384 L-19.45098039215686 60.54935279187817 L-19.45098039215686 60.41667512690355 L-20.587248322147648 60.12419531223384 L-20.587248322147648 59.23967754573637 L-19.45098039215686 59.53215736040608 z"/>
<path fill="#bababa" stroke="#bababa" d="M-21 61.43241116751268 L-21 60.547893401015216 L-0.7495065789473684 60.547893401015216 L-0.7495065789473684 61.43241116751268 z"/>
<path fill="#bababa" stroke="#bababa" d="M-0.024671052631578944 61.43137202539979 L-0.024671052631578944 61.43241116751268 L-0.6972339675828048 61.43241116751268 L-0.6972339675828048 60.547893401015216 L-0.024671052631578944 60.547893401015216 z"/>
<path fill="#bababa" stroke="#bababa" d="M-0.8760956246809053 60.43916931085064 L-0.8818498978897208 60.44025815240865 L-0.8818498978897208 61.59013124885536 L-0.7007317903335601 61.555859514570145 L-0.7007317903335601 61.42318184959552 L-0.7495065789473684 61.43241116751268 L-0.7495065789473684 60.547893401015216 L-0.7007317903335601 60.53866408309806 L-0.7007317903335601 60.40598641812345 z"/>
<path fill="#bababa" stroke="#bababa" d="M-1.072583390061266 59.69017807099686 L-1.0821881606765327 59.6648350253807 L-0.9386513157894736 59.6648350253807 z"/>
<path fill="#bababa" stroke="#bababa" d="M-1.226083509513742 59.79732233502536 L-21 59.79732233502536 L-21 59.6648350253807 L-1.2762949260042282 59.6648350253807 z"/>
<path fill="#bababa" stroke="#bababa" d="M0 59.79732233502536 L-0.18914473684210525 59.79732233502536 L0 59.761531776864366 z"/>
<path fill="#bababa" stroke="#bababa" d="M-0.932547518507488 59.942469310764245 L-1.1081943498978895 59.975705753076255 L-1.1081943498978895 59.84302808810163 L-0.9270762423417289 59.80875635381642 L-0.9270762423417289 59.94143401879104 z"/>
<path fill="#bababa" stroke="#bababa" d="M-1.1081943498978895 60.860223519573715 L-0.9270762423417289 60.8259517852885 L-0.9270762423417289 60.958629450263125 L-1.1081943498978895 60.99290118454833 z"/>
<path fill="#bababa" stroke="#bababa" d="M-0.18914473684210525 60.52290031218413 L-0.18914473684210525 60.4164847715736 L0 60.380694213412596 L0 60.64604954336184 L-0.975578624914908 60.8306515793402 L-0.975578624914908 60.697973914365576 L-0.18914473684210525 60.549162436548215 z"/>
<path fill="#bababa" stroke="#bababa" d="M-0.18914473684210525 59.664644670050755 L-0.975578624914908 59.813456147868116 L-0.975578624914908 59.680778482893494 L0 59.496176446915136 L0 59.76153177686437 L-0.18914473684210525 59.79732233502537 z"/>
<path fill="#bababa" stroke="#bababa" d="M-0.9386513157894736 60.549352791878164 L-1.072583390061266 60.57469583749433 L-1.0821881606765327 60.549352791878164 z"/>
<path fill="#bababa" stroke="#bababa" d="M-1.1099626659292035 60.98823532467093 L-1.1081943498978897 60.99290118454833 L-0.927076242341729 60.95862945026312 L-0.9755786249149081 60.83065157934019 L0 60.646049543361826 L0 61.56042049881412 L-0.6522294077603812 61.68383738549308 L-0.7007317903335601 61.55585951457013 L-0.8818498978897208 61.59013124885534 L-0.841129316420014 61.69757614213196 L-21 61.69757614213196 L-21 60.549352791878164 L-1.2762949260042282 60.549352791878164 z"/>
<path fill="#bababa" stroke="#bababa" d="M-1.079606799407437 60.29080861432548 L-1.072583390061266 60.30934050754508 L-0.9386513157894736 60.28399746192892 L-1.0821881606765327 60.28399746192892 z"/>
<path fill="#bababa" stroke="#bababa" d="M-1.2266715239959154 60.4149332428134 L-1.2762949260042282 60.28399746192892 L-21 60.28399746192892 L-21 60.41648477157358 L-1.226083509513742 60.41648477157358 z"/>
<path fill="#bababa" stroke="#bababa" d="M-0.18914473684210525 60.41648477157358 L0 60.41648477157358 L0 60.380694213412596 z"/>
<path fill="#bababa" stroke="#bababa" d="M-1.072583390061266 59.69017807099687 L-0.9386513157894736 59.664835025380704 L-0.9386513157894736 59.39947969543146 L-1.072583390061266 59.42482274104763 z"/>
<path fill="#bababa" stroke="#bababa" d="M-1.072583390061266 60.309340507545095 L-1.072583390061266 60.57469583749433 L-0.9386513157894736 60.549352791878164 L-0.9386513157894736 60.28399746192893 z"/>
<path fill="#bababa" stroke="#bababa" d="M-1.072583390061268 60.309340507545095 L-1.0821881606765356 60.28399746192893 L-1.082188160676536 60.54935279187817 L-1.0725833900612682 60.57469583749434 z"/>
<path fill="#bababa" stroke="#bababa" d="M-0.9427435880392586 59.90009432702729 L-0.9270762423417329 59.94143401879105 L-0.927076242341732 59.80875635381643 L-0.975578624914911 59.680778482893494 L-0.9755786249149119 59.813456147868116 z"/>
<path fill="#bababa" stroke="#bababa" d="M-1.0725833900612691 59.69017807099687 L-1.072583390061269 59.42482274104763 L-1.0821881606765364 59.39947969543146 L-1.082188160676537 59.664835025380704 z"/>
<path fill="#bababa" stroke="#bababa" d="M-0.6522294077603843 61.68383738549308 L-0.6522294077603835 60.533964289046374 L-0.7007317903335625 60.40598641812344 L-0.7007317903335634 60.53866408309806 L-0.6972339675828075 60.547893401015216 L-0.6972339675828068 61.43241116751268 L-0.7007317903335625 61.42318184959553 L-0.7007317903335633 61.555859514570145 z"/>
<path fill="#bababa" stroke="#bababa" d="M-0.9746186819264827 60.7005068097276 L-0.975578624914911 60.697973914365576 L-0.9755786249149119 60.8306515793402 L-0.9270762423417329 60.95862945026313 L-0.927076242341732 60.82595178528851 z"/>
<path fill="#bababa" stroke="#bababa" d="M-0.5623427758941266 61.666828756125874 L0 61.56042049881413 L0 61.4277428338395 L-0.024671052631578944 61.432411167512676 L-0.024671052631578944 60.54789340101522 L0 60.54322506734205 L0 60.410547402367435 L-0.6522294077603812 60.53396428904638 L-0.6522294077603812 61.68383738549308 z"/>
<path fill="#bababa" stroke="#bababa" d="M-0.9741134487746766 59.817322146052234 L-0.9755786249149081 59.8134561478681 L-0.18914473684210525 59.664644670050734 L0 59.664644670050734 L0 60.54322506734202 L-0.024671052631578944 60.5478934010152 L-0.6972339675828048 60.5478934010152 L-0.7007317903335601 60.53866408309805 L-0.7495065789473684 60.5478934010152 L-21 60.5478934010152 L-21 59.664644670050734 L-1.226083509513742 59.664644670050734 L-1.1081943498978897 59.975705753076255 L-0.927076242341729 59.94143401879102 z"/>
<path fill="#bababa" stroke="#bababa" d="M-0.9386513157894736 59.6648350253807 L-1.0821881606765327 59.6648350253807 L-1.0821881606765327 59.39947969543146 L-0.9386513157894736 59.39947969543146 z"/>
<path fill="#bababa" stroke="#bababa" d="M-21 59.6648350253807 L-21 59.39947969543146 L-1.2762949260042282 59.39947969543146 L-1.2762949260042282 59.6648350253807 z"/>
<path fill="#bababa" stroke="#bababa" d="M-0.9386513157894736 60.549352791878164 L-1.0821881606765327 60.549352791878164 L-1.0821881606765327 60.28399746192893 L-0.9386513157894736 60.28399746192893 z"/>
<path fill="#bababa" stroke="#bababa" d="M-21 60.549352791878164 L-21 60.28399746192893 L-1.2762949260042282 60.28399746192893 L-1.2762949260042282 60.549352791878164 z"/>
<path fill="#bababa" stroke="#bababa" d="M-0.9386513157894736 59.39947969543147 L-1.0821881606765327 59.39947969543147 L-1.072583390061266 59.42482274104762 z"/>
<path fill="#bababa" stroke="#bababa" d="M-0.9755786249149081 59.680778482893494 L-0.927076242341729 59.80875635381641 L-1.1081943498978897 59.84302808810162 L-1.2762949260042282 59.39947969543147 L-21 59.39947969543147 L-21 60.54770304568526 L-0.841129316420014 60.54770304568526 L-0.8818498978897208 60.440258152408646 L-0.7007317903335601 60.40598641812345 L-0.6522294077603812 60.53396428904637 L0 60.410547402367406 L0 59.496176446915115 z"/>
<path fill="#bababa" stroke="#bababa" d="M-21 61.69757614213197 L-0.841129316420014 61.69757614213197 L-0.841129316420014 60.547703045685275 L-21 60.547703045685275 z"/>
<path fill="#bababa" stroke="#bababa" d="M-21 61.432411167512676 L-0.7495065789473684 61.432411167512676 L-0.7007317903335601 61.42318184959552 L-0.6972339675828048 61.432411167512676 L-0.024671052631578944 61.432411167512676 L0 61.4277428338395 L0 60.549162436548215 L-0.18914473684210525 60.549162436548215 L-0.9755786249149081 60.69797391436557 L-0.927076242341729 60.8259517852885 L-1.1081943498978897 60.86022351957372 L-1.226083509513742 60.549162436548215 L-21 60.549162436548215 z"/>
<path fill="#bababa" stroke="#bababa" d="M-21 59.79732233502538 L-1.226083509513742 59.79732233502538 L-1.226083509513742 59.66464467005075 L-21 59.66464467005075 z"/>
<path fill="#bababa" stroke="#bababa" d="M-21 60.549162436548215 L-1.226083509513742 60.549162436548215 L-1.226083509513742 60.41648477157359 L-21 60.41648477157359 z"/>
<path fill="#bababa" stroke="#bababa" d="M0 60.41648477157359 L-0.18914473684210525 60.41648477157359 L-0.18914473684210525 60.549162436548215 L0 60.549162436548215 z"/>
<path fill="#bababa" stroke="#bababa" d="M0 59.66464467005075 L-0.18914473684210525 59.66464467005075 L-0.18914473684210525 59.79732233502538 L0 59.79732233502538 z"/>
<path fill="#bababa" stroke="#bababa" d="M-21 60.283997461928934 L-21 60.54935279187817 L-21 61.69757614213198 L-21 60.547703045685275 L-21 59.39947969543147 L-21 59.664835025380704 L-21 59.79732233502538 L-21 59.664644670050755 L-21 60.54789340101522 L-21 61.43241116751269 L-21 60.54916243654822 L-21 60.4164847715736 z"/>
<path fill="#bababa" stroke="#bababa" d="M-1.1111247021783548 59.967973756708 L-1.226083509513745 59.664644670050755 L-1.2260835095137435 59.79732233502537 L-1.276294926004233 59.664835025380704 L-1.276294926004232 59.39947969543147 L-1.1081943498978934 59.84302808810164 L-1.1081943498978903 59.97570575307626 z"/>
<path fill="#bababa" stroke="#bababa" d="M-0.8818498978897239 61.59013124885535 L-0.8818498978897223 60.44025815240865 L-0.8411293164200161 60.547703045685275 L-0.8411293164200176 61.69757614213197 z"/>
<path fill="#bababa" stroke="#bababa" d="M-1.1099626659292066 60.988235324670946 L-1.276294926004235 60.549352791878164 L-1.276294926004234 60.28399746192893 L-1.2260835095137428 60.4164847715736 L-1.226083509513747 60.549162436548215 L-1.1081943498978923 60.860223519573715 L-1.108194349897895 60.992901184548344 z"/>
<path fill="#bababa" stroke="#bababa" d="M0 60.4164847715736 L0 60.54916243654822 L0 61.42774283383951 L0 61.56042049881413 L0 60.64604954336184 L0 60.3806942134126 z"/>
<path fill="#bababa" stroke="#bababa" d="M0 60.410547402367435 L0 60.54322506734205 L0 59.664644670050755 L0 59.79732233502538 L0 59.76153177686438 L0 59.49617644691514 z"/>
<path fill="#bababa" stroke="#bababa" d="M-8.748559556897003 -26.911463755866542 L-8.664014406421966 -26.68838382080708 L-9.409809546942318 -25.2417773016013 L-9.494354697417355 -25.464857236660766 z"/>
<path fill="#bababa" stroke="#bababa" d="M-8.364656451844688 -24.688571719563132 L-8.100380069921716 -25.201184253743985 L-8.015834919446679 -24.978104318684498 L-8.761630059967029 -23.531497799478718 L-8.846175210442066 -23.75457773453818 z"/>
<path fill="#bababa" stroke="#bababa" d="M-9.494354697417355 -26.349375003158226 L-9.409809546942318 -26.126295068098745 L-8.664014406421966 -27.572901587304557 L-8.748559556897003 -27.795981522364016 z"/>
<path fill="#bababa" stroke="#bababa" d="M-8.100380069921716 -26.085702020241428 L-8.846175210442066 -24.639095501035637 L-8.761630059967029 -24.416015565976178 L-8.015834919446679 -25.862622085181968 z"/>
<path fill="#bababa" stroke="#bababa" d="M-7.493778321082435 -27.006857290345042 L-7.493778321082436 -27.00792431360063 L-8.028335564480143 -28.4184013719854 L-8.028335564480145 -28.28572370701078 L-7.578323471557472 -27.098326583685477 L-7.578323471557474 -26.965648918710855 L-7.493778321082434 -26.74256898365139 z"/>
<path fill="#bababa" stroke="#bababa" d="M-7.907191289153307 -26.948878278810422 L-7.493778321082436 -25.85805121715393 L-7.4937783210824325 -26.12340654710317 L-7.578323471557472 -26.346486482162636 L-7.578323471557474 -26.213808817188013 L-8.028335564480145 -27.401205940513318 L-8.028335564480141 -27.2685282755387 z"/>
<path fill="#bababa" stroke="#bababa" d="M-9.565005163695702 -26.079657795351665 L-9.606223968495408 -25.999706360302724 L-9.521678818020371 -25.776626425243272 L-9.409809546942318 -25.993617403124126 L-9.494354697417355 -26.216697338183607 z"/>
<path fill="#bababa" stroke="#bababa" d="M-9.409809546942318 -25.374454966575904 L-9.521678818020371 -25.157463988695046 L-9.606223968495408 -25.380543923754523 L-9.494354697417355 -25.59753490163538 z"/>
<path fill="#bababa" stroke="#bababa" d="M-8.94513554092509 -23.63620302824097 L-8.873499331045085 -23.44718448657245 L-8.873499331045084 -23.18182915662321 L-9.606223968495408 -25.115188593805257 L-9.60622396849541 -25.380543923754498 L-9.521678818020373 -25.157463988695028 L-9.521678818020371 -25.02478632372041 L-8.958044481520123 -23.537586756657294 L-8.95804448152012 -23.670264421631916 z"/>
<path fill="#bababa" stroke="#bababa" d="M-9.521678818020373 -25.819103442783128 L-9.521678818020373 -25.776626425243254 L-9.606223968495408 -25.99970636030272 L-9.606223968495408 -26.26506169025196 L-8.873499331045084 -24.33170225306991 L-8.873499331045084 -24.066346923120673 L-8.958044481520124 -24.28942685818014 L-8.958044481520123 -24.422104523154758 L-9.52167881802037 -25.909304090217873 z"/>
<path fill="#bababa" stroke="#bababa" d="M-8.015834919446679 -25.110781983659113 L-8.015834919446679 -24.97810431868449 L-8.100380069921716 -25.20118425374396 L-8.10038006992172 -25.333861918718576 z"/>
<path fill="#bababa" stroke="#bababa" d="M-8.01583491944668 -25.729944420207335 L-8.100380069921716 -25.953024355266802 L-8.100380069921716 -26.08570202024142 L-8.015834919446679 -25.862622085181954 z"/>
<path fill="#bababa" stroke="#bababa" d="M-8.664014406421966 -27.544266458417155 L-8.664014406421972 -26.688383820807076 L-8.748559556897007 -26.91146375586654 L-8.748559556897007 -27.795981522364002 L-8.664014406421972 -27.572901587304536 z"/>
<path fill="#bababa" stroke="#bababa" d="M-9.409809546942318 -26.042253972645845 L-9.40980954694232 -26.12629506809874 L-9.494354697417357 -26.349375003158208 L-9.49435469741736 -26.21669733818359 L-9.409809546942324 -25.993617403124123 z"/>
<path fill="#bababa" stroke="#bababa" d="M-9.409809546942324 -25.290413871123004 L-9.409809546942318 -25.3744549665759 L-9.494354697417355 -25.597534901635367 L-9.494354697417359 -25.464857236660748 L-9.409809546942322 -25.24177730160128 z"/>
<path fill="#bababa" stroke="#bababa" d="M-8.834011284400118 -23.855159793599736 L-8.84617521044207 -23.887255399512785 L-8.846175210442073 -23.754577734538167 L-8.761630059967034 -23.5314977994787 L-8.76163005996703 -23.66417546445332 z"/>
<path fill="#bababa" stroke="#bababa" d="M-8.761630059967034 -24.328016687188075 L-8.761630059967032 -24.41601556597616 L-8.846175210442071 -24.639095501035627 L-8.846175210442068 -24.506417836061008 L-8.76163005996703 -24.28333790100154 z"/>
<path fill="#bababa" stroke="#bababa" d="M-8.873499331045082 -23.447184486572453 L-8.958044481520119 -23.67026442163192 L-19.40767857142857 -3.4012817258883308 L-19.208125 -3.4012817258883308 z"/>
<path fill="#bababa" stroke="#bababa" d="M-8.834011284400118 -23.855159793599743 L-8.761630059967029 -23.664175464453322 L-8.015834919446679 -25.110781983659113 L-8.100380069921716 -25.333861918718597 L-8.846175210442066 -23.887255399512807 z"/>
<path fill="#bababa" stroke="#bababa" d="M-7.57494418206461 -26.33756992483939 L-7.4937783210824325 -26.12340654710317 L-6.914429530201342 -27.247159830341033 L-7.090604026845637 -27.292507835655652 L-7.57832347155747 -26.346486482162653 z"/>
<path fill="#bababa" stroke="#bababa" d="M-9.409809546942311 -25.3744549665759 L-9.409809546942313 -25.241777301601278 L-8.664014406421964 -26.688383820807072 L-8.664014406421964 -27.572901587304536 L-9.409809546942311 -26.12629506809874 L-9.409809546942313 -25.993617403124123 L-9.521678818020366 -25.776626425243254 L-9.521678818020364 -25.909304090217873 L-20.587248322147648 -4.445601642080876 L-20.58724832214764 -3.561083875583415 L-9.521678818020366 -25.024786323720413 L-9.521678818020364 -25.15746398869503 z"/>
<path fill="#bababa" stroke="#bababa" d="M-9.606223968495408 -25.11518859380529 L-8.873499331045082 -23.181829156623245 L-19.208125 -3.135926395939092 L-19.45098039215686 -3.135926395939092 L-20.763422818791945 -3.473754215923429 z"/>
<path fill="#bababa" stroke="#bababa" d="M-7.526142947337532 -25.943448175851696 L-8.028335564480141 -27.268528275538717 L-6.914429530201342 -26.9818045003918 L-7.4937783210824325 -25.85805121715396 z"/>
<path fill="#bababa" stroke="#bababa" d="M-7.599578803958366 -27.154410677746686 L-8.028335564480141 -28.285723707010806 L-7.090604026845637 -28.044347937178486 L-7.57832347155747 -27.0983265836855 z"/>
<path fill="#bababa" stroke="#bababa" d="M-20.587248322147648 -4.445601642080894 L-9.521678818020371 -25.909304090217876 L-8.958044481520119 -24.422104523154776 L-19.40767857142857 -4.1531218274111845 L-19.45098039215686 -4.1531218274111845 z"/>
<path fill="#bababa" stroke="#bababa" d="M-8.761630059967027 -23.66417546445332 L-8.761630059967027 -23.5314977994787 L-8.015834919446672 -24.978104318684494 L-8.015834919446673 -25.11078198365911 z"/>
<path fill="#bababa" stroke="#bababa" d="M-8.873499331045078 -23.44718448657245 L-19.208124999999995 -3.401281725888324 L-19.208124999999995 -3.1359263959390855 L-8.873499331045076 -23.181829156623213 z"/>
<path fill="#bababa" stroke="#bababa" d="M-7.493778321082427 -26.742568983651392 L-6.91442953020134 -27.866322266889238 L-6.91442953020134 -28.131677596838475 L-7.493778321082428 -27.00792431360063 z"/>
<path fill="#bababa" stroke="#bababa" d="M-7.493778321082425 -26.123406547103162 L-7.493778321082425 -25.858051217153925 L-6.914429530201336 -26.98180450039178 L-6.914429530201336 -27.24715983034102 z"/>
<path fill="#bababa" stroke="#bababa" d="M-8.761630059967022 -24.41601556597616 L-8.761630059967024 -24.283337901001538 L-8.015834919446677 -25.72994442020733 L-8.015834919446675 -25.862622085181954 z"/>
<path fill="#bababa" stroke="#bababa" d="M-8.873499331045075 -24.289514021917366 L-8.873499331045082 -24.331702253069906 L-19.208124999999992 -4.285799492385786 L-19.208124999999992 -4.020444162436547 L-8.87349933104508 -24.066346923120673 z"/>
<path fill="#bababa" stroke="#bababa" d="M-9.606223968495408 -26.265061690252 L-20.763422818791945 -4.623627312370122 L-19.45098039215686 -4.285799492385824 L-19.208125 -4.285799492385824 L-8.873499331045082 -24.33170225306993 z"/>
<path fill="#bababa" stroke="#bababa" d="M-8.028335564480141 -28.418401371985404 L-7.4937783210824325 -27.007924313600647 L-6.914429530201342 -28.13167759683852 z"/>
<path fill="#bababa" stroke="#bababa" d="M-8.748559556897002 -27.795981522364002 L-8.748559556896998 -26.911463755866542 L-9.494354697417352 -25.464857236660748 L-9.494354697417355 -25.597534901635367 L-9.606223968495408 -25.380543923754495 L-9.606223968495408 -25.115188593805257 L-20.763422818791934 -3.4737542159234143 L-20.763422818791934 -4.623627312370115 L-9.606223968495405 -26.265061690251958 L-9.606223968495405 -25.99970636030272 L-9.494354697417354 -26.216697338183593 L-9.494354697417355 -26.34937500315821 z"/>
<path fill="#bababa" stroke="#bababa" d="M-7.864123429027787 -26.96791754600626 L-7.57832347155747 -26.213808817188024 L-7.090604026845637 -27.159830170681023 L-8.028335564480141 -27.40120594051334 z"/>
<path fill="#bababa" stroke="#bababa" d="M-9.461176703779579 -24.865146088414658 L-9.521678818020371 -25.024786323720427 L-20.587248322147648 -3.561083875583419 L-19.45098039215686 -3.268604060913711 L-19.40767857142857 -3.268604060913711 L-8.958044481520119 -23.53758675665731 z"/>
<path fill="#bababa" stroke="#bababa" d="M-19.45098039215686 -4.285799492385786 L-19.45098039215686 -4.153121827411167 L-19.40767857142857 -4.153121827411167 L-19.40767857142857 -4.020444162436547 L-19.208125 -4.020444162436547 L-19.208125 -4.285799492385786 z"/>
<path fill="#bababa" stroke="#bababa" d="M-19.40767857142857 -3.4012817258883246 L-19.40767857142857 -3.268604060913705 L-19.45098039215686 -3.268604060913705 L-19.45098039215686 -3.1359263959390855 L-19.208125 -3.1359263959390855 L-19.208125 -3.4012817258883246 z"/>
<path fill="#bababa" stroke="#bababa" d="M-6.914429530201342 -27.866322266889263 L-7.4937783210824325 -26.742568983651395 L-7.57832347155747 -26.965648918710862 L-7.090604026845637 -27.91167027220387 z"/>
<path fill="#bababa" stroke="#bababa" d="M-19.407596257780757 -4.02044416243656 L-19.40767857142857 -4.02044416243656 L-8.958044481520119 -24.28942685818015 L-8.873499331045082 -24.066346923120687 L-19.208125 -4.02044416243656 z"/>
<path fill="#bababa" stroke="#bababa" d="M-8.846175210442066 -24.50641783606101 L-8.100380069921716 -25.95302435526681 L-8.015834919446679 -25.729944420207346 L-8.761630059967029 -24.28333790100155 z"/>
<path fill="#bababa" stroke="#bababa" d="M-8.958044481520117 -24.42209624135783 L-8.958044481520117 -24.28942685818014 L-19.407678571428566 -4.020444162436547 L-19.407678571428566 -4.153121827411167 L-8.958044481520117 -24.422104523154758 z"/>
<path fill="#bababa" stroke="#bababa" d="M-8.846175210442064 -24.55161285485648 L-8.84617521044206 -24.639095501035627 L-8.100380069921712 -26.08570202024142 L-8.100380069921712 -25.953024355266802 L-8.84617521044206 -24.506417836061008 z"/>
<path fill="#bababa" stroke="#bababa" d="M-7.578323471557468 -27.034384607845478 L-7.57832347155747 -27.098326583685477 L-7.090604026845631 -28.04434793717848 L-7.090604026845631 -27.91167027220386 L-7.57832347155747 -26.96564891871086 z"/>
<path fill="#bababa" stroke="#bababa" d="M-7.578323471557466 -26.21826574457756 L-7.578323471557468 -26.346486482162636 L-7.090604026845637 -27.292507835655638 L-7.090604026845637 -27.15983017068102 L-7.578323471557468 -26.213808817188013 z"/>
<path fill="#bababa" stroke="#bababa" d="M-8.846175210442066 -23.770620673521446 L-8.846175210442066 -23.887255399512785 L-8.10038006992171 -25.333861918718576 L-8.10038006992171 -25.201184253743957 L-8.846175210442066 -23.754577734538163 z"/>
<path fill="#bababa" stroke="#bababa" d="M-8.958044481520117 -23.557694261129953 L-8.958044481520115 -23.537586756657294 L-19.407678571428562 -3.2686040609137055 L-19.407678571428562 -3.401281725888324 L-8.958044481520115 -23.670264421631913 z"/>
<path fill="#bababa" stroke="#bababa" d="M-6.914429530201341 -26.981804500391778 L-8.028335564480141 -27.2685282755387 L-8.028335564480141 -27.401205940513314 L-7.090604026845637 -27.159830170681015 L-7.090604026845637 -27.292507835655638 L-6.914429530201341 -27.24715983034102 z"/>
<path fill="#bababa" stroke="#bababa" d="M-8.028335564480141 -28.4184013719854 L-6.914429530201341 -28.131677596838482 L-6.914429530201341 -27.86632226688924 L-7.090604026845637 -27.91167027220386 L-7.090604026845637 -28.044347937178475 L-8.028335564480141 -28.285723707010778 z"/>
<path fill="#bababa" stroke="#bababa" d="M-19.45098039215686 -4.285799492385786 L-20.763422818791945 -4.623627312370115 L-20.763422818791945 -3.473754215923415 L-19.45098039215686 -3.1359263959390864 L-19.45098039215686 -3.2686040609137055 L-20.587248322147648 -3.561083875583415 L-20.587248322147648 -4.445601642080877 L-19.45098039215686 -4.153121827411167 z"/>
<path fill="#bababa" stroke="#bababa" d="M-21 -2.252868020304568 L-21 -3.13738578680203 L-0.7495065789473684 -3.13738578680203 L-0.7495065789473684 -2.252868020304568 z"/>
<path fill="#bababa" stroke="#bababa" d="M-0.024671052631578944 -2.2539071624174642 L-0.024671052631578944 -2.252868020304568 L-0.6972339675828048 -2.252868020304568 L-0.6972339675828048 -3.13738578680203 L-0.024671052631578944 -3.13738578680203 z"/>
<path fill="#bababa" stroke="#bababa" d="M-0.9710264699448238 -3.395155598050384 L-1.072583390061266 -3.375938680272155 L-1.072583390061266 -3.1105833503229166 L-0.9386513157894736 -3.135926395939086 L-0.9386513157894736 -3.4012817258883246 z"/>
<path fill="#bababa" stroke="#bababa" d="M-1.072583390061266 -4.260456446769617 L-1.072583390061266 -3.9951011168203787 L-0.9386513157894736 -4.020444162436547 L-0.9386513157894736 -4.285799492385786 z"/>
<path fill="#bababa" stroke="#bababa" d="M-0.6522294077603811 -2.001441802324175 L0 -2.1248586890031227 L0 -2.2575363539777418 L-0.02467105263157894 -2.252868020304568 L-0.02467105263157894 -3.1373857868020303 L0 -3.142054120475204 L0 -3.274731785449823 L-0.6522294077603811 -3.1513148987708752 z"/>
<path fill="#bababa" stroke="#bababa" d="M-1.0664994522208984 -2.832945307073771 L-0.9270762423417289 -2.8593274025287405 L-0.9270762423417289 -2.7266497375541214 L-1.1081943498978895 -2.6923780032689106 L-1.1081943498978895 -2.8250556682435297 z"/>
<path fill="#bababa" stroke="#bababa" d="M-0.9270762423417289 -3.8765228340008218 L-0.9270762423417289 -3.7438451690262022 L-1.1081943498978895 -3.7095734347409914 L-1.1081943498978895 -3.842251099715611 z"/>
<path fill="#bababa" stroke="#bababa" d="M-1.2051991150442483 -3.0810114100893937 L-1.1081943498978903 -2.8250556682435297 L-1.10819434989789 -2.6923780032689106 L-1.27629492600423 -3.135926395939086 L-1.2762949260042311 -3.4012817258883246 L-1.2260835095137437 -3.2687944162436544 L-1.226083509513743 -3.136116751269035 z"/>
<path fill="#bababa" stroke="#bababa" d="M-1.1838782760381217 -3.90927223749365 L-1.226083509513745 -4.020634517766497 L-1.2260835095137446 -3.8879568527918775 L-1.276294926004232 -4.020444162436547 L-1.2762949260042284 -4.285799492385786 L-1.1081943498978928 -3.842251099715611 L-1.1081943498978923 -3.709573434740992 z"/>
<path fill="#bababa" stroke="#bababa" d="M-0.8589281736716761 -2.034666921171025 L-0.8818498978897229 -2.0951479389618957 L-0.8818498978897213 -3.2450210354085964 L-0.8411293164200165 -3.137576142131979 L-0.8411293164200181 -1.987703045685279 z"/>
<path fill="#bababa" stroke="#bababa" d="M-0.7424266880105513 -2.254207699391485 L-0.7495065789473683 -2.252868020304568 L-0.7495065789473683 -3.13738578680203 L-0.7007317903335601 -3.1466151047191873 L-0.7007317903335601 -3.279292769693807 L-0.8818498978897208 -3.245021035408596 L-0.8818498978897208 -2.0951479389618957 L-0.7007317903335601 -2.1294196732471065 L-0.7007317903335601 -2.262097338221726 z"/>
<path fill="#bababa" stroke="#bababa" d="M-1.0821881606765327 -3.135926395939127 L-0.9386513157894736 -3.135926395939127 L-1.072583390061266 -3.110583350322923 z"/>
<path fill="#bababa" stroke="#bababa" d="M0 -2.1248586890031365 L-0.6522294077603812 -2.001441802324214 L-0.7007317903335601 -2.129419673247123 L-0.8818498978897208 -2.095147938961911 L-0.841129316420014 -1.987703045685316 L-21 -1.987703045685316 L-21 -3.135926395939127 L-1.2762949260042282 -3.135926395939127 L-1.1081943498978897 -2.6923780032689435 L-0.927076242341729 -2.726649737554155 L-0.9755786249149081 -2.854627608477064 L0 -3.0392296444554256 z"/>
<path fill="#bababa" stroke="#bababa" d="M-1.226083509513742 -3.268794416243657 L-1.2762949260042282 -3.4012817258883414 L-21 -3.4012817258883414 L-21 -3.268794416243657 z"/>
<path fill="#bababa" stroke="#bababa" d="M-1.079606799407437 -3.3944705734917813 L-1.072583390061266 -3.3759386802721787 L-0.9386513157894736 -3.4012817258883414 L-1.0821881606765327 -3.4012817258883414 z"/>
<path fill="#bababa" stroke="#bababa" d="M0 -3.268794416243657 L0 -3.3045849744046687 L-0.18914473684210525 -3.268794416243657 z"/>
<path fill="#bababa" stroke="#bababa" d="M-1.07258339006127 -3.110583350322917 L-1.0725833900612685 -3.375938680272155 L-1.0821881606765391 -3.401281725888324 L-1.082188160676534 -3.135926395939086 z"/>
<path fill="#bababa" stroke="#bababa" d="M-1.0821881606765356 -4.020444162436547 L-1.0725833900612716 -3.9951011168203783 L-1.07258339006127 -4.260456446769617 L-1.082188160676534 -4.285799492385786 z"/>
<path fill="#bababa" stroke="#bababa" d="M-0.652229407760384 -2.001441802324175 L-0.652229407760384 -3.1513148987708752 L-0.700731790333565 -3.279292769693807 L-0.7007317903335658 -3.1466151047191877 L-0.6972339675828048 -3.13738578680203 L-0.69723396758281 -2.252868020304568 L-0.7007317903335643 -2.262097338221726 L-0.7007317903335649 -2.1294196732471065 z"/>
<path fill="#bababa" stroke="#bababa" d="M-0.9270762423417339 -2.7266497375541214 L-0.927076242341733 -2.8593274025287405 L-0.9755786249149141 -2.9873052734516725 L-0.9755786249149081 -2.8546276084770534 z"/>
<path fill="#bababa" stroke="#bababa" d="M-0.9377366618447933 -3.771973638572805 L-0.9270762423417346 -3.7438451690262022 L-0.9270762423417338 -3.8765228340008218 L-0.9755786249149081 -4.004500704923753 L-0.9755786249149089 -3.8718230399491342 z"/>
<path fill="#bababa" stroke="#bababa" d="M-1.1081943498978897 -3.7095734347410043 L-0.927076242341729 -3.743845169026233 L-0.9755786249149081 -3.871823039949157 L-0.18914473684210525 -4.020634517766525 L0 -4.020634517766525 L0 -3.142054120475205 L-0.024671052631578944 -3.137385786802053 L-0.6972339675828048 -3.137385786802053 L-0.7007317903335601 -3.146615104719212 L-0.7495065789473684 -3.137385786802053 L-21 -3.137385786802053 L-21 -4.020634517766525 L-1.226083509513742 -4.020634517766525 z"/>
<path fill="#bababa" stroke="#bababa" d="M-0.9386513157894736 -4.020444162436547 L-1.0821881606765327 -4.020444162436547 L-1.0821881606765327 -4.285799492385786 L-0.9386513157894736 -4.285799492385786 z"/>
<path fill="#bababa" stroke="#bababa" d="M-21 -4.020444162436547 L-21 -4.285799492385786 L-1.2762949260042282 -4.285799492385786 L-1.2762949260042282 -4.020444162436547 z"/>
<path fill="#bababa" stroke="#bababa" d="M-0.9386513157894736 -3.1359263959390855 L-1.0821881606765327 -3.1359263959390855 L-1.0821881606765327 -3.4012817258883246 L-0.9386513157894736 -3.4012817258883246 z"/>
<path fill="#bababa" stroke="#bababa" d="M-21 -3.1359263959390855 L-21 -3.4012817258883246 L-1.2762949260042282 -3.4012817258883246 L-1.2762949260042282 -3.1359263959390855 z"/>
<path fill="#bababa" stroke="#bababa" d="M-1.072583390061266 -4.2604564467696315 L-0.9386513157894736 -4.285799492385787 L-1.0821881606765327 -4.285799492385787 z"/>
<path fill="#bababa" stroke="#bababa" d="M-0.03469697971052805 -3.26816631452491 L0 -3.2747317854498443 L0 -4.189102740902134 L-0.9755786249149081 -4.004500704923759 L-0.927076242341729 -3.8765228340008355 L-1.1081943498978897 -3.8422510997156323 L-1.2762949260042282 -4.285799492385787 L-21 -4.285799492385787 L-21 -3.1375761421319894 L-0.841129316420014 -3.1375761421319894 L-0.8818498978897208 -3.245021035408603 L-0.7007317903335601 -3.279292769693834 L-0.6522294077603812 -3.151314898770883 z"/>
<path fill="#bababa" stroke="#bababa" d="M-0.841129316420014 -3.137576142131979 L-21 -3.137576142131979 L-21 -1.987703045685279 L-0.841129316420014 -1.987703045685279 z"/>
<path fill="#bababa" stroke="#bababa" d="M-21 -2.252868020304571 L-0.7495065789473684 -2.252868020304571 L-0.7007317903335601 -2.262097338221744 L-0.6972339675828048 -2.252868020304571 L-0.024671052631578944 -2.252868020304571 L0 -2.2575363539777427 L0 -3.136116751269048 L-0.18914473684210525 -3.136116751269048 L-0.9755786249149081 -2.9873052734516845 L-0.927076242341729 -2.859327402528757 L-1.1081943498978897 -2.825055668243532 L-1.226083509513742 -3.136116751269048 L-21 -3.136116751269048 z"/>
<path fill="#bababa" stroke="#bababa" d="M0 -3.923747410952877 L0 -3.8879568527918864 L-0.18914473684210525 -3.8879568527918864 z"/>
<path fill="#bababa" stroke="#bababa" d="M-1.072583390061266 -3.995101116820387 L-1.0821881606765327 -4.020444162436551 L-0.9386513157894736 -4.020444162436551 z"/>
<path fill="#bababa" stroke="#bababa" d="M-21 -3.8879568527918864 L-21 -4.020444162436551 L-1.2762949260042282 -4.020444162436551 L-1.226083509513742 -3.8879568527918864 z"/>
<path fill="#bababa" stroke="#bababa" d="M-21 -3.8879568527918775 L-1.226083509513742 -3.8879568527918775 L-1.226083509513742 -4.020634517766497 L-21 -4.020634517766497 z"/>
<path fill="#bababa" stroke="#bababa" d="M-21 -3.136116751269035 L-1.226083509513742 -3.136116751269035 L-1.226083509513742 -3.2687944162436544 L-21 -3.2687944162436544 z"/>
<path fill="#bababa" stroke="#bababa" d="M0 -3.136116751269035 L0 -3.2687944162436544 L-0.18914473684210525 -3.2687944162436544 L-0.18914473684210525 -3.136116751269035 z"/>
<path fill="#bababa" stroke="#bababa" d="M0 -4.020634517766497 L-0.18914473684210525 -4.020634517766497 L-0.18914473684210525 -3.8879568527918775 L0 -3.8879568527918775 z"/>
<path fill="#bababa" stroke="#bababa" d="M-21 -3.4012817258883246 L-21 -3.135926395939086 L-21 -1.9877030456852791 L-21 -3.1375761421319797 L-21 -4.285799492385786 L-21 -4.020444162436548 L-21 -3.887956852791878 L-21 -4.020634517766497 L-21 -3.1373857868020303 L-21 -2.252868020304568 L-21 -3.1361167512690353 L-21 -3.2687944162436544 z"/>
<path fill="#bababa" stroke="#bababa" d="M-0.7101902867597003 -3.922040650603159 L-0.975578624914908 -3.8718230399491347 L-0.975578624914908 -4.004500704923753 L0 -4.189102740902115 L0 -3.9237474109528763 L-0.18914473684210525 -3.887956852791878 L-0.18914473684210525 -4.020634517766497 z"/>
<path fill="#bababa" stroke="#bababa" d="M-0.18914473684210525 -3.136116751269035 L-0.18914473684210525 -3.2687944162436544 L0 -3.3045849744046527 L0 -3.039229644455414 L-0.975578624914908 -2.8546276084770534 L-0.975578624914908 -2.9873052734516725 z"/>
<path fill="#bababa" stroke="#bababa" d="M0 -3.2687944162436544 L0 -3.1361167512690353 L0 -2.257536353977742 L0 -2.1248586890031227 L0 -3.0392296444554145 L0 -3.304584974404653 z"/>
<path fill="#bababa" stroke="#bababa" d="M0 -4.020634517766497 L0 -3.887956852791878 L0 -3.9237474109528763 L0 -4.189102740902115 L0 -3.274731785449823 L0 -3.142054120475204 z"/>
<path fill="#bababa" stroke="#bababa" d="M-3.4143975493533016 -14.195441398029667 L-3.4143975493533025 -13.045568301582968 L-15.831007488087137 -45.8079032578535 L-15.831007488087135 -46.957776354300194 z"/>
<path fill="#bababa" stroke="#bababa" d="M-3.354024846834581 -13.05699221301137 L-3.414397549353301 -13.045568301582966 L-3.414397549353301 -14.195441398029667 L-3.354024846834581 -14.20686530945807 z"/>
<path fill="#bababa" stroke="#bababa" d="M-3.354024846834581 -14.206865309458095 L-3.414397549353301 -14.195441398029704 L-15.831007488087133 -46.957776354300215 L-15.770634785568413 -46.96920026572861 L-21.78493022464261 -62.83845626017216 L-23.35462049012934 -62.54143456303367 L-1.6255530973451326 -5.207348389560242 L-0.055862831858407076 -5.504370086698734 z"/>
<path fill="#bababa" stroke="#bababa" d="M-1.444434989788972 -4.976264793896198 L-1.6255530973451326 -4.9419930596110175 L-23.35462049012934 -62.276079233084424 L-23.173502382573176 -62.310350967369644 z"/>
<path fill="#bababa" stroke="#bababa" d="M-0.23698093941457204 -4.452902920941418 L-0.23698093941457582 -5.33742068743888 L-21.966048332198774 -62.67150686091231 L-21.966048332198774 -61.78698909441486 z"/>
<path fill="#bababa" stroke="#bababa" d="M-1.444434989788972 -4.2244246923733675 L-0.23698093941456772 -4.452902920941439 L-21.966048332198774 -61.786989094414864 L-23.173502382573176 -61.5585108658468 z"/>
<path fill="#bababa" stroke="#bababa" d="M-1.6255530973451349 -4.057475293113516 L-1.625553097345136 -4.322830623062755 L-23.35462049012934 -61.65691679653619 L-23.35462049012934 -61.39156146658695 z"/>
<path fill="#bababa" stroke="#bababa" d="M-1.6255530973451369 -4.9419930596109785 L-1.6255530973451329 -5.207348389560217 L-23.354620490129342 -62.54143456303365 L-23.35462049012934 -62.2760792330844 z"/>
<path fill="#bababa" stroke="#bababa" d="M-15.770634785568411 -46.9692002657286 L-15.831007488087131 -46.9577763543002 L-15.831007488087131 -45.8079032578535 L-15.770634785568411 -45.819327169281905 z"/>
<path fill="#bababa" stroke="#bababa" d="M-3.354024846834581 -13.056992213011378 L-0.055862831858407076 -4.354496990252028 L-1.6255530973451326 -4.057475293113534 L-23.35462049012934 -61.39156146658697 L-21.78493022464261 -61.68858316372546 L-15.770634785568413 -45.819327169281905 L-15.831007488087133 -45.807903257853525 L-3.414397549353301 -13.045568301582971 z"/>
<path fill="#bababa" stroke="#bababa" d="M-3.3540248468345837 -13.05699221301137 L-3.3540248468345863 -14.20686530945807 L-0.05586283185840734 -5.504370086698709 L-0.055862831858411614 -4.354496990252009 z"/>
<path fill="#bababa" stroke="#bababa" d="M-15.770634785568419 -45.819327169281905 L-21.78493022464261 -61.68858316372544 L-21.784930224642615 -62.838456260172144 L-15.770634785568415 -46.9692002657286 z"/>
<path fill="#bababa" stroke="#bababa" d="M-0.23698093941456772 -5.337420687438888 L-1.444434989788972 -5.108942458870818 L-23.173502382573176 -62.443028632344266 L-21.966048332198774 -62.67150686091233 z"/>
<path fill="#bababa" stroke="#bababa" d="M-1.6255530973451326 -4.322830623062786 L-1.444434989788972 -4.3571023573479675 L-23.173502382573176 -61.691188530821414 L-23.35462049012934 -61.656916796536194 z"/>
<path fill="#bababa" stroke="#bababa" d="M-1.4444349897889734 -4.357102357347966 L-1.4444349897889754 -4.224424692373346 L-23.17350238257318 -61.55851086584678 L-23.173502382573176 -61.69118853082139 z"/>
<path fill="#bababa" stroke="#bababa" d="M-1.4444349897889723 -5.108942458870808 L-1.4444349897889743 -4.976264793896189 L-23.17350238257318 -62.31035096736962 L-23.173502382573176 -62.44302863234424 z"/>
<path fill="#bababa" stroke="#bababa" d="M-23.354620490129335 -62.27607923308441 L-23.354620490129335 -62.541434563033654 L-21.78493022464261 -62.838456260172144 L-21.78493022464261 -61.68858316372545 L-23.354620490129335 -61.39156146658695 L-23.354620490129335 -61.656916796536194 L-23.173502382573176 -61.69118853082141 L-23.173502382573176 -61.55851086584678 L-21.96604833219877 -61.78698909441485 L-21.96604833219877 -62.67150686091232 L-23.173502382573176 -62.443028632344244 L-23.173502382573176 -62.31035096736962 z"/>
<path fill="#bababa" stroke="#bababa" d="M-1.6255530973451326 -5.207348389560217 L-1.6255530973451326 -4.9419930596109785 L-1.444434989788972 -4.976264793896189 L-1.444434989788972 -5.108942458870808 L-0.2369809394145677 -5.33742068743888 L-0.2369809394145677 -4.452902920941418 L-1.444434989788972 -4.224424692373346 L-1.444434989788972 -4.357102357347966 L-1.6255530973451326 -4.322830623062755 L-1.6255530973451326 -4.057475293113516 L-0.055862831858407076 -4.354496990252009 L-0.055862831858407076 -5.50437008669871 z"/>
<path fill="#bababa" stroke="#bababa" d="M-3.9075051055139567 48.18872943540444 L-3.4143975493533043 49.48983778978758 L-3.414397549353304 50.63971088623428 L-15.831007488087135 17.877375929963748 L-15.831007488087133 16.72750283351705 z"/>
<path fill="#bababa" stroke="#bababa" d="M-3.4143975493533008 50.63971088623428 L-3.4143975493533008 49.48983778978758 L-3.354024846834581 49.47841387835918 L-3.354024846834581 50.62828697480588 z"/>
<path fill="#bababa" stroke="#bababa" d="M-3.3856261833092236 49.484393581997466 L-3.414397549353301 49.489837789787586 L-15.831007488087133 16.727502833517047 L-15.770634785568413 16.716078922088634 L-21.78493022464261 0.8468229276451054 L-23.35462049012934 1.1438446247835967 L-1.6255530973451326 58.47793079825702 L-0.055862831858407076 58.18090910111853 L-3.354024846834581 49.47841387835917 z"/>
<path fill="#bababa" stroke="#bababa" d="M-1.444434989788972 58.70901439392105 L-1.6255530973451326 58.74328612820627 L-23.35462049012934 1.409199954732835 L-23.173502382573176 1.3749282204476245 z"/>
<path fill="#bababa" stroke="#bababa" d="M-0.2369809394145693 59.23237626687583 L-0.23698093941457266 58.34785850037837 L-21.966048332198774 1.0137723269049352 L-21.966048332198774 1.8982900934023972 z"/>
<path fill="#bababa" stroke="#bababa" d="M-1.444434989788972 59.460854495443904 L-0.23698093941456772 59.23237626687583 L-21.966048332198774 1.898290093402388 L-23.173502382573176 2.1267683219704585 z"/>
<path fill="#bababa" stroke="#bababa" d="M-1.6255530973451338 59.62780389470374 L-1.6255530973451349 59.3624485647545 L-23.35462049012934 2.0283623912810604 L-23.35462049012934 2.293717721230299 z"/>
<path fill="#bababa" stroke="#bababa" d="M-1.625553097345136 58.74328612820627 L-1.625553097345137 58.477930798257034 L-23.35462049012934 1.1438446247835987 L-23.354620490129342 1.409199954732837 z"/>
<path fill="#bababa" stroke="#bababa" d="M-15.831007488087131 16.727502833517047 L-15.831007488087131 17.877375929963748 L-15.770634785568411 17.865952018535346 L-15.770634785568411 16.716078922088645 z"/>
<path fill="#bababa" stroke="#bababa" d="M-3.414397549353301 50.639710886234276 L-3.354024846834581 50.62828697480587 L-0.055862831858407076 59.33078219756524 L-1.6255530973451326 59.62780389470371 L-23.35462049012934 2.2937177212302897 L-21.78493022464261 1.9966960240917953 L-15.770634785568413 17.865952018535335 L-15.831007488087133 17.877375929963744 z"/>
<path fill="#bababa" stroke="#bababa" d="M-3.3540248468345832 50.62828697480588 L-3.3540248468345832 49.47841387835918 L-0.055862831858411975 58.18090910111853 L-0.055862831858408984 59.330782197565235 z"/>
<path fill="#bababa" stroke="#bababa" d="M-15.770634785568415 17.865952018535342 L-21.784930224642615 1.9966960240918057 L-21.784930224642615 0.8468229276451054 L-15.770634785568415 16.716078922088645 z"/>
<path fill="#bababa" stroke="#bababa" d="M-0.23698093941456772 58.347858500378365 L-1.444434989788972 58.57633672894644 L-23.173502382573176 1.2422505554729921 L-21.966048332198774 1.0137723269049217 z"/>
<path fill="#bababa" stroke="#bababa" d="M-1.6255530973451326 59.36244856475449 L-1.444434989788972 59.32817683046928 L-23.173502382573176 1.9940906569958459 L-23.35462049012934 2.0283623912810564 z"/>
<path fill="#bababa" stroke="#bababa" d="M-1.4444349897889726 59.32817683046929 L-1.4444349897889746 59.460854495443904 L-23.17350238257318 2.1267683219704687 L-23.17350238257318 1.9940906569958499 z"/>
<path fill="#bababa" stroke="#bababa" d="M-1.444434989788977 58.576336728946444 L-1.4444349897889739 58.70901439392106 L-23.17350238257318 1.3749282204476265 L-23.17350238257318 1.242250555473007 z"/>
<path fill="#bababa" stroke="#bababa" d="M-23.354620490129335 1.409199954732837 L-23.354620490129335 1.1438446247835987 L-21.78493022464261 0.8468229276451057 L-21.78493022464261 1.996696024091806 L-23.354620490129335 2.293717721230299 L-23.354620490129335 2.0283623912810604 L-23.173502382573176 1.9940906569958499 L-23.173502382573176 2.1267683219704687 L-21.96604833219877 1.8982900934023972 L-21.96604833219877 1.0137723269049357 L-23.173502382573176 1.2422505554730074 L-23.173502382573176 1.3749282204476263 z"/>
<path fill="#bababa" stroke="#bababa" d="M-1.6255530973451326 58.477930798257034 L-1.6255530973451326 58.74328612820627 L-1.444434989788972 58.709014393921066 L-1.444434989788972 58.57633672894644 L-0.2369809394145677 58.347858500378365 L-0.2369809394145677 59.23237626687583 L-1.444434989788972 59.460854495443904 L-1.444434989788972 59.32817683046928 L-1.6255530973451326 59.36244856475449 L-1.6255530973451326 59.62780389470373 L-0.055862831858407076 59.33078219756524 L-0.055862831858407076 58.18090910111854 z"/>
<path fill="#bababa" stroke="#bababa" d="M-1.2051991150442476 -5.646112932932033 L-1.2051991150442476 79.2675926508243 L0.3644911504424778 78.97057095368581 L0.3644911504424778 -5.943134630070526 z"/>
<path fill="#bababa" stroke="#bababa" d="M-1.121085772634445 -5.936340409063107 L-1.121085772634445 78.97736517469323 L-1.3022038801906055 79.01163690897845 L-1.3022038801906055 -5.9020686747778965 z"/>
<path fill="#bababa" stroke="#bababa" d="M-0.18847855684139045 -6.890026572861126 L-0.1884785568413923 78.02367901089521 L0.1348706603131372 78.87686481704809 L0.1348706603131323 -6.036840766708247 z"/>
<path fill="#bababa" stroke="#bababa" d="M-1.395932607215793 -6.661548344293053 L-1.395932607215793 78.25215723946329 L-0.18847855684138867 78.02367901089521 L-0.18847855684138867 -6.890026572861125 z"/>
<path fill="#bababa" stroke="#bababa" d="M-1.6255530973451369 -6.755254480930775 L-1.625553097345136 78.15845110282555 L-1.5285483321987772 78.41440684467142 L-1.5285483321987818 -6.499298739084912 z"/>
<path fill="#bababa" stroke="#bababa" d="M-1.3022038801906104 -5.9020686747778965 L-1.3022038801906093 79.01163690897845 L-1.2051991150442505 79.2675926508243 L-1.2051991150442483 -5.646112932932033 z"/>
<path fill="#bababa" stroke="#bababa" d="M-0.05586283185840707 -7.052276178069269 L-0.05586283185840707 77.86142940568706 L-1.6255530973451326 78.15845110282555 L-1.6255530973451326 -6.755254480930775 z"/>
<path fill="#bababa" stroke="#bababa" d="M0.36449115044247066 -5.943134630070526 L0.364491150442473 78.9705709536858 L-0.05586283185840846 77.86142940568706 L-0.05586283185840869 -7.052276178069268 z"/>
<path fill="#bababa" stroke="#bababa" d="M0.13487066031313816 -6.036840766708247 L0.13487066031313816 78.87686481704809 L-1.072583390061266 79.10534304561615 L-1.072583390061266 -5.808362538140175 z"/>
<path fill="#bababa" stroke="#bababa" d="M-1.5285483321987745 -6.499298739084911 L-1.5285483321987745 78.41440684467142 L-1.3474302246426137 78.3801351103862 L-1.3474302246426137 -6.533570473370122 z"/>
<path fill="#bababa" stroke="#bababa" d="M-1.3474302246426177 -6.533570473370123 L-1.347430224642617 78.3801351103862 L-1.3959326072157945 78.25215723946327 L-1.3959326072157952 -6.661548344293053 z"/>
<path fill="#bababa" stroke="#bababa" d="M-1.072583390061269 -5.808362538140175 L-1.0725833900612678 79.10534304561617 L-1.121085772634449 78.97736517469323 L-1.1210857726344465 -5.936340409063107 z"/>
<path fill="#bababa" stroke="#bababa" d="M-1.3022038801906057 -5.9020686747779365 L-1.2051991150442476 -5.64611293293206 L0.3644911504424779 -5.943134630070551 L-0.055862831858407076 -7.052276178069289 L-1.6255530973451326 -6.755254480930798 L-1.5285483321987745 -6.499298739084922 L-1.347430224642614 -6.533570473370125 L-1.395932607215793 -6.661548344293086 L-0.18847855684138867 -6.89002657286117 L0.13487066031313819 -6.036840766708263 L-1.072583390061266 -5.808362538140179 L-1.1210857726344452 -5.93634040906314 z"/>
<path fill="#bababa" stroke="#bababa" d="M-1.2051991150442476 79.26759265082428 L-1.3022038801906057 79.01163690897843 L-1.1210857726344452 78.97736517469323 L-1.072583390061266 79.10534304561615 L0.13487066031313819 78.87686481704809 L-0.18847855684138867 78.0236790108952 L-1.395932607215793 78.25215723946326 L-1.347430224642614 78.3801351103862 L-1.5285483321987745 78.41440684467142 L-1.6255530973451326 78.15845110282555 L-0.055862831858407076 77.86142940568706 L0.3644911504424779 78.9705709536858 z"/>
<path fill="#bababa" stroke="#bababa" d="M-0.7848451327433628 -21.519712501684555 L-0.7848451327433628 63.39399308207178 L0.7848451327433628 63.09697138493329 L0.7848451327433628 -21.81673419882305 z"/>
<path fill="#bababa" stroke="#bababa" d="M-0.7007317903335601 -21.809939977815635 L-0.7007317903335601 63.103765605940694 L-0.8818498978897208 63.13803734022591 L-0.8818498978897208 -21.775668243530422 z"/>
<path fill="#bababa" stroke="#bababa" d="M0.23187542545949055 -22.76362614161365 L0.23187542545949436 62.150079442142676 L0.5552246426140208 63.00326524829556 L0.5552246426140192 -21.91044033546077 z"/>
<path fill="#bababa" stroke="#bababa" d="M-0.9755786249149079 -22.535147913045577 L-0.9755786249149079 62.37855767071076 L0.23187542545949621 62.15007944214269 L0.23187542545949621 -22.76362614161365 z"/>
<path fill="#bababa" stroke="#bababa" d="M-1.2051991150442536 -22.6288540496833 L-1.2051991150442496 62.284851534073034 L-1.1081943498978908 62.5408072759189 L-1.1081943498978912 -22.372898307837435 z"/>
<path fill="#bababa" stroke="#bababa" d="M-0.881849897889727 -21.77566824353042 L-0.8818498978897228 63.138037340225914 L-0.7848451327433641 63.39399308207178 L-0.7848451327433652 -21.51971250168456 z"/>
<path fill="#bababa" stroke="#bababa" d="M0.3644911504424778 -22.92587574682179 L0.3644911504424778 61.987829836934544 L-1.2051991150442476 62.284851534073034 L-1.2051991150442476 -22.628854049683298 z"/>
<path fill="#bababa" stroke="#bababa" d="M0.7848451327433563 -21.81673419882305 L0.7848451327433597 63.09697138493328 L0.3644911504424767 61.98782983693454 L0.3644911504424774 -22.92587574682179 z"/>
<path fill="#bababa" stroke="#bababa" d="M0.555224642614023 -21.91044033546077 L0.555224642614023 63.003265248295556 L-0.6522294077603811 63.23174347686363 L-0.6522294077603811 -21.681962106892698 z"/>
<path fill="#bababa" stroke="#bababa" d="M-1.1081943498978895 -22.372898307837435 L-1.1081943498978895 62.5408072759189 L-0.9270762423417289 62.50653554163369 L-0.9270762423417289 -22.407170042122647 z"/>
<path fill="#bababa" stroke="#bababa" d="M-0.9270762423417348 -22.407170042122647 L-0.9270762423417306 62.50653554163369 L-0.9755786249149118 62.378557670710755 L-0.9755786249149117 -22.535147913045577 z"/>
<path fill="#bababa" stroke="#bababa" d="M-0.6522294077603856 -21.681962106892698 L-0.6522294077603851 63.231743476863635 L-0.7007317903335626 63.1037656059407 L-0.7007317903335631 -21.80993997781563 z"/>
<path fill="#bababa" stroke="#bababa" d="M-0.8818498978897208 -21.775668243530458 L-0.7848451327433628 -21.519712501684584 L0.7848451327433628 -21.816734198823074 L0.3644911504424779 -22.925875746821813 L-1.2051991150442476 -22.62885404968332 L-1.1081943498978897 -22.372898307837445 L-0.927076242341729 -22.407170042122694 L-0.9755786249149081 -22.53514791304561 L0.23187542545949624 -22.763626141613692 L0.555224642614023 -21.910440335460784 L-0.6522294077603812 -21.6819621068927 L-0.7007317903335601 -21.809939977815663 z"/>
<path fill="#bababa" stroke="#bababa" d="M-0.7848451327433628 63.393993082071766 L-0.8818498978897208 63.138037340225914 L-0.7007317903335601 63.10376560594069 L-0.6522294077603812 63.23174347686363 L0.555224642614023 63.00326524829556 L0.23187542545949624 62.15007944214268 L-0.9755786249149081 62.37855767071074 L-0.927076242341729 62.50653554163368 L-1.1081943498978897 62.54080727591888 L-1.2051991150442476 62.28485153407303 L0.3644911504424779 61.98782983693454 L0.7848451327433628 63.096971384933276 z"/>
<path fill="#bababa" stroke="#bababa" d="M-23.77497447243022 -65.19848220240294 L-23.77497447243022 19.715223381353383 L-22.205284206943492 19.41820168421489 L-22.205284206943492 -65.49550389954143 z"/>
<path fill="#bababa" stroke="#bababa" d="M-23.69086113002042 -65.48870967853402 L-23.69086113002042 19.424995905222307 L-23.87197923757658 19.459267639507516 L-23.87197923757658 -65.45443794424881 z"/>
<path fill="#bababa" stroke="#bababa" d="M-22.758253914227367 -66.44239584233203 L-22.758253914227364 18.47130974142429 L-22.434904697072838 19.32449554757717 L-22.434904697072838 -65.58921003617917 z"/>
<path fill="#bababa" stroke="#bababa" d="M-23.96570796460177 -66.21391761376397 L-23.96570796460177 18.69978796999236 L-22.758253914227364 18.47130974142429 L-22.758253914227364 -66.44239584233203 z"/>
<path fill="#bababa" stroke="#bababa" d="M-24.195328454731108 -66.30762375040169 L-24.195328454731108 18.60608183335464 L-24.09832368958475 18.8620375752005 L-24.09832368958475 -66.05166800855582 z"/>
<path fill="#bababa" stroke="#bababa" d="M-23.871979237576582 -65.45443794424881 L-23.871979237576582 19.45926763950752 L-23.774974472430223 19.715223381353383 L-23.774974472430223 -65.19848220240296 z"/>
<path fill="#bababa" stroke="#bababa" d="M-22.62563818924438 -66.60464544754018 L-22.62563818924438 18.309060136216146 L-24.195328454731104 18.60608183335464 L-24.195328454731104 -66.30762375040169 z"/>
<path fill="#bababa" stroke="#bababa" d="M-22.2052842069435 -65.49550389954145 L-22.2052842069435 19.41820168421489 L-22.625638189244384 18.309060136216146 L-22.625638189244384 -66.6046454475402 z"/>
<path fill="#bababa" stroke="#bababa" d="M-22.434904697072835 -65.58921003617915 L-22.434904697072835 19.32449554757717 L-23.64235874744724 19.55297377614524 L-23.64235874744724 -65.36073180761109 z"/>
<path fill="#bababa" stroke="#bababa" d="M-24.09832368958475 -66.05166800855582 L-24.09832368958475 18.862037575200503 L-23.917205582028586 18.827765840915294 L-23.917205582028586 -66.08593974284103 z"/>
<path fill="#bababa" stroke="#bababa" d="M-23.91720558202859 -66.08593974284103 L-23.91720558202859 18.827765840915294 L-23.96570796460177 18.69978796999236 L-23.965707964601766 -66.21391761376397 z"/>
<path fill="#bababa" stroke="#bababa" d="M-23.642358747447243 -65.36073180761109 L-23.642358747447243 19.552973776145237 L-23.690861130020423 19.424995905222307 L-23.690861130020423 -65.48870967853402 z"/>
<path fill="#bababa" stroke="#bababa" d="M-23.871979237576582 -65.45443794424882 L-23.774974472430223 -65.19848220240297 L-22.205284206943496 -65.49550389954146 L-22.62563818924438 -66.60464544754021 L-24.195328454731108 -66.30762375040172 L-24.09832368958475 -66.05166800855584 L-23.91720558202859 -66.08593974284106 L-23.96570796460177 -66.21391761376398 L-22.758253914227364 -66.44239584233206 L-22.434904697072838 -65.58921003617918 L-23.64235874744724 -65.36073180761112 L-23.69086113002042 -65.48870967853404 z"/>
<path fill="#bababa" stroke="#bababa" d="M-23.774974472430223 19.715223381353372 L-23.871979237576582 19.45926763950751 L-23.69086113002042 19.424995905222303 L-23.64235874744724 19.552973776145233 L-22.434904697072838 19.324495547577158 L-22.758253914227364 18.471309741424285 L-23.96570796460177 18.699787969992357 L-23.91720558202859 18.827765840915287 L-24.09832368958475 18.8620375752005 L-24.195328454731108 18.606081833354637 L-22.62563818924438 18.309060136216143 L-22.205284206943496 19.418201684214882 z"/>
<path fill="#bababa" stroke="#bababa" d="M-23.35462049012934 -81.07208177115547 L-23.35462049012934 3.8416238126008575 L-21.78493022464261 3.544602115462364 L-21.78493022464261 -81.36910346829397 z"/>
<path fill="#bababa" stroke="#bababa" d="M-23.270507147719535 -81.36230924728655 L-23.270507147719535 3.551396336469783 L-23.451625255275694 3.5856680707549935 L-23.451625255275694 -81.32803751300133 z"/>
<path fill="#bababa" stroke="#bababa" d="M-22.33789993192648 -82.31599541108457 L-22.33789993192648 2.597710172671764 L-22.014550714771953 3.4508959788246427 L-22.014550714771957 -81.46280960493169 z"/>
<path fill="#bababa" stroke="#bababa" d="M-23.54535398230088 -82.08751718251649 L-23.54535398230088 2.8261884012398357 L-22.337899931926476 2.5977101726717637 L-22.337899931926476 -82.31599541108457 z"/>
<path fill="#bababa" stroke="#bababa" d="M-23.77497447243022 -82.18122331915421 L-23.774974472430223 2.7324822646021154 L-23.677969707283864 2.9884380064479785 L-23.677969707283868 -81.92526757730835 z"/>
<path fill="#bababa" stroke="#bababa" d="M-23.451625255275694 -81.32803751300133 L-23.451625255275697 3.585668070754994 L-23.35462049012934 3.841623812600857 L-23.35462049012934 -81.07208177115548 z"/>
<path fill="#bababa" stroke="#bababa" d="M-22.205284206943492 -82.47824501629272 L-22.205284206943492 2.4354605674636214 L-23.77497447243022 2.732482264602115 L-23.77497447243022 -82.18122331915421 z"/>
<path fill="#bababa" stroke="#bababa" d="M-21.784930224642615 -81.36910346829397 L-21.78493022464261 3.544602115462364 L-22.2052842069435 2.4354605674636214 L-22.2052842069435 -82.47824501629272 z"/>
<path fill="#bababa" stroke="#bababa" d="M-22.014550714771953 -81.46280960493168 L-22.014550714771953 3.450895978824643 L-23.22200476514635 3.6793742073927143 L-23.22200476514635 -81.23433137636361 z"/>
<path fill="#bababa" stroke="#bababa" d="M-23.67796970728386 -81.92526757730835 L-23.67796970728386 2.9884380064479785 L-23.4968515997277 2.9541662721627677 L-23.4968515997277 -81.95953931159356 z"/>
<path fill="#bababa" stroke="#bababa" d="M-23.4968515997277 -81.95953931159356 L-23.496851599727705 2.9541662721627677 L-23.545353982300885 2.826188401239836 L-23.545353982300885 -82.08751718251649 z"/>
<path fill="#bababa" stroke="#bababa" d="M-23.222004765146355 -81.23433137636361 L-23.22200476514636 3.6793742073927147 L-23.270507147719538 3.5513963364697827 L-23.270507147719535 -81.36230924728655 z"/>
<path fill="#bababa" stroke="#bababa" d="M-23.451625255275697 -81.32803751300135 L-23.35462049012934 -81.0720817711555 L-21.78493022464261 -81.36910346829399 L-22.205284206943496 -82.47824501629273 L-23.774974472430223 -82.18122331915424 L-23.677969707283864 -81.92526757730838 L-23.496851599727705 -81.95953931159359 L-23.545353982300885 -82.08751718251652 L-22.33789993192648 -82.31599541108459 L-22.014550714771953 -81.46280960493169 L-23.222004765146355 -81.23433137636364 L-23.270507147719535 -81.36230924728657 z"/>
<path fill="#bababa" stroke="#bababa" d="M-23.35462049012934 3.8416238126008513 L-23.451625255275697 3.585668070754986 L-23.270507147719535 3.5513963364697823 L-23.222004765146355 3.6793742073927094 L-22.014550714771953 3.4508959788246374 L-22.33789993192648 2.597710172671764 L-23.545353982300885 2.826188401239825 L-23.496851599727705 2.9541662721627633 L-23.677969707283864 2.988438006447978 L-23.774974472430223 2.7324822646021127 L-22.205284206943496 2.435460567463611 L-21.78493022464261 3.544602115462361 z"/>
<path fill="#e2c66c" stroke="#e2c66c" d="M-2.6899251191286586 -15.880434426541067 L-3.414397549353301 -15.743347489400223 L-3.414397549353301 52.18761697760484 L-2.6899251191286586 52.050530040464 z"/>
<path fill="#e2c66c" stroke="#e2c66c" d="M-15.10653505786249 -48.64276938281162 L-15.831007488087133 -48.505682445670786 L-3.414397549353301 -15.743347489400232 L-2.6899251191286586 -15.880434426541091 z"/>
<path fill="#e2c66c" stroke="#e2c66c" d="M-15.106535057862489 19.288195084193465 L-15.831007488087133 19.425282021334308 L-15.831007488087133 -48.50568244567076 L-15.106535057862489 -48.6427693828116 z"/>
<path fill="#e2c66c" stroke="#e2c66c" d="M-2.6899251191286586 52.050530040464 L-3.414397549353301 52.18761697760483 L-15.831007488087133 19.425282021334304 L-15.10653505786249 19.288195084193454 z"/>
<path fill="#e2c66c" stroke="#e2c66c" d="M-2.689925119128661 -15.880434426541068 L-2.6899251191286604 52.050530040464 L-15.10653505786249 19.288195084193465 L-15.10653505786249 -48.6427693828116 z"/>
<path fill="#e2c66c" stroke="#e2c66c" d="M-3.414397549353305 -15.743347489400225 L-15.831007488087137 -48.50568244567076 L-15.831007488087137 19.425282021334308 L-3.4143975493533043 52.18761697760485 z"/>
</svg>