<?xml version="1.0" encoding="UTF-8"?>
<!-- Generated by jsxcad -->
<!DOCTYPE svg PUBLIC "-//W3C//DTD SVG 1.1 Tiny//EN" "http://www.w3.org/Graphics/SVG/1.1/DTD/svg11-tiny.dtd">
<svg baseProfile="tiny" height="161.7458376671171mm" width="24.98017358747448mm" viewBox="-24.195328454731115 -79.26759265082433 24.98017358747448 161.7458376671171" version="1.1" stroke="black" stroke-width=".1" fill="none" xmlns="http://www.w3.org/2000/svg">
<path fill="#bababa" stroke="#bababa" d="M-20.75315789473684 60.54935279187817 L-22.28484513274336 60.2595221463546 L-12.972387678692987 35.68777092915169 L-11.402697413206262 35.98479262629019 L-20.712429527836502 60.54935279187817 z"/>
<path fill="#bababa" stroke="#bababa" d="M-20.712429527836502 60.28399746192892 L-11.402697413206262 35.71943729634095 L-11.583815520762423 35.68516556205574 L-20.896272974812796 60.256916779258646 L-20.75315789473684 60.28399746192892 z"/>
<path fill="#bababa" stroke="#bababa" d="M-22.103727025187197 59.276598449167736 L-22.1037270251872 60.161116215665196 L-12.791269571136825 35.589364998462294 L-12.791269571136823 34.70484723196483 z"/>
<path fill="#bababa" stroke="#bababa" d="M-20.896272974812796 59.505076677735794 L-22.1037270251872 59.276598449167736 L-12.791269571136826 34.70484723196482 L-11.583815520762423 34.93332546053289 z"/>
<path fill="#bababa" stroke="#bababa" d="M-20.712429527836502 60.30658514537885 L-20.712429527836502 60.549352791878164 L-11.402697413206258 35.984792626290194 L-11.402697413206258 35.719437296340956 L-20.7124295278365 60.28399746192893 z"/>
<path fill="#bababa" stroke="#bababa" d="M-20.7124295278365 59.42206737888139 L-20.712429527836502 59.664835025380704 L-11.40269741320626 35.100274859792734 L-11.40269741320626 34.83491952984349 L-20.7124295278365 59.39947969543146 z"/>
<path fill="#bababa" stroke="#bababa" d="M-12.972387678692987 34.53789783270499 L-22.28484513274336 59.109649049907894 L-20.75315789473684 59.39947969543147 L-20.712429527836502 59.39947969543147 L-11.402697413206262 34.83491952984349 z"/>
<path fill="#bababa" stroke="#bababa" d="M-22.284845132743357 60.2595221463546 L-22.284845132743357 59.1096490499079 L-12.972387678692982 34.537897832705 L-12.972387678692984 35.687770929151704 z"/>
<path fill="#bababa" stroke="#bababa" d="M-22.1037270251872 60.161116215665174 L-20.896272974812796 60.38959444423327 L-11.583815520762423 35.81784322703035 L-12.791269571136826 35.589364998462294 z"/>
<path fill="#bababa" stroke="#bababa" d="M-20.75315789473684 59.6648350253807 L-20.896272974812796 59.637754342710416 L-11.583815520762423 35.066003125507514 L-11.402697413206262 35.10027485979273 L-20.712429527836502 59.6648350253807 z"/>
<path fill="#bababa" stroke="#bababa" d="M-20.896272974812792 59.63775434271042 L-20.89627297481279 59.5050766777358 L-11.583815520762418 34.9333254605329 L-11.583815520762418 35.06600312550752 z"/>
<path fill="#bababa" stroke="#bababa" d="M-20.896272974812792 60.38959444423326 L-20.896272974812796 60.256916779258646 L-11.583815520762421 35.685165562055744 L-11.583815520762421 35.817843227030366 z"/>
<path fill="#bababa" stroke="#bababa" d="M-11.402697413206262 35.719437296340956 L-11.402697413206262 35.984792626290194 L-12.972387678692987 35.687770929151704 L-12.972387678692987 34.537897832705 L-11.402697413206262 34.834919529843496 L-11.402697413206262 35.100274859792734 L-11.583815520762421 35.06600312550752 L-11.583815520762421 34.933325460532906 L-12.791269571136825 34.704847231964834 L-12.791269571136825 35.589364998462294 L-11.583815520762421 35.817843227030366 L-11.583815520762421 35.685165562055744 z"/>
<path fill="#bababa" stroke="#bababa" d="M-20.75315789473684 59.664835025380704 L-20.712429527836502 59.664835025380704 L-20.712429527836502 59.39947969543147 L-20.75315789473684 59.39947969543147 z"/>
<path fill="#bababa" stroke="#bababa" d="M-20.75315789473684 60.31183649479026 L-20.75315789473684 60.549352791878164 L-20.712429527836502 60.549352791878164 L-20.712429527836502 60.28399746192893 L-20.75315789473684 60.28399746192893 z"/>
<path fill="#bababa" stroke="#bababa" d="M-20.753157894736837 59.4273187282928 L-20.753157894736837 59.39947969543147 L-22.284845132743357 59.10964904990791 L-22.284845132743357 60.259522146354605 L-20.753157894736837 60.549352791878164 L-20.753157894736837 60.28399746192893 L-20.896272974812796 60.25691677925865 L-20.896272974812796 60.38959444423327 L-22.1037270251872 60.161116215665196 L-22.1037270251872 59.276598449167736 L-20.896272974812796 59.50507667773581 L-20.896272974812796 59.63775434271043 L-20.753157894736837 59.664835025380704 z"/>
<path fill="#bababa" stroke="#bababa" d="M-22.5 60.54935279187816 L-1.5 60.54935279187816 L-1.5 61.697576142131965 L-22.5 61.697576142131965 z"/>
<path fill="#bababa" stroke="#bababa" d="M-22.5 60.4164847715736 L-1.5 60.4164847715736 L-1.5 60.28399746192892 L-22.5 60.28399746192892 z"/>
<path fill="#bababa" stroke="#bababa" d="M-22.5 60.54789340101522 L-1.5 60.54789340101522 L-1.5 61.43241116751268 L-22.5 61.43241116751268 z"/>
<path fill="#bababa" stroke="#bababa" d="M-22.5 59.66464467005075 L-1.5 59.66464467005075 L-1.5 60.547893401015216 L-22.5 60.547893401015216 z"/>
<path fill="#bababa" stroke="#bababa" d="M-22.5 59.39947969543147 L-1.5 59.39947969543147 L-1.5 59.664835025380704 L-22.5 59.664835025380704 z"/>
<path fill="#bababa" stroke="#bababa" d="M-22.5 60.28399746192893 L-1.5 60.28399746192893 L-1.5 60.549352791878164 L-22.5 60.549352791878164 z"/>
<path fill="#bababa" stroke="#bababa" d="M-22.5 60.54770304568525 L-1.5 60.54770304568525 L-1.5 59.39947969543145 L-22.5 59.39947969543145 z"/>
<path fill="#bababa" stroke="#bababa" d="M-22.5 61.69757614213197 L-1.5 61.69757614213197 L-1.5 60.54770304568527 L-22.5 60.54770304568527 z"/>
<path fill="#bababa" stroke="#bababa" d="M-22.5 61.43241116751268 L-1.5 61.43241116751268 L-1.5 60.549162436548215 L-22.5 60.549162436548215 z"/>
<path fill="#bababa" stroke="#bababa" d="M-22.5 59.664835025380704 L-1.5 59.664835025380704 L-1.5 59.79732233502536 L-22.5 59.79732233502536 z"/>
<path fill="#bababa" stroke="#bababa" d="M-22.5 59.79732233502537 L-1.5 59.79732233502537 L-1.5 59.664644670050755 L-22.5 59.664644670050755 z"/>
<path fill="#bababa" stroke="#bababa" d="M-22.5 60.549162436548215 L-1.5 60.549162436548215 L-1.5 60.41648477157359 L-22.5 60.41648477157359 z"/>
<path fill="#bababa" stroke="#bababa" d="M-22.5 60.283997461928934 L-22.5 60.54935279187817 L-22.5 61.69757614213198 L-22.5 60.547703045685275 L-22.5 59.39947969543147 L-22.5 59.664835025380704 L-22.5 59.79732233502538 L-22.5 59.664644670050755 L-22.5 60.54789340101522 L-22.5 61.43241116751269 L-22.5 60.54916243654822 L-22.5 60.4164847715736 z"/>
<path fill="#bababa" stroke="#bababa" d="M-1.5 60.54935279187817 L-1.5 60.283997461928934 L-1.5 60.4164847715736 L-1.5 60.54916243654822 L-1.5 61.43241116751269 L-1.5 60.54789340101522 L-1.5 59.664644670050755 L-1.5 59.79732233502538 L-1.5 59.664835025380704 L-1.5 59.39947969543147 L-1.5 60.547703045685275 L-1.5 61.69757614213198 z"/>
<path fill="#bababa" stroke="#bababa" d="M-10.147308844256518 -27.187735105530333 L-10.244362226920366 -27.443819129040882 L-10.083815520762423 -27.867435960786914 L-9.902697413206262 -27.83316422650169 z"/>
<path fill="#bababa" stroke="#bababa" d="M-10.147308844256518 -28.0722528720278 L-9.902697413206262 -28.717681992999157 L-10.083815520762423 -28.75195372728438 L-10.244362226920366 -28.328336895538346 z"/>
<path fill="#bababa" stroke="#bababa" d="M-19.396272974812796 -4.1802025100814575 L-20.6037270251872 -4.408680738649538 L-11.291269571136826 -28.980431955852442 L-10.638816927755286 -28.85697282783166 L-10.341415609584214 -28.07225287202779 z"/>
<path fill="#bababa" stroke="#bababa" d="M-10.244362226920366 -26.798973417045183 L-19.212429527836502 -3.135926395939103 L-19.25315789473684 -3.135926395939103 L-20.78484513274336 -3.425757041462657 L-11.472387678692987 -27.99750825866555 L-10.638816927755286 -27.839777396359576 z"/>
<path fill="#bababa" stroke="#bababa" d="M-10.244362226920366 -27.576496794015515 L-10.147308844256518 -27.320412770504948 L-9.902697413206262 -27.965841891476327 L-10.083815520762423 -28.000113625761525 z"/>
<path fill="#bababa" stroke="#bababa" d="M-10.341415609584214 -27.320412770504948 L-19.396272974812796 -3.4283624085586393 L-19.25315789473684 -3.4012817258883485 L-19.212429527836502 -3.4012817258883485 L-10.244362226920366 -27.064328746994416 z"/>
<path fill="#bababa" stroke="#bababa" d="M-10.244362226920366 -27.446106491125207 L-10.24436222692037 -27.44381912904087 L-10.14730884425652 -27.18773510553032 L-10.147308844256518 -27.320412770504937 L-10.24436222692037 -27.576496794015494 z"/>
<path fill="#bababa" stroke="#bababa" d="M-10.244362226920366 -28.32833689553833 L-10.244362226920366 -28.195659230563713 L-10.147308844256521 -27.939575207053164 L-10.14730884425652 -28.07225287202778 z"/>
<path fill="#bababa" stroke="#bababa" d="M-10.08381552076242 -28.000113625761504 L-10.083815520762421 -27.867435960786885 L-10.244362226920362 -27.443819129040875 L-10.244362226920366 -27.57649679401549 z"/>
<path fill="#bababa" stroke="#bababa" d="M-10.341415609584212 -27.21397467397184 L-10.34141560958421 -27.18773510553032 L-19.396272974812792 -3.2956847435839838 L-19.396272974812796 -3.4283624085586033 L-10.341415609584212 -27.320412770504937 z"/>
<path fill="#bababa" stroke="#bababa" d="M-19.39627297481279 -4.180202510081445 L-10.341415609584212 -28.07225287202778 L-10.34141560958421 -27.93957520705316 L-19.396272974812796 -4.047524845106826 z"/>
<path fill="#bababa" stroke="#bababa" d="M-10.244362226920364 -28.32833689553833 L-10.08381552076242 -28.751953727284345 L-10.083815520762421 -28.619276062309726 L-10.244362226920362 -28.195659230563717 z"/>
<path fill="#bababa" stroke="#bababa" d="M-20.603727025187197 -4.408680738649518 L-20.603727025187197 -3.5241629721520558 L-11.291269571136823 -28.095914189354957 L-11.291269571136823 -28.980431955852417 z"/>
<path fill="#bababa" stroke="#bababa" d="M-10.147308844256514 -27.240874845064788 L-10.14730884425651 -27.18773510553032 L-9.902697413206255 -27.833164226501676 L-9.90269741320626 -27.965841891476295 L-10.147308844256516 -27.320412770504937 z"/>
<path fill="#bababa" stroke="#bababa" d="M-19.212429527836502 -3.136004053565402 L-19.2124295278365 -3.1359263959390855 L-10.24436222692036 -26.79897341704515 L-10.244362226920362 -27.064328746994388 L-19.2124295278365 -3.401281725888324 z"/>
<path fill="#bababa" stroke="#bababa" d="M-10.244362226920364 -27.683494033557853 L-10.244362226920364 -27.948846513491848 L-19.212429527836502 -4.285799492385786 L-19.2124295278365 -4.020444162436547 L-10.24436222692036 -27.68349118354261 z"/>
<path fill="#bababa" stroke="#bababa" d="M-10.147308844256512 -28.07225287202778 L-10.147308844256514 -27.93957520705316 L-9.902697413206258 -28.585004328024517 L-9.902697413206257 -28.717681992999136 z"/>
<path fill="#bababa" stroke="#bababa" d="M-10.638816927755286 -28.989650492806298 L-11.472387678692987 -29.14738135511226 L-20.78484513274336 -4.575630137909363 L-19.25315789473684 -4.285799492385804 L-19.212429527836502 -4.285799492385804 L-10.244362226920366 -27.94884651349185 z"/>
<path fill="#bababa" stroke="#bababa" d="M-20.78484513274336 -3.425757041462647 L-20.784845132743357 -4.575630137909347 L-11.472387678692984 -29.147381355112245 L-11.472387678692986 -27.997508258665547 z"/>
<path fill="#bababa" stroke="#bababa" d="M-10.638816927755286 -27.97245506133419 L-11.291269571136826 -28.095914189354968 L-20.6037270251872 -3.524162972152067 L-19.396272974812796 -3.295684743583986 L-10.341415609584214 -27.187735105530347 z"/>
<path fill="#bababa" stroke="#bababa" d="M-10.083815520762423 -28.61927606230973 L-9.902697413206262 -28.58500432802454 L-10.147308844256518 -27.93957520705319 L-10.244362226920366 -28.19565923056372 z"/>
<path fill="#bababa" stroke="#bababa" d="M-19.396272974812796 -4.0475248451068335 L-10.341415609584214 -27.93957520705319 L-10.244362226920366 -27.68349118354263 L-19.212429527836502 -4.020444162436571 L-19.25315789473684 -4.020444162436571 z"/>
<path fill="#bababa" stroke="#bababa" d="M-10.341415609584214 -27.939575207053164 L-10.341415609584216 -28.072252872027782 L-10.638816927755288 -28.856972827831648 L-10.638816927755288 -28.989650492806266 L-10.24436222692037 -27.948846513491844 L-10.244362226920368 -27.68349118354261 z"/>
<path fill="#bababa" stroke="#bababa" d="M-10.272983257145242 -26.874492563063875 L-10.63881692775529 -27.839777396359565 L-10.638816927755286 -27.972455061334184 L-10.341415609584214 -27.18773510553032 L-10.341415609584216 -27.320412770504937 L-10.244362226920368 -27.064328746994384 L-10.244362226920366 -26.798973417045147 z"/>
<path fill="#bababa" stroke="#bababa" d="M-9.902697413206262 -27.833164226501673 L-10.083815520762421 -27.867435960786885 L-10.083815520762421 -28.0001136257615 L-9.902697413206262 -27.96584189147629 z"/>
<path fill="#bababa" stroke="#bababa" d="M-10.083815520762421 -28.75195372728435 L-9.902697413206262 -28.717681992999136 L-9.902697413206262 -28.585004328024517 L-10.083815520762421 -28.619276062309726 z"/>
<path fill="#bababa" stroke="#bababa" d="M-10.638816927755284 -28.989650492806266 L-10.638816927755284 -28.85697282783165 L-11.291269571136826 -28.98043195585242 L-11.291269571136826 -28.095914189354957 L-10.638816927755284 -27.972455061334188 L-10.638816927755284 -27.839777396359565 L-11.472387678692986 -27.997508258665544 L-11.472387678692986 -29.147381355112245 z"/>
<path fill="#bababa" stroke="#bababa" d="M-19.212429527836502 -4.020444162436547 L-19.212429527836502 -4.285799492385786 L-19.25315789473684 -4.285799492385786 L-19.25315789473684 -4.020444162436547 z"/>
<path fill="#bababa" stroke="#bababa" d="M-19.25315789473684 -3.373442693026983 L-19.25315789473684 -3.135926395939086 L-19.212429527836502 -3.135926395939086 L-19.212429527836502 -3.4012817258883246 L-19.25315789473684 -3.4012817258883246 z"/>
<path fill="#bababa" stroke="#bababa" d="M-19.253157894736837 -4.257960459524445 L-19.253157894736837 -4.285799492385785 L-20.78484513274336 -4.575630137909347 L-20.78484513274336 -3.4257570414626475 L-19.253157894736837 -3.1359263959390855 L-19.253157894736837 -3.401281725888324 L-19.396272974812792 -3.428362408558603 L-19.396272974812792 -3.2956847435839838 L-20.603727025187197 -3.5241629721520558 L-20.603727025187197 -4.408680738649517 L-19.396272974812792 -4.180202510081445 L-19.396272974812792 -4.047524845106826 L-19.253157894736837 -4.020444162436547 z"/>
<path fill="#bababa" stroke="#bababa" d="M-21 -2.252868020304568 L-21 -3.13738578680203 L-0.7495065789473684 -3.13738578680203 L-0.7495065789473684 -2.252868020304568 z"/>
<path fill="#bababa" stroke="#bababa" d="M-0.024671052631578944 -2.2539071624174642 L-0.024671052631578944 -2.252868020304568 L-0.6972339675828048 -2.252868020304568 L-0.6972339675828048 -3.13738578680203 L-0.024671052631578944 -3.13738578680203 z"/>
<path fill="#bababa" stroke="#bababa" d="M-0.9710264699448238 -3.395155598050384 L-1.072583390061266 -3.375938680272155 L-1.072583390061266 -3.1105833503229166 L-0.9386513157894736 -3.135926395939086 L-0.9386513157894736 -3.4012817258883246 z"/>
<path fill="#bababa" stroke="#bababa" d="M-1.072583390061266 -4.260456446769617 L-1.072583390061266 -3.9951011168203787 L-0.9386513157894736 -4.020444162436547 L-0.9386513157894736 -4.285799492385786 z"/>
<path fill="#bababa" stroke="#bababa" d="M-0.6522294077603811 -2.001441802324175 L0 -2.1248586890031227 L0 -2.2575363539777418 L-0.02467105263157894 -2.252868020304568 L-0.02467105263157894 -3.1373857868020303 L0 -3.142054120475204 L0 -3.274731785449823 L-0.6522294077603811 -3.1513148987708752 z"/>
<path fill="#bababa" stroke="#bababa" d="M-1.0664994522208984 -2.832945307073771 L-0.9270762423417289 -2.8593274025287405 L-0.9270762423417289 -2.7266497375541214 L-1.1081943498978895 -2.6923780032689106 L-1.1081943498978895 -2.8250556682435297 z"/>
<path fill="#bababa" stroke="#bababa" d="M-0.9270762423417289 -3.8765228340008218 L-0.9270762423417289 -3.7438451690262022 L-1.1081943498978895 -3.7095734347409914 L-1.1081943498978895 -3.842251099715611 z"/>
<path fill="#bababa" stroke="#bababa" d="M-1.2051991150442483 -3.0810114100893937 L-1.1081943498978903 -2.8250556682435297 L-1.10819434989789 -2.6923780032689106 L-1.27629492600423 -3.135926395939086 L-1.2762949260042311 -3.4012817258883246 L-1.2260835095137437 -3.2687944162436544 L-1.226083509513743 -3.136116751269035 z"/>
<path fill="#bababa" stroke="#bababa" d="M-1.1838782760381217 -3.90927223749365 L-1.226083509513745 -4.020634517766497 L-1.2260835095137446 -3.8879568527918775 L-1.276294926004232 -4.020444162436547 L-1.2762949260042284 -4.285799492385786 L-1.1081943498978928 -3.842251099715611 L-1.1081943498978923 -3.709573434740992 z"/>
<path fill="#bababa" stroke="#bababa" d="M-0.8589281736716761 -2.034666921171025 L-0.8818498978897229 -2.0951479389618957 L-0.8818498978897213 -3.2450210354085964 L-0.8411293164200165 -3.137576142131979 L-0.8411293164200181 -1.987703045685279 z"/>
<path fill="#bababa" stroke="#bababa" d="M-0.7424266880105513 -2.254207699391485 L-0.7495065789473683 -2.252868020304568 L-0.7495065789473683 -3.13738578680203 L-0.7007317903335601 -3.1466151047191873 L-0.7007317903335601 -3.279292769693807 L-0.8818498978897208 -3.245021035408596 L-0.8818498978897208 -2.0951479389618957 L-0.7007317903335601 -2.1294196732471065 L-0.7007317903335601 -2.262097338221726 z"/>
<path fill="#bababa" stroke="#bababa" d="M-1.0821881606765327 -3.135926395939127 L-0.9386513157894736 -3.135926395939127 L-1.072583390061266 -3.110583350322923 z"/>
<path fill="#bababa" stroke="#bababa" d="M0 -2.1248586890031365 L-0.6522294077603812 -2.001441802324214 L-0.7007317903335601 -2.129419673247123 L-0.8818498978897208 -2.095147938961911 L-0.841129316420014 -1.987703045685316 L-21 -1.987703045685316 L-21 -3.135926395939127 L-1.2762949260042282 -3.135926395939127 L-1.1081943498978897 -2.6923780032689435 L-0.927076242341729 -2.726649737554155 L-0.9755786249149081 -2.854627608477064 L0 -3.0392296444554256 z"/>
<path fill="#bababa" stroke="#bababa" d="M-1.226083509513742 -3.268794416243657 L-1.2762949260042282 -3.4012817258883414 L-21 -3.4012817258883414 L-21 -3.268794416243657 z"/>
<path fill="#bababa" stroke="#bababa" d="M-1.079606799407437 -3.3944705734917813 L-1.072583390061266 -3.3759386802721787 L-0.9386513157894736 -3.4012817258883414 L-1.0821881606765327 -3.4012817258883414 z"/>
<path fill="#bababa" stroke="#bababa" d="M0 -3.268794416243657 L0 -3.3045849744046687 L-0.18914473684210525 -3.268794416243657 z"/>
<path fill="#bababa" stroke="#bababa" d="M-1.07258339006127 -3.110583350322917 L-1.0725833900612685 -3.375938680272155 L-1.0821881606765391 -3.401281725888324 L-1.082188160676534 -3.135926395939086 z"/>
<path fill="#bababa" stroke="#bababa" d="M-1.0821881606765356 -4.020444162436547 L-1.0725833900612716 -3.9951011168203783 L-1.07258339006127 -4.260456446769617 L-1.082188160676534 -4.285799492385786 z"/>
<path fill="#bababa" stroke="#bababa" d="M-0.652229407760384 -2.001441802324175 L-0.652229407760384 -3.1513148987708752 L-0.700731790333565 -3.279292769693807 L-0.7007317903335658 -3.1466151047191877 L-0.6972339675828048 -3.13738578680203 L-0.69723396758281 -2.252868020304568 L-0.7007317903335643 -2.262097338221726 L-0.7007317903335649 -2.1294196732471065 z"/>
<path fill="#bababa" stroke="#bababa" d="M-0.9270762423417339 -2.7266497375541214 L-0.927076242341733 -2.8593274025287405 L-0.9755786249149141 -2.9873052734516725 L-0.9755786249149081 -2.8546276084770534 z"/>
<path fill="#bababa" stroke="#bababa" d="M-0.9377366618447933 -3.771973638572805 L-0.9270762423417346 -3.7438451690262022 L-0.9270762423417338 -3.8765228340008218 L-0.9755786249149081 -4.004500704923753 L-0.9755786249149089 -3.8718230399491342 z"/>
<path fill="#bababa" stroke="#bababa" d="M-1.1081943498978897 -3.7095734347410043 L-0.927076242341729 -3.743845169026233 L-0.9755786249149081 -3.871823039949157 L-0.18914473684210525 -4.020634517766525 L0 -4.020634517766525 L0 -3.142054120475205 L-0.024671052631578944 -3.137385786802053 L-0.6972339675828048 -3.137385786802053 L-0.7007317903335601 -3.146615104719212 L-0.7495065789473684 -3.137385786802053 L-21 -3.137385786802053 L-21 -4.020634517766525 L-1.226083509513742 -4.020634517766525 z"/>
<path fill="#bababa" stroke="#bababa" d="M-0.9386513157894736 -4.020444162436547 L-1.0821881606765327 -4.020444162436547 L-1.0821881606765327 -4.285799492385786 L-0.9386513157894736 -4.285799492385786 z"/>
<path fill="#bababa" stroke="#bababa" d="M-21 -4.020444162436547 L-21 -4.285799492385786 L-1.2762949260042282 -4.285799492385786 L-1.2762949260042282 -4.020444162436547 z"/>
<path fill="#bababa" stroke="#bababa" d="M-0.9386513157894736 -3.1359263959390855 L-1.0821881606765327 -3.1359263959390855 L-1.0821881606765327 -3.4012817258883246 L-0.9386513157894736 -3.4012817258883246 z"/>
<path fill="#bababa" stroke="#bababa" d="M-21 -3.1359263959390855 L-21 -3.4012817258883246 L-1.2762949260042282 -3.4012817258883246 L-1.2762949260042282 -3.1359263959390855 z"/>
<path fill="#bababa" stroke="#bababa" d="M-1.072583390061266 -4.2604564467696315 L-0.9386513157894736 -4.285799492385787 L-1.0821881606765327 -4.285799492385787 z"/>
<path fill="#bababa" stroke="#bababa" d="M-0.03469697971052805 -3.26816631452491 L0 -3.2747317854498443 L0 -4.189102740902134 L-0.9755786249149081 -4.004500704923759 L-0.927076242341729 -3.8765228340008355 L-1.1081943498978897 -3.8422510997156323 L-1.2762949260042282 -4.285799492385787 L-21 -4.285799492385787 L-21 -3.1375761421319894 L-0.841129316420014 -3.1375761421319894 L-0.8818498978897208 -3.245021035408603 L-0.7007317903335601 -3.279292769693834 L-0.6522294077603812 -3.151314898770883 z"/>
<path fill="#bababa" stroke="#bababa" d="M-0.841129316420014 -3.137576142131979 L-21 -3.137576142131979 L-21 -1.987703045685279 L-0.841129316420014 -1.987703045685279 z"/>
<path fill="#bababa" stroke="#bababa" d="M-21 -2.252868020304571 L-0.7495065789473684 -2.252868020304571 L-0.7007317903335601 -2.262097338221744 L-0.6972339675828048 -2.252868020304571 L-0.024671052631578944 -2.252868020304571 L0 -2.2575363539777427 L0 -3.136116751269048 L-0.18914473684210525 -3.136116751269048 L-0.9755786249149081 -2.9873052734516845 L-0.927076242341729 -2.859327402528757 L-1.1081943498978897 -2.825055668243532 L-1.226083509513742 -3.136116751269048 L-21 -3.136116751269048 z"/>
<path fill="#bababa" stroke="#bababa" d="M0 -3.923747410952877 L0 -3.8879568527918864 L-0.18914473684210525 -3.8879568527918864 z"/>
<path fill="#bababa" stroke="#bababa" d="M-1.072583390061266 -3.995101116820387 L-1.0821881606765327 -4.020444162436551 L-0.9386513157894736 -4.020444162436551 z"/>
<path fill="#bababa" stroke="#bababa" d="M-21 -3.8879568527918864 L-21 -4.020444162436551 L-1.2762949260042282 -4.020444162436551 L-1.226083509513742 -3.8879568527918864 z"/>
<path fill="#bababa" stroke="#bababa" d="M-21 -3.8879568527918775 L-1.226083509513742 -3.8879568527918775 L-1.226083509513742 -4.020634517766497 L-21 -4.020634517766497 z"/>
<path fill="#bababa" stroke="#bababa" d="M-21 -3.136116751269035 L-1.226083509513742 -3.136116751269035 L-1.226083509513742 -3.2687944162436544 L-21 -3.2687944162436544 z"/>
<path fill="#bababa" stroke="#bababa" d="M0 -3.136116751269035 L0 -3.2687944162436544 L-0.18914473684210525 -3.2687944162436544 L-0.18914473684210525 -3.136116751269035 z"/>
<path fill="#bababa" stroke="#bababa" d="M0 -4.020634517766497 L-0.18914473684210525 -4.020634517766497 L-0.18914473684210525 -3.8879568527918775 L0 -3.8879568527918775 z"/>
<path fill="#bababa" stroke="#bababa" d="M-21 -3.4012817258883246 L-21 -3.135926395939086 L-21 -1.9877030456852791 L-21 -3.1375761421319797 L-21 -4.285799492385786 L-21 -4.020444162436548 L-21 -3.887956852791878 L-21 -4.020634517766497 L-21 -3.1373857868020303 L-21 -2.252868020304568 L-21 -3.1361167512690353 L-21 -3.2687944162436544 z"/>
<path fill="#bababa" stroke="#bababa" d="M-0.7101902867597003 -3.922040650603159 L-0.975578624914908 -3.8718230399491347 L-0.975578624914908 -4.004500704923753 L0 -4.189102740902115 L0 -3.9237474109528763 L-0.18914473684210525 -3.887956852791878 L-0.18914473684210525 -4.020634517766497 z"/>
<path fill="#bababa" stroke="#bababa" d="M-0.18914473684210525 -3.136116751269035 L-0.18914473684210525 -3.2687944162436544 L0 -3.3045849744046527 L0 -3.039229644455414 L-0.975578624914908 -2.8546276084770534 L-0.975578624914908 -2.9873052734516725 z"/>
<path fill="#bababa" stroke="#bababa" d="M0 -3.2687944162436544 L0 -3.1361167512690353 L0 -2.257536353977742 L0 -2.1248586890031227 L0 -3.0392296444554145 L0 -3.304584974404653 z"/>
<path fill="#bababa" stroke="#bababa" d="M0 -4.020634517766497 L0 -3.887956852791878 L0 -3.9237474109528763 L0 -4.189102740902115 L0 -3.274731785449823 L0 -3.142054120475204 z"/>
<path fill="#bababa" stroke="#bababa" d="M-3.4143975493533016 -14.195441398029667 L-3.4143975493533025 -13.045568301582968 L-15.831007488087137 -45.8079032578535 L-15.831007488087135 -46.957776354300194 z"/>
<path fill="#bababa" stroke="#bababa" d="M-3.354024846834581 -13.05699221301137 L-3.414397549353301 -13.045568301582966 L-3.414397549353301 -14.195441398029667 L-3.354024846834581 -14.20686530945807 z"/>
<path fill="#bababa" stroke="#bababa" d="M-3.354024846834581 -14.206865309458095 L-3.414397549353301 -14.195441398029704 L-15.831007488087133 -46.957776354300215 L-15.770634785568413 -46.96920026572861 L-21.78493022464261 -62.83845626017216 L-23.35462049012934 -62.54143456303367 L-1.6255530973451326 -5.207348389560242 L-0.055862831858407076 -5.504370086698734 z"/>
<path fill="#bababa" stroke="#bababa" d="M-1.444434989788972 -4.976264793896198 L-1.6255530973451326 -4.9419930596110175 L-23.35462049012934 -62.276079233084424 L-23.173502382573176 -62.310350967369644 z"/>
<path fill="#bababa" stroke="#bababa" d="M-0.23698093941457204 -4.452902920941418 L-0.23698093941457582 -5.33742068743888 L-21.966048332198774 -62.67150686091231 L-21.966048332198774 -61.78698909441486 z"/>
<path fill="#bababa" stroke="#bababa" d="M-1.444434989788972 -4.2244246923733675 L-0.23698093941456772 -4.452902920941439 L-21.966048332198774 -61.786989094414864 L-23.173502382573176 -61.5585108658468 z"/>
<path fill="#bababa" stroke="#bababa" d="M-1.6255530973451349 -4.057475293113516 L-1.625553097345136 -4.322830623062755 L-23.35462049012934 -61.65691679653619 L-23.35462049012934 -61.39156146658695 z"/>
<path fill="#bababa" stroke="#bababa" d="M-1.6255530973451369 -4.9419930596109785 L-1.6255530973451329 -5.207348389560217 L-23.354620490129342 -62.54143456303365 L-23.35462049012934 -62.2760792330844 z"/>
<path fill="#bababa" stroke="#bababa" d="M-15.770634785568411 -46.9692002657286 L-15.831007488087131 -46.9577763543002 L-15.831007488087131 -45.8079032578535 L-15.770634785568411 -45.819327169281905 z"/>
<path fill="#bababa" stroke="#bababa" d="M-3.354024846834581 -13.056992213011378 L-0.055862831858407076 -4.354496990252028 L-1.6255530973451326 -4.057475293113534 L-23.35462049012934 -61.39156146658697 L-21.78493022464261 -61.68858316372546 L-15.770634785568413 -45.819327169281905 L-15.831007488087133 -45.807903257853525 L-3.414397549353301 -13.045568301582971 z"/>
<path fill="#bababa" stroke="#bababa" d="M-3.3540248468345837 -13.05699221301137 L-3.3540248468345863 -14.20686530945807 L-0.05586283185840734 -5.504370086698709 L-0.055862831858411614 -4.354496990252009 z"/>
<path fill="#bababa" stroke="#bababa" d="M-15.770634785568419 -45.819327169281905 L-21.78493022464261 -61.68858316372544 L-21.784930224642615 -62.838456260172144 L-15.770634785568415 -46.9692002657286 z"/>
<path fill="#bababa" stroke="#bababa" d="M-0.23698093941456772 -5.337420687438888 L-1.444434989788972 -5.108942458870818 L-23.173502382573176 -62.443028632344266 L-21.966048332198774 -62.67150686091233 z"/>
<path fill="#bababa" stroke="#bababa" d="M-1.6255530973451326 -4.322830623062786 L-1.444434989788972 -4.3571023573479675 L-23.173502382573176 -61.691188530821414 L-23.35462049012934 -61.656916796536194 z"/>
<path fill="#bababa" stroke="#bababa" d="M-1.4444349897889734 -4.357102357347966 L-1.4444349897889754 -4.224424692373346 L-23.17350238257318 -61.55851086584678 L-23.173502382573176 -61.69118853082139 z"/>
<path fill="#bababa" stroke="#bababa" d="M-1.4444349897889723 -5.108942458870808 L-1.4444349897889743 -4.976264793896189 L-23.17350238257318 -62.31035096736962 L-23.173502382573176 -62.44302863234424 z"/>
<path fill="#bababa" stroke="#bababa" d="M-23.354620490129335 -62.27607923308441 L-23.354620490129335 -62.541434563033654 L-21.78493022464261 -62.838456260172144 L-21.78493022464261 -61.68858316372545 L-23.354620490129335 -61.39156146658695 L-23.354620490129335 -61.656916796536194 L-23.173502382573176 -61.69118853082141 L-23.173502382573176 -61.55851086584678 L-21.96604833219877 -61.78698909441485 L-21.96604833219877 -62.67150686091232 L-23.173502382573176 -62.443028632344244 L-23.173502382573176 -62.31035096736962 z"/>
<path fill="#bababa" stroke="#bababa" d="M-1.6255530973451326 -5.207348389560217 L-1.6255530973451326 -4.9419930596109785 L-1.444434989788972 -4.976264793896189 L-1.444434989788972 -5.108942458870808 L-0.2369809394145677 -5.33742068743888 L-0.2369809394145677 -4.452902920941418 L-1.444434989788972 -4.224424692373346 L-1.444434989788972 -4.357102357347966 L-1.6255530973451326 -4.322830623062755 L-1.6255530973451326 -4.057475293113516 L-0.055862831858407076 -4.354496990252009 L-0.055862831858407076 -5.50437008669871 z"/>
<path fill="#bababa" stroke="#bababa" d="M-3.9075051055139567 48.18872943540444 L-3.4143975493533043 49.48983778978758 L-3.414397549353304 50.63971088623428 L-15.831007488087135 17.877375929963748 L-15.831007488087133 16.72750283351705 z"/>
<path fill="#bababa" stroke="#bababa" d="M-3.4143975493533008 50.63971088623428 L-3.4143975493533008 49.48983778978758 L-3.354024846834581 49.47841387835918 L-3.354024846834581 50.62828697480588 z"/>
<path fill="#bababa" stroke="#bababa" d="M-3.3856261833092236 49.484393581997466 L-3.414397549353301 49.489837789787586 L-15.831007488087133 16.727502833517047 L-15.770634785568413 16.716078922088634 L-21.78493022464261 0.8468229276451054 L-23.35462049012934 1.1438446247835967 L-1.6255530973451326 58.47793079825702 L-0.055862831858407076 58.18090910111853 L-3.354024846834581 49.47841387835917 z"/>
<path fill="#bababa" stroke="#bababa" d="M-1.444434989788972 58.70901439392105 L-1.6255530973451326 58.74328612820627 L-23.35462049012934 1.409199954732835 L-23.173502382573176 1.3749282204476245 z"/>
<path fill="#bababa" stroke="#bababa" d="M-0.2369809394145693 59.23237626687583 L-0.23698093941457266 58.34785850037837 L-21.966048332198774 1.0137723269049352 L-21.966048332198774 1.8982900934023972 z"/>
<path fill="#bababa" stroke="#bababa" d="M-1.444434989788972 59.460854495443904 L-0.23698093941456772 59.23237626687583 L-21.966048332198774 1.898290093402388 L-23.173502382573176 2.1267683219704585 z"/>
<path fill="#bababa" stroke="#bababa" d="M-1.6255530973451338 59.62780389470374 L-1.6255530973451349 59.3624485647545 L-23.35462049012934 2.0283623912810604 L-23.35462049012934 2.293717721230299 z"/>
<path fill="#bababa" stroke="#bababa" d="M-1.625553097345136 58.74328612820627 L-1.625553097345137 58.477930798257034 L-23.35462049012934 1.1438446247835987 L-23.354620490129342 1.409199954732837 z"/>
<path fill="#bababa" stroke="#bababa" d="M-15.831007488087131 16.727502833517047 L-15.831007488087131 17.877375929963748 L-15.770634785568411 17.865952018535346 L-15.770634785568411 16.716078922088645 z"/>
<path fill="#bababa" stroke="#bababa" d="M-3.414397549353301 50.639710886234276 L-3.354024846834581 50.62828697480587 L-0.055862831858407076 59.33078219756524 L-1.6255530973451326 59.62780389470371 L-23.35462049012934 2.2937177212302897 L-21.78493022464261 1.9966960240917953 L-15.770634785568413 17.865952018535335 L-15.831007488087133 17.877375929963744 z"/>
<path fill="#bababa" stroke="#bababa" d="M-3.3540248468345832 50.62828697480588 L-3.3540248468345832 49.47841387835918 L-0.055862831858411975 58.18090910111853 L-0.055862831858408984 59.330782197565235 z"/>
<path fill="#bababa" stroke="#bababa" d="M-15.770634785568415 17.865952018535342 L-21.784930224642615 1.9966960240918057 L-21.784930224642615 0.8468229276451054 L-15.770634785568415 16.716078922088645 z"/>
<path fill="#bababa" stroke="#bababa" d="M-0.23698093941456772 58.347858500378365 L-1.444434989788972 58.57633672894644 L-23.173502382573176 1.2422505554729921 L-21.966048332198774 1.0137723269049217 z"/>
<path fill="#bababa" stroke="#bababa" d="M-1.6255530973451326 59.36244856475449 L-1.444434989788972 59.32817683046928 L-23.173502382573176 1.9940906569958459 L-23.35462049012934 2.0283623912810564 z"/>
<path fill="#bababa" stroke="#bababa" d="M-1.4444349897889726 59.32817683046929 L-1.4444349897889746 59.460854495443904 L-23.17350238257318 2.1267683219704687 L-23.17350238257318 1.9940906569958499 z"/>
<path fill="#bababa" stroke="#bababa" d="M-1.444434989788977 58.576336728946444 L-1.4444349897889739 58.70901439392106 L-23.17350238257318 1.3749282204476265 L-23.17350238257318 1.242250555473007 z"/>
<path fill="#bababa" stroke="#bababa" d="M-23.354620490129335 1.409199954732837 L-23.354620490129335 1.1438446247835987 L-21.78493022464261 0.8468229276451057 L-21.78493022464261 1.996696024091806 L-23.354620490129335 2.293717721230299 L-23.354620490129335 2.0283623912810604 L-23.173502382573176 1.9940906569958499 L-23.173502382573176 2.1267683219704687 L-21.96604833219877 1.8982900934023972 L-21.96604833219877 1.0137723269049357 L-23.173502382573176 1.2422505554730074 L-23.173502382573176 1.3749282204476263 z"/>
<path fill="#bababa" stroke="#bababa" d="M-1.6255530973451326 58.477930798257034 L-1.6255530973451326 58.74328612820627 L-1.444434989788972 58.709014393921066 L-1.444434989788972 58.57633672894644 L-0.2369809394145677 58.347858500378365 L-0.2369809394145677 59.23237626687583 L-1.444434989788972 59.460854495443904 L-1.444434989788972 59.32817683046928 L-1.6255530973451326 59.36244856475449 L-1.6255530973451326 59.62780389470373 L-0.055862831858407076 59.33078219756524 L-0.055862831858407076 58.18090910111854 z"/>
<path fill="#bababa" stroke="#bababa" d="M-1.2051991150442476 -5.646112932932033 L-1.2051991150442476 79.2675926508243 L0.3644911504424778 78.97057095368581 L0.3644911504424778 -5.943134630070526 z"/>
<path fill="#bababa" stroke="#bababa" d="M-1.121085772634445 -5.936340409063107 L-1.121085772634445 78.97736517469323 L-1.3022038801906055 79.01163690897845 L-1.3022038801906055 -5.9020686747778965 z"/>
<path fill="#bababa" stroke="#bababa" d="M-0.18847855684139045 -6.890026572861126 L-0.1884785568413923 78.02367901089521 L0.1348706603131372 78.87686481704809 L0.1348706603131323 -6.036840766708247 z"/>
<path fill="#bababa" stroke="#bababa" d="M-1.395932607215793 -6.661548344293053 L-1.395932607215793 78.25215723946329 L-0.18847855684138867 78.02367901089521 L-0.18847855684138867 -6.890026572861125 z"/>
<path fill="#bababa" stroke="#bababa" d="M-1.6255530973451369 -6.755254480930775 L-1.625553097345136 78.15845110282555 L-1.5285483321987772 78.41440684467142 L-1.5285483321987818 -6.499298739084912 z"/>
<path fill="#bababa" stroke="#bababa" d="M-1.3022038801906104 -5.9020686747778965 L-1.3022038801906093 79.01163690897845 L-1.2051991150442505 79.2675926508243 L-1.2051991150442483 -5.646112932932033 z"/>
<path fill="#bababa" stroke="#bababa" d="M-0.05586283185840707 -7.052276178069269 L-0.05586283185840707 77.86142940568706 L-1.6255530973451326 78.15845110282555 L-1.6255530973451326 -6.755254480930775 z"/>
<path fill="#bababa" stroke="#bababa" d="M0.36449115044247066 -5.943134630070526 L0.364491150442473 78.9705709536858 L-0.05586283185840846 77.86142940568706 L-0.05586283185840869 -7.052276178069268 z"/>
<path fill="#bababa" stroke="#bababa" d="M0.13487066031313816 -6.036840766708247 L0.13487066031313816 78.87686481704809 L-1.072583390061266 79.10534304561615 L-1.072583390061266 -5.808362538140175 z"/>
<path fill="#bababa" stroke="#bababa" d="M-1.5285483321987745 -6.499298739084911 L-1.5285483321987745 78.41440684467142 L-1.3474302246426137 78.3801351103862 L-1.3474302246426137 -6.533570473370122 z"/>
<path fill="#bababa" stroke="#bababa" d="M-1.3474302246426177 -6.533570473370123 L-1.347430224642617 78.3801351103862 L-1.3959326072157945 78.25215723946327 L-1.3959326072157952 -6.661548344293053 z"/>
<path fill="#bababa" stroke="#bababa" d="M-1.072583390061269 -5.808362538140175 L-1.0725833900612678 79.10534304561617 L-1.121085772634449 78.97736517469323 L-1.1210857726344465 -5.936340409063107 z"/>
<path fill="#bababa" stroke="#bababa" d="M-1.3022038801906057 -5.9020686747779365 L-1.2051991150442476 -5.64611293293206 L0.3644911504424779 -5.943134630070551 L-0.055862831858407076 -7.052276178069289 L-1.6255530973451326 -6.755254480930798 L-1.5285483321987745 -6.499298739084922 L-1.347430224642614 -6.533570473370125 L-1.395932607215793 -6.661548344293086 L-0.18847855684138867 -6.89002657286117 L0.13487066031313819 -6.036840766708263 L-1.072583390061266 -5.808362538140179 L-1.1210857726344452 -5.93634040906314 z"/>
<path fill="#bababa" stroke="#bababa" d="M-1.2051991150442476 79.26759265082428 L-1.3022038801906057 79.01163690897843 L-1.1210857726344452 78.97736517469323 L-1.072583390061266 79.10534304561615 L0.13487066031313819 78.87686481704809 L-0.18847855684138867 78.0236790108952 L-1.395932607215793 78.25215723946326 L-1.347430224642614 78.3801351103862 L-1.5285483321987745 78.41440684467142 L-1.6255530973451326 78.15845110282555 L-0.055862831858407076 77.86142940568706 L0.3644911504424779 78.9705709536858 z"/>
<path fill="#bababa" stroke="#bababa" d="M-0.7848451327433628 -21.519712501684555 L-0.7848451327433628 63.39399308207178 L0.7848451327433628 63.09697138493329 L0.7848451327433628 -21.81673419882305 z"/>
<path fill="#bababa" stroke="#bababa" d="M-0.7007317903335601 -21.809939977815635 L-0.7007317903335601 63.103765605940694 L-0.8818498978897208 63.13803734022591 L-0.8818498978897208 -21.775668243530422 z"/>
<path fill="#bababa" stroke="#bababa" d="M0.23187542545949055 -22.76362614161365 L0.23187542545949436 62.150079442142676 L0.5552246426140208 63.00326524829556 L0.5552246426140192 -21.91044033546077 z"/>
<path fill="#bababa" stroke="#bababa" d="M-0.9755786249149079 -22.535147913045577 L-0.9755786249149079 62.37855767071076 L0.23187542545949621 62.15007944214269 L0.23187542545949621 -22.76362614161365 z"/>
<path fill="#bababa" stroke="#bababa" d="M-1.2051991150442536 -22.6288540496833 L-1.2051991150442496 62.284851534073034 L-1.1081943498978908 62.5408072759189 L-1.1081943498978912 -22.372898307837435 z"/>
<path fill="#bababa" stroke="#bababa" d="M-0.881849897889727 -21.77566824353042 L-0.8818498978897228 63.138037340225914 L-0.7848451327433641 63.39399308207178 L-0.7848451327433652 -21.51971250168456 z"/>
<path fill="#bababa" stroke="#bababa" d="M0.3644911504424778 -22.92587574682179 L0.3644911504424778 61.987829836934544 L-1.2051991150442476 62.284851534073034 L-1.2051991150442476 -22.628854049683298 z"/>
<path fill="#bababa" stroke="#bababa" d="M0.7848451327433563 -21.81673419882305 L0.7848451327433597 63.09697138493328 L0.3644911504424767 61.98782983693454 L0.3644911504424774 -22.92587574682179 z"/>
<path fill="#bababa" stroke="#bababa" d="M0.555224642614023 -21.91044033546077 L0.555224642614023 63.003265248295556 L-0.6522294077603811 63.23174347686363 L-0.6522294077603811 -21.681962106892698 z"/>
<path fill="#bababa" stroke="#bababa" d="M-1.1081943498978895 -22.372898307837435 L-1.1081943498978895 62.5408072759189 L-0.9270762423417289 62.50653554163369 L-0.9270762423417289 -22.407170042122647 z"/>
<path fill="#bababa" stroke="#bababa" d="M-0.9270762423417348 -22.407170042122647 L-0.9270762423417306 62.50653554163369 L-0.9755786249149118 62.378557670710755 L-0.9755786249149117 -22.535147913045577 z"/>
<path fill="#bababa" stroke="#bababa" d="M-0.6522294077603856 -21.681962106892698 L-0.6522294077603851 63.231743476863635 L-0.7007317903335626 63.1037656059407 L-0.7007317903335631 -21.80993997781563 z"/>
<path fill="#bababa" stroke="#bababa" d="M-0.8818498978897208 -21.775668243530458 L-0.7848451327433628 -21.519712501684584 L0.7848451327433628 -21.816734198823074 L0.3644911504424779 -22.925875746821813 L-1.2051991150442476 -22.62885404968332 L-1.1081943498978897 -22.372898307837445 L-0.927076242341729 -22.407170042122694 L-0.9755786249149081 -22.53514791304561 L0.23187542545949624 -22.763626141613692 L0.555224642614023 -21.910440335460784 L-0.6522294077603812 -21.6819621068927 L-0.7007317903335601 -21.809939977815663 z"/>
<path fill="#bababa" stroke="#bababa" d="M-0.7848451327433628 63.393993082071766 L-0.8818498978897208 63.138037340225914 L-0.7007317903335601 63.10376560594069 L-0.6522294077603812 63.23174347686363 L0.555224642614023 63.00326524829556 L0.23187542545949624 62.15007944214268 L-0.9755786249149081 62.37855767071074 L-0.927076242341729 62.50653554163368 L-1.1081943498978897 62.54080727591888 L-1.2051991150442476 62.28485153407303 L0.3644911504424779 61.98782983693454 L0.7848451327433628 63.096971384933276 z"/>
<path fill="#bababa" stroke="#bababa" d="M-23.77497447243022 -65.19848220240294 L-23.77497447243022 19.715223381353383 L-22.205284206943492 19.41820168421489 L-22.205284206943492 -65.49550389954143 z"/>
<path fill="#bababa" stroke="#bababa" d="M-23.69086113002042 -65.48870967853402 L-23.69086113002042 19.424995905222307 L-23.87197923757658 19.459267639507516 L-23.87197923757658 -65.45443794424881 z"/>
<path fill="#bababa" stroke="#bababa" d="M-22.758253914227367 -66.44239584233203 L-22.758253914227364 18.47130974142429 L-22.434904697072838 19.32449554757717 L-22.434904697072838 -65.58921003617917 z"/>
<path fill="#bababa" stroke="#bababa" d="M-23.96570796460177 -66.21391761376397 L-23.96570796460177 18.69978796999236 L-22.758253914227364 18.47130974142429 L-22.758253914227364 -66.44239584233203 z"/>
<path fill="#bababa" stroke="#bababa" d="M-24.195328454731108 -66.30762375040169 L-24.195328454731108 18.60608183335464 L-24.09832368958475 18.8620375752005 L-24.09832368958475 -66.05166800855582 z"/>
<path fill="#bababa" stroke="#bababa" d="M-23.871979237576582 -65.45443794424881 L-23.871979237576582 19.45926763950752 L-23.774974472430223 19.715223381353383 L-23.774974472430223 -65.19848220240296 z"/>
<path fill="#bababa" stroke="#bababa" d="M-22.62563818924438 -66.60464544754018 L-22.62563818924438 18.309060136216146 L-24.195328454731104 18.60608183335464 L-24.195328454731104 -66.30762375040169 z"/>
<path fill="#bababa" stroke="#bababa" d="M-22.2052842069435 -65.49550389954145 L-22.2052842069435 19.41820168421489 L-22.625638189244384 18.309060136216146 L-22.625638189244384 -66.6046454475402 z"/>
<path fill="#bababa" stroke="#bababa" d="M-22.434904697072835 -65.58921003617915 L-22.434904697072835 19.32449554757717 L-23.64235874744724 19.55297377614524 L-23.64235874744724 -65.36073180761109 z"/>
<path fill="#bababa" stroke="#bababa" d="M-24.09832368958475 -66.05166800855582 L-24.09832368958475 18.862037575200503 L-23.917205582028586 18.827765840915294 L-23.917205582028586 -66.08593974284103 z"/>
<path fill="#bababa" stroke="#bababa" d="M-23.91720558202859 -66.08593974284103 L-23.91720558202859 18.827765840915294 L-23.96570796460177 18.69978796999236 L-23.965707964601766 -66.21391761376397 z"/>
<path fill="#bababa" stroke="#bababa" d="M-23.642358747447243 -65.36073180761109 L-23.642358747447243 19.552973776145237 L-23.690861130020423 19.424995905222307 L-23.690861130020423 -65.48870967853402 z"/>
<path fill="#bababa" stroke="#bababa" d="M-23.871979237576582 -65.45443794424882 L-23.774974472430223 -65.19848220240297 L-22.205284206943496 -65.49550389954146 L-22.62563818924438 -66.60464544754021 L-24.195328454731108 -66.30762375040172 L-24.09832368958475 -66.05166800855584 L-23.91720558202859 -66.08593974284106 L-23.96570796460177 -66.21391761376398 L-22.758253914227364 -66.44239584233206 L-22.434904697072838 -65.58921003617918 L-23.64235874744724 -65.36073180761112 L-23.69086113002042 -65.48870967853404 z"/>
<path fill="#bababa" stroke="#bababa" d="M-23.774974472430223 19.715223381353372 L-23.871979237576582 19.45926763950751 L-23.69086113002042 19.424995905222303 L-23.64235874744724 19.552973776145233 L-22.434904697072838 19.324495547577158 L-22.758253914227364 18.471309741424285 L-23.96570796460177 18.699787969992357 L-23.91720558202859 18.827765840915287 L-24.09832368958475 18.8620375752005 L-24.195328454731108 18.606081833354637 L-22.62563818924438 18.309060136216143 L-22.205284206943496 19.418201684214882 z"/>
<path fill="#bababa" stroke="#bababa" d="M-23.35462049012934 -81.07208177115547 L-23.35462049012934 3.8416238126008575 L-21.78493022464261 3.544602115462364 L-21.78493022464261 -81.36910346829397 z"/>
<path fill="#bababa" stroke="#bababa" d="M-23.270507147719535 -81.36230924728655 L-23.270507147719535 3.551396336469783 L-23.451625255275694 3.5856680707549935 L-23.451625255275694 -81.32803751300133 z"/>
<path fill="#bababa" stroke="#bababa" d="M-22.33789993192648 -82.31599541108457 L-22.33789993192648 2.597710172671764 L-22.014550714771953 3.4508959788246427 L-22.014550714771957 -81.46280960493169 z"/>
<path fill="#bababa" stroke="#bababa" d="M-23.54535398230088 -82.08751718251649 L-23.54535398230088 2.8261884012398357 L-22.337899931926476 2.5977101726717637 L-22.337899931926476 -82.31599541108457 z"/>
<path fill="#bababa" stroke="#bababa" d="M-23.77497447243022 -82.18122331915421 L-23.774974472430223 2.7324822646021154 L-23.677969707283864 2.9884380064479785 L-23.677969707283868 -81.92526757730835 z"/>
<path fill="#bababa" stroke="#bababa" d="M-23.451625255275694 -81.32803751300133 L-23.451625255275697 3.585668070754994 L-23.35462049012934 3.841623812600857 L-23.35462049012934 -81.07208177115548 z"/>
<path fill="#bababa" stroke="#bababa" d="M-22.205284206943492 -82.47824501629272 L-22.205284206943492 2.4354605674636214 L-23.77497447243022 2.732482264602115 L-23.77497447243022 -82.18122331915421 z"/>
<path fill="#bababa" stroke="#bababa" d="M-21.784930224642615 -81.36910346829397 L-21.78493022464261 3.544602115462364 L-22.2052842069435 2.4354605674636214 L-22.2052842069435 -82.47824501629272 z"/>
<path fill="#bababa" stroke="#bababa" d="M-22.014550714771953 -81.46280960493168 L-22.014550714771953 3.450895978824643 L-23.22200476514635 3.6793742073927143 L-23.22200476514635 -81.23433137636361 z"/>
<path fill="#bababa" stroke="#bababa" d="M-23.67796970728386 -81.92526757730835 L-23.67796970728386 2.9884380064479785 L-23.4968515997277 2.9541662721627677 L-23.4968515997277 -81.95953931159356 z"/>
<path fill="#bababa" stroke="#bababa" d="M-23.4968515997277 -81.95953931159356 L-23.496851599727705 2.9541662721627677 L-23.545353982300885 2.826188401239836 L-23.545353982300885 -82.08751718251649 z"/>
<path fill="#bababa" stroke="#bababa" d="M-23.222004765146355 -81.23433137636361 L-23.22200476514636 3.6793742073927147 L-23.270507147719538 3.5513963364697827 L-23.270507147719535 -81.36230924728655 z"/>
<path fill="#bababa" stroke="#bababa" d="M-23.451625255275697 -81.32803751300135 L-23.35462049012934 -81.0720817711555 L-21.78493022464261 -81.36910346829399 L-22.205284206943496 -82.47824501629273 L-23.774974472430223 -82.18122331915424 L-23.677969707283864 -81.92526757730838 L-23.496851599727705 -81.95953931159359 L-23.545353982300885 -82.08751718251652 L-22.33789993192648 -82.31599541108459 L-22.014550714771953 -81.46280960493169 L-23.222004765146355 -81.23433137636364 L-23.270507147719535 -81.36230924728657 z"/>
<path fill="#bababa" stroke="#bababa" d="M-23.35462049012934 3.8416238126008513 L-23.451625255275697 3.585668070754986 L-23.270507147719535 3.5513963364697823 L-23.222004765146355 3.6793742073927094 L-22.014550714771953 3.4508959788246374 L-22.33789993192648 2.597710172671764 L-23.545353982300885 2.826188401239825 L-23.496851599727705 2.9541662721627633 L-23.677969707283864 2.988438006447978 L-23.774974472430223 2.7324822646021127 L-22.205284206943496 2.435460567463611 L-21.78493022464261 3.544602115462361 z"/>
<path fill="#e2c66c" stroke="#e2c66c" d="M-2.6899251191286586 -15.880434426541067 L-3.414397549353301 -15.743347489400223 L-3.414397549353301 52.18761697760484 L-2.6899251191286586 52.050530040464 z"/>
<path fill="#e2c66c" stroke="#e2c66c" d="M-15.10653505786249 -48.64276938281162 L-15.831007488087133 -48.505682445670786 L-3.414397549353301 -15.743347489400232 L-2.6899251191286586 -15.880434426541091 z"/>
<path fill="#e2c66c" stroke="#e2c66c" d="M-15.106535057862489 19.288195084193465 L-15.831007488087133 19.425282021334308 L-15.831007488087133 -48.50568244567076 L-15.106535057862489 -48.6427693828116 z"/>
<path fill="#e2c66c" stroke="#e2c66c" d="M-2.6899251191286586 52.050530040464 L-3.414397549353301 52.18761697760483 L-15.831007488087133 19.425282021334304 L-15.10653505786249 19.288195084193454 z"/>
<path fill="#e2c66c" stroke="#e2c66c" d="M-2.689925119128661 -15.880434426541068 L-2.6899251191286604 52.050530040464 L-15.10653505786249 19.288195084193465 L-15.10653505786249 -48.6427693828116 z"/>
<path fill="#e2c66c" stroke="#e2c66c" d="M-3.414397549353305 -15.743347489400225 L-15.831007488087137 -48.50568244567076 L-15.831007488087137 19.425282021334308 L-3.4143975493533043 52.18761697760485 z"/>
</svg>